<svg xmlns="http://www.w3.org/2000/svg" xmlns:xlink="http://www.w3.org/1999/xlink" width="1024.5" viewBox="0 0 1024.5 588" height="588" version="1.0"><defs><clipPath id="b"><path d="M 0 0.144531 L 1024 0.144531 L 1024 587.855469 L 0 587.855469 Z M 0 0.144531"/></clipPath><clipPath id="c"><path d="M 0 208 L 182 208 L 182 539 L 0 539 Z M 0 208"/></clipPath><clipPath id="d"><path d="M 209.234375 494.375 L -28.761719 617.519531 L -203.683594 279.457031 L 34.3125 156.3125 Z M 209.234375 494.375"/></clipPath><clipPath id="e"><path d="M -124.25 432.757812 C -132.878906 416.078125 -131.996094 394.59375 -116.738281 378.355469 C -95.714844 355.820312 -104.59375 330.929688 -119.789062 308.851562 C -140.128906 279.261719 -120.464844 237.085938 -84.589844 234.636719 C -76.746094 234.121094 -68.75 234.554688 -61.246094 232.042969 C -51.757812 228.960938 -43.722656 222.175781 -34.191406 218.957031 C -0.839844 207.871094 25.292969 200.066406 55.3125 223.847656 C 78.90625 242.496094 93.492188 273.121094 87.644531 303.34375 C 84.289062 319.824219 87.53125 337.578125 95.644531 353.261719 C 103.996094 369.398438 117.445312 383.46875 134.269531 391.90625 C 151.828125 400.878906 164.683594 414.683594 172.660156 430.097656 C 181.335938 446.867188 184.351562 471.25 178.386719 489.535156 C 170.109375 514.621094 141.359375 517.152344 120.492188 505.089844 C 104.933594 496 82.640625 495.992188 68.460938 507.902344 C 63.34375 512.148438 59.148438 517.289062 54.675781 522.121094 C 37.09375 540.929688 5.867188 544.632812 -13.941406 527.109375 C -25.753906 516.648438 -25.148438 504.792969 -30.328125 491.246094 C -37.960938 471.195312 -57.136719 456.886719 -78.90625 458.324219 C -99.679688 459.699219 -116.179688 448.351562 -124.25 432.757812"/></clipPath><clipPath id="f"><path d="M 234 0.144531 L 1024 0.144531 L 1024 587.855469 L 234 587.855469 Z M 234 0.144531"/></clipPath><clipPath id="i"><path d="M 103 0.144531 L 790 0.144531 L 790 587.855469 L 103 587.855469 Z M 103 0.144531"/></clipPath><clipPath id="j"><path d="M 825.378906 946.96875 L 0.332031 812.144531 L 191.84375 -359.796875 L 1016.890625 -224.972656 Z M 825.378906 946.96875"/></clipPath><clipPath id="k"><path d="M 105.285156 171.847656 C 114.734375 114.03125 156.945312 61.890625 225.363281 49.648438 C 319.953125 32.378906 344.066406 -46.464844 347.136719 -130.027344 C 351.308594 -241.96875 479.054688 -310.9375 573.421875 -250.273438 C 594.027344 -236.960938 613.234375 -220.988281 636.6875 -213.304688 C 666.183594 -203.351562 698.921875 -205.378906 728.78125 -195.6875 C 832.90625 -161.347656 912.855469 -132.238281 943.730469 -16.816406 C 968.066406 73.792969 947.574219 177.613281 876.664062 242.390625 C 837.574219 277.394531 812.644531 327.867188 803.757812 382.246094 C 794.613281 438.1875 802.09375 498.449219 828.5 550.890625 C 855.742188 606.039062 862.226562 664.535156 853.496094 717.976562 C 843.996094 776.105469 806.152344 842.753906 757.171875 877.425781 C 689.746094 924.804688 613.070312 877.621094 583.28125 808.582031 C 561.253906 756.851562 505.46875 715.328125 447.800781 718.738281 C 427.082031 719.847656 407.003906 724.90625 386.816406 728.667969 C 307.785156 743.027344 222.722656 694.152344 205.753906 613.410156 C 195.660156 565.234375 219.253906 536.683594 231.507812 493.125 C 249.730469 428.71875 228.371094 357.207031 171.195312 320.269531 C 116.628906 285.042969 96.453125 225.914062 105.285156 171.847656"/></clipPath><clipPath id="h"><path d="M0 0H790V588H0z"/></clipPath><clipPath id="l"><path d="M 780 0.144531 L 1024 0.144531 L 1024 171 L 780 171 Z M 780 0.144531"/></clipPath><clipPath id="m"><path d="M 861.914062 201.601562 L 695.03125 -8.644531 L 993.675781 -245.695312 L 1160.558594 -35.449219 Z M 861.914062 201.601562"/></clipPath><clipPath id="n"><path d="M 858.273438 -138.089844 C 873.007812 -149.785156 894.296875 -153.050781 913.195312 -141.183594 C 939.398438 -124.851562 962.15625 -138.375 980.9375 -157.566406 C 1006.109375 -183.257812 1051.355469 -172.046875 1060.667969 -137.253906 C 1062.6875 -129.636719 1063.800781 -121.695312 1067.714844 -114.804688 C 1072.570312 -106.066406 1080.789062 -99.476562 1085.789062 -90.726562 C 1103.105469 -60.074219 1115.8125 -35.890625 1098.214844 -1.800781 C 1084.425781 24.984375 1057.128906 45.21875 1026.292969 45.292969 C 1009.445312 45.164062 992.617188 51.769531 978.761719 62.769531 C 964.507812 74.085938 953.265625 90.015625 948.210938 108.179688 C 942.769531 127.164062 931.675781 142.460938 918.058594 153.273438 C 903.246094 165.03125 879.859375 172.6875 860.730469 170.34375 C 834.480469 167.039062 826.457031 139.265625 834.292969 116.429688 C 840.234375 99.382812 835.949219 77.46875 821.511719 65.820312 C 816.351562 61.609375 810.488281 58.472656 804.878906 55.007812 C 783.003906 41.347656 773.351562 11.359375 786.761719 -11.484375 C 794.769531 -25.113281 806.542969 -26.796875 818.863281 -34.5 C 837.105469 -45.863281 847.476562 -67.46875 841.871094 -88.59375 C 836.519531 -108.746094 844.496094 -127.152344 858.273438 -138.089844"/></clipPath><clipPath id="o"><path d="M 687 267 L 1024 267 L 1024 587.855469 L 687 587.855469 Z M 687 267"/></clipPath><clipPath id="p"><path d="M 1068.226562 229.902344 L 1237.574219 547.613281 L 786.277344 788.164062 L 616.929688 470.449219 Z M 1068.226562 229.902344"/></clipPath><clipPath id="q"><path d="M 990.921875 678.929688 C 968.65625 690.796875 939.777344 689.960938 917.714844 669.734375 C 887.09375 641.859375 853.796875 654.195312 824.382812 674.972656 C 784.964844 702.785156 727.984375 677.058594 724.105469 628.902344 C 723.28125 618.371094 723.734375 607.621094 720.238281 597.582031 C 715.941406 584.882812 706.695312 574.203125 702.214844 561.449219 C 686.773438 516.828125 675.855469 481.847656 707.3125 441.128906 C 731.980469 409.125 772.882812 389.023438 813.582031 396.382812 C 835.777344 400.625 859.574219 395.976562 880.511719 384.816406 C 902.054688 373.332031 920.734375 355.03125 931.792969 332.292969 C 943.5625 308.558594 961.894531 291.058594 982.472656 280.089844 C 1004.859375 268.160156 1037.566406 263.707031 1062.230469 271.421875 C 1096.066406 282.132812 1099.9375 320.710938 1084.082031 348.941406 C 1072.121094 369.996094 1072.476562 399.945312 1088.707031 418.800781 C 1094.496094 425.605469 1101.476562 431.15625 1108.035156 437.085938 C 1133.597656 460.398438 1139.082031 502.289062 1115.867188 529.1875 C 1102.007812 545.230469 1086.070312 544.609375 1067.953125 551.792969 C 1041.140625 562.375 1022.234375 588.367188 1024.523438 617.59375 C 1026.714844 645.476562 1011.738281 667.832031 990.921875 678.929688"/></clipPath><clipPath id="r"><path d="M 89 553 L 413 553 L 413 587.855469 L 89 587.855469 Z M 89 553"/></clipPath><clipPath id="s"><path d="M 429.191406 610.828125 L 371.734375 831.507812 L 58.265625 749.894531 L 115.722656 529.210938 Z M 429.191406 610.828125"/></clipPath><clipPath id="t"><path d="M 200.476562 786.832031 C 185.011719 782.804688 171.917969 770.023438 170.320312 751.128906 C 168.015625 725.003906 147.210938 716.460938 124.59375 713.519531 C 94.296875 709.558594 78.789062 673.121094 97.648438 649.019531 C 101.785156 643.761719 106.609375 638.949219 109.289062 632.773438 C 112.738281 625.011719 113.011719 616.070312 116.398438 608.203125 C 128.355469 580.789062 138.28125 559.808594 170.410156 554.339844 C 195.636719 550.019531 223.316406 558.207031 239.121094 579.101562 C 247.640625 590.605469 260.71875 598.648438 275.261719 602.4375 C 290.226562 606.332031 306.78125 605.824219 321.691406 599.976562 C 337.359375 593.96875 353.410156 593.6875 367.703125 597.40625 C 383.253906 601.457031 400.398438 613.417969 408.578125 627.597656 C 419.746094 647.105469 404.992188 666.742188 385.488281 673.085938 C 370.882812 677.765625 358.195312 691.867188 357.664062 707.617188 C 357.441406 713.269531 358.308594 718.851562 358.820312 724.429688 C 360.726562 746.257812 345.300781 768.128906 322.945312 770.695312 C 309.605469 772.222656 302.445312 765.089844 290.925781 760.664062 C 273.890625 754.085938 253.929688 758.082031 242.453125 772.679688 C 231.507812 786.609375 214.9375 790.597656 200.476562 786.832031"/></clipPath><clipPath id="u"><path d="M 554 459.542969 L 628 459.542969 L 628 528 L 554 528 Z M 554 459.542969"/></clipPath><clipPath id="v"><path d="M 613.113281 465.109375 C 606.105469 460.695312 604.226562 460.492188 595.992188 459.582031 C 577.109375 459.804688 561.800781 470.710938 555.875 488.644531 C 553.847656 494.78125 553.308594 501.640625 555.6875 507.648438 C 558.816406 515.539062 566.589844 520.890625 574.804688 523.042969 C 583.019531 525.207031 592.0625 528.175781 600.488281 527.152344 C 607.054688 526.351562 613.617188 521.546875 618.53125 517.117188 C 621.792969 514.179688 623.828125 510.101562 625.191406 505.925781 C 629.949219 491.398438 626.050781 473.265625 613.113281 465.109375 Z M 613.113281 465.109375"/></clipPath><filter x="0%" y="0%" width="100%" xlink:type="simple" xlink:actuate="onLoad" height="100%" id="a" xlink:show="other"><feColorMatrix values="0 0 0 0 1 0 0 0 0 1 0 0 0 0 1 0 0 0 1 0" color-interpolation-filters="sRGB"/></filter><mask id="g"><g filter="url(#a)"><path fill-opacity=".298" d="M-102.45 -58.8H1126.95V646.8000000000001H-102.45z"/></g></mask></defs><g clip-path="url(#b)" fill="#FFF"><path d="M 0 0.144531 L 1024.5 0.144531 L 1024.5 595.644531 L 0 595.644531 Z M 0 0.144531"/><path d="M 0 0.144531 L 1024.5 0.144531 L 1024.5 588.144531 L 0 588.144531 Z M 0 0.144531"/><path d="M 0 0.144531 L 1024.5 0.144531 L 1024.5 588.144531 L 0 588.144531 Z M 0 0.144531"/></g><g clip-path="url(#c)"><g clip-path="url(#d)"><g clip-path="url(#e)"><path fill="#E89A7D" d="M 209.234375 494.375 L -28.761719 617.519531 L -203.21875 280.359375 L 34.777344 157.214844 Z M 209.234375 494.375"/></g></g></g><g clip-path="url(#f)"><g mask="url(#g)"><g><g clip-path="url(#h)" transform="translate(234)"><g clip-path="url(#i)"><g clip-path="url(#j)"><g clip-path="url(#k)"><path fill="#FAB164" d="M 825.378906 946.96875 L 0.332031 812.144531 L 191.332031 -356.671875 L 1016.378906 -221.847656 Z M 825.378906 946.96875"/></g></g></g></g></g></g></g><g clip-path="url(#l)"><g clip-path="url(#m)"><g clip-path="url(#n)"><path fill="#E89A7D" d="M 861.914062 201.601562 L 695.03125 -8.644531 L 992.878906 -245.0625 L 1159.761719 -34.816406 Z M 861.914062 201.601562"/></g></g></g><g clip-path="url(#o)"><g clip-path="url(#p)"><g clip-path="url(#q)"><path fill="#FAB164" d="M 1068.226562 229.902344 L 1237.574219 547.613281 L 787.480469 787.519531 L 618.132812 469.808594 Z M 1068.226562 229.902344"/></g></g></g><g clip-path="url(#r)"><g clip-path="url(#s)"><g clip-path="url(#t)"><path fill="#FAB164" d="M 429.191406 610.828125 L 371.734375 831.507812 L 59.101562 750.109375 L 116.558594 529.429688 Z M 429.191406 610.828125"/></g></g></g><g clip-path="url(#u)"><g clip-path="url(#v)"><path fill="#E89A7D" d="M 553.378906 454.53125 L 628.191406 454.53125 L 628.191406 529.34375 L 553.378906 529.34375 Z M 553.378906 454.53125"/></g></g></svg>