<svg xmlns="http://www.w3.org/2000/svg" width="1144.5" viewBox="0 0 1144.5 725.25" height="725.25" version="1.0"><defs><clipPath id="a"><path d="M 0.339844 0 L 1143.660156 0 L 1143.660156 724.5 L 0.339844 724.5 Z M 0.339844 0"/></clipPath><clipPath id="b"><path d="M 0.339844 135 L 1143.660156 135 L 1143.660156 724.5 L 0.339844 724.5 Z M 0.339844 135"/></clipPath><clipPath id="c"><path d="M 0.339844 541 L 1143.660156 541 L 1143.660156 724.5 L 0.339844 724.5 Z M 0.339844 541"/></clipPath></defs><g clip-path="url(#a)"><path fill="#FFF" d="M 0.339844 0 L 1144.160156 0 L 1144.160156 731.5625 L 0.339844 731.5625 Z M 0.339844 0"/><path fill="#FFF" d="M 0.339844 0 L 1144.160156 0 L 1144.160156 724.816406 L 0.339844 724.816406 Z M 0.339844 0"/><path fill="#FAB164" d="M 0.339844 0 L 1144.160156 0 L 1144.160156 724.816406 L 0.339844 724.816406 Z M 0.339844 0"/></g><g clip-path="url(#b)"><path fill="#FDEACE" d="M 1059.054688 162.03125 C 1042.582031 172.554688 1029.542969 181.015625 1001.175781 181.015625 C 972.808594 181.015625 959.769531 172.78125 943.300781 162.03125 C 924.542969 149.90625 901.207031 135.039062 858.199219 135.039062 C 815.195312 135.039062 791.859375 149.90625 773.101562 161.804688 C 756.632812 172.324219 743.589844 180.789062 715.226562 180.789062 C 686.859375 180.789062 673.820312 172.554688 657.347656 161.804688 C 638.589844 149.90625 615.257812 135.039062 572.25 135.039062 C 529.242188 135.039062 505.910156 149.90625 487.152344 161.804688 C 470.679688 172.324219 457.640625 180.789062 429.273438 180.789062 C 400.90625 180.789062 387.867188 172.554688 371.398438 161.804688 C 352.640625 149.90625 329.304688 135.039062 286.300781 135.039062 C 243.292969 135.039062 219.957031 149.90625 201.199219 161.804688 C 184.730469 172.324219 171.691406 180.789062 143.324219 180.789062 C 114.957031 180.789062 101.917969 172.554688 85.445312 161.804688 C 66.6875 149.90625 43.355469 135.039062 0.347656 135.039062 L 0.347656 1123.59375 L 1144.152344 1123.59375 L 1144.152344 135.039062 C 1101.144531 135.039062 1077.8125 149.90625 1059.054688 162.03125"/></g><g clip-path="url(#c)"><path fill="#E89A7D" d="M 1059.058594 568.648438 C 1042.585938 579.167969 1029.546875 587.632812 1001.179688 587.632812 C 972.8125 587.632812 959.773438 579.398438 943.304688 568.648438 C 924.542969 556.523438 901.210938 541.660156 858.203125 541.660156 C 815.195312 541.660156 791.863281 556.523438 773.105469 568.417969 C 756.632812 578.941406 743.59375 587.402344 715.226562 587.402344 C 686.859375 587.402344 673.820312 579.167969 657.351562 568.417969 C 638.589844 556.523438 615.257812 541.660156 572.25 541.660156 C 529.242188 541.660156 505.910156 556.523438 487.148438 568.417969 C 470.679688 578.941406 457.640625 587.402344 429.273438 587.402344 C 400.90625 587.402344 387.867188 579.167969 371.394531 568.417969 C 352.636719 556.523438 329.304688 541.660156 286.296875 541.660156 C 243.289062 541.660156 219.957031 556.523438 201.195312 568.417969 C 184.726562 578.941406 171.6875 587.402344 143.320312 587.402344 C 114.953125 587.402344 101.914062 579.167969 85.441406 568.417969 C 66.683594 556.523438 43.351562 541.660156 0.34375 541.660156 L 0.34375 1603.667969 L 1144.15625 1603.667969 L 1144.15625 541.660156 C 1101.148438 541.660156 1077.816406 556.523438 1059.058594 568.648438"/></g></svg>