<svg xmlns="http://www.w3.org/2000/svg" xmlns:xlink="http://www.w3.org/1999/xlink" width="1024.5" viewBox="0 0 1024.5 588" height="588" version="1.0"><defs><clipPath id="b"><path d="M 0 0.144531 L 1024 0.144531 L 1024 587.855469 L 0 587.855469 Z M 0 0.144531"/></clipPath><clipPath id="c"><path d="M 0 163 L 135 163 L 135 494 L 0 494 Z M 0 163"/></clipPath><clipPath id="d"><path d="M 162.398438 449.492188 L -75.597656 572.636719 L -250.519531 234.574219 L -12.523438 111.429688 Z M 162.398438 449.492188"/></clipPath><clipPath id="e"><path d="M -171.082031 387.875 C -179.714844 371.195312 -178.832031 349.710938 -163.574219 333.472656 C -142.550781 310.9375 -151.429688 286.046875 -166.625 263.96875 C -186.964844 234.378906 -167.300781 192.203125 -131.425781 189.753906 C -123.578125 189.238281 -115.582031 189.671875 -108.082031 187.160156 C -98.589844 184.078125 -90.558594 177.292969 -81.023438 174.074219 C -47.671875 162.988281 -21.542969 155.183594 8.476562 178.964844 C 32.070312 197.613281 46.660156 228.238281 40.8125 258.460938 C 37.453125 274.941406 40.695312 292.695312 48.8125 308.378906 C 57.160156 324.515625 70.613281 338.585938 87.4375 347.023438 C 104.992188 355.996094 117.851562 369.800781 125.828125 385.214844 C 134.503906 401.984375 137.519531 426.367188 131.550781 444.652344 C 123.273438 469.738281 94.527344 472.269531 73.660156 460.207031 C 58.097656 451.117188 35.808594 451.109375 21.625 463.019531 C 16.511719 467.265625 12.3125 472.40625 7.839844 477.238281 C -9.738281 496.046875 -40.96875 499.75 -60.777344 482.226562 C -72.589844 471.765625 -71.980469 459.910156 -77.164062 446.363281 C -84.792969 426.3125 -103.96875 412.003906 -125.742188 413.441406 C -146.511719 414.816406 -163.015625 403.46875 -171.082031 387.875"/></clipPath><clipPath id="f"><path d="M 234 0.144531 L 1024 0.144531 L 1024 587.855469 L 234 587.855469 Z M 234 0.144531"/></clipPath><clipPath id="i"><path d="M 103 0.144531 L 790 0.144531 L 790 587.855469 L 103 587.855469 Z M 103 0.144531"/></clipPath><clipPath id="j"><path d="M 825.378906 946.96875 L 0.332031 812.144531 L 191.84375 -359.796875 L 1016.890625 -224.972656 Z M 825.378906 946.96875"/></clipPath><clipPath id="k"><path d="M 105.285156 171.847656 C 114.734375 114.03125 156.945312 61.890625 225.363281 49.648438 C 319.953125 32.378906 344.066406 -46.464844 347.136719 -130.027344 C 351.308594 -241.96875 479.054688 -310.9375 573.421875 -250.273438 C 594.027344 -236.960938 613.234375 -220.988281 636.6875 -213.304688 C 666.183594 -203.351562 698.921875 -205.378906 728.78125 -195.6875 C 832.90625 -161.347656 912.855469 -132.238281 943.730469 -16.816406 C 968.066406 73.792969 947.574219 177.613281 876.664062 242.390625 C 837.574219 277.394531 812.644531 327.867188 803.757812 382.246094 C 794.613281 438.1875 802.09375 498.449219 828.5 550.890625 C 855.742188 606.039062 862.226562 664.535156 853.496094 717.976562 C 843.996094 776.105469 806.152344 842.753906 757.171875 877.425781 C 689.746094 924.804688 613.070312 877.621094 583.28125 808.582031 C 561.253906 756.851562 505.46875 715.328125 447.800781 718.738281 C 427.082031 719.847656 407.003906 724.90625 386.816406 728.667969 C 307.785156 743.027344 222.722656 694.152344 205.753906 613.410156 C 195.660156 565.234375 219.253906 536.683594 231.507812 493.125 C 249.730469 428.71875 228.371094 357.207031 171.195312 320.269531 C 116.628906 285.042969 96.453125 225.914062 105.285156 171.847656"/></clipPath><clipPath id="h"><path d="M0 0H790V588H0z"/></clipPath><clipPath id="l"><path d="M 816 0.144531 L 1024 0.144531 L 1024 131 L 816 131 Z M 816 0.144531"/></clipPath><clipPath id="m"><path d="M 886.132812 156.851562 L 742.570312 -24.011719 L 999.480469 -227.9375 L 1143.042969 -47.070312 Z M 886.132812 156.851562"/></clipPath><clipPath id="n"><path d="M 883 -135.367188 C 895.675781 -145.429688 913.992188 -148.242188 930.25 -138.027344 C 952.789062 -123.980469 972.367188 -135.613281 988.523438 -152.121094 C 1010.175781 -174.222656 1049.097656 -164.582031 1057.113281 -134.648438 C 1058.851562 -128.097656 1059.808594 -121.265625 1063.171875 -115.335938 C 1067.351562 -107.820312 1074.417969 -102.152344 1078.71875 -94.621094 C 1093.617188 -68.257812 1104.550781 -47.449219 1089.410156 -18.125 C 1077.546875 4.914062 1054.066406 22.324219 1027.539062 22.386719 C 1013.046875 22.277344 998.570312 27.960938 986.652344 37.421875 C 974.386719 47.15625 964.71875 60.859375 960.371094 76.484375 C 955.691406 92.816406 946.144531 105.976562 934.429688 115.277344 C 921.6875 125.390625 901.570312 131.980469 885.117188 129.964844 C 862.53125 127.117188 855.628906 103.226562 862.371094 83.582031 C 867.480469 68.917969 863.796875 50.066406 851.375 40.046875 C 846.9375 36.421875 841.894531 33.726562 837.070312 30.742188 C 818.25 18.992188 809.945312 -6.804688 821.480469 -26.457031 C 828.371094 -38.179688 838.5 -39.628906 849.097656 -46.253906 C 864.789062 -56.03125 873.710938 -74.613281 868.890625 -92.789062 C 864.285156 -110.125 871.148438 -125.960938 883 -135.367188"/></clipPath><clipPath id="o"><path d="M 743 363 L 1024 363 L 1024 587.855469 L 743 587.855469 Z M 743 363"/></clipPath><clipPath id="p"><path d="M 1124.816406 325.367188 L 1294.164062 643.078125 L 842.867188 883.628906 L 673.519531 565.917969 Z M 1124.816406 325.367188"/></clipPath><clipPath id="q"><path d="M 1047.511719 774.394531 C 1025.246094 786.261719 996.367188 785.429688 974.304688 765.199219 C 943.683594 737.324219 910.390625 749.660156 880.976562 770.441406 C 841.558594 798.25 784.574219 772.527344 780.695312 724.367188 C 779.871094 713.835938 780.324219 703.085938 776.828125 693.050781 C 772.53125 680.351562 763.285156 669.671875 758.804688 656.914062 C 743.367188 612.292969 732.449219 577.3125 763.902344 536.59375 C 788.570312 504.59375 829.472656 484.492188 870.175781 491.847656 C 892.371094 496.089844 916.164062 491.445312 937.105469 480.28125 C 958.648438 468.800781 977.328125 450.5 988.386719 427.757812 C 1000.152344 404.023438 1018.488281 386.523438 1039.066406 375.554688 C 1061.449219 363.625 1094.15625 359.171875 1118.824219 366.886719 C 1152.65625 377.597656 1156.53125 416.175781 1140.671875 444.410156 C 1128.714844 465.464844 1129.066406 495.410156 1145.300781 514.265625 C 1151.089844 521.070312 1158.066406 526.621094 1164.628906 532.554688 C 1190.1875 555.863281 1195.671875 597.753906 1172.457031 624.65625 C 1158.601562 640.695312 1142.660156 640.074219 1124.546875 647.257812 C 1097.734375 657.839844 1078.828125 683.835938 1081.113281 713.058594 C 1083.304688 740.945312 1068.332031 763.296875 1047.511719 774.394531"/></clipPath><clipPath id="r"><path d="M 89 553 L 413 553 L 413 587.855469 L 89 587.855469 Z M 89 553"/></clipPath><clipPath id="s"><path d="M 429.191406 610.828125 L 371.734375 831.507812 L 58.265625 749.894531 L 115.722656 529.210938 Z M 429.191406 610.828125"/></clipPath><clipPath id="t"><path d="M 200.476562 786.832031 C 185.011719 782.804688 171.917969 770.023438 170.320312 751.128906 C 168.015625 725.003906 147.210938 716.460938 124.59375 713.519531 C 94.296875 709.558594 78.789062 673.121094 97.648438 649.019531 C 101.785156 643.761719 106.609375 638.949219 109.289062 632.773438 C 112.738281 625.011719 113.011719 616.070312 116.398438 608.203125 C 128.355469 580.789062 138.28125 559.808594 170.410156 554.339844 C 195.636719 550.019531 223.316406 558.207031 239.121094 579.101562 C 247.640625 590.605469 260.71875 598.648438 275.261719 602.4375 C 290.226562 606.332031 306.78125 605.824219 321.691406 599.976562 C 337.359375 593.96875 353.410156 593.6875 367.703125 597.40625 C 383.253906 601.457031 400.398438 613.417969 408.578125 627.597656 C 419.746094 647.105469 404.992188 666.742188 385.488281 673.085938 C 370.882812 677.765625 358.195312 691.867188 357.664062 707.617188 C 357.441406 713.269531 358.308594 718.851562 358.820312 724.429688 C 360.726562 746.257812 345.300781 768.128906 322.945312 770.695312 C 309.605469 772.222656 302.445312 765.089844 290.925781 760.664062 C 273.890625 754.085938 253.929688 758.082031 242.453125 772.679688 C 231.507812 786.609375 214.9375 790.597656 200.476562 786.832031"/></clipPath><clipPath id="u"><path d="M 617 475.929688 L 674 475.929688 L 674 528 L 617 528 Z M 617 475.929688"/></clipPath><clipPath id="v"><path d="M 662.714844 480.1875 C 657.347656 476.8125 655.914062 476.65625 649.609375 475.957031 C 635.160156 476.128906 623.445312 484.476562 618.914062 498.199219 C 617.359375 502.894531 616.949219 508.144531 618.769531 512.742188 C 621.160156 518.78125 627.109375 522.875 633.394531 524.523438 C 639.683594 526.175781 646.605469 528.449219 653.050781 527.664062 C 658.078125 527.054688 663.097656 523.378906 666.859375 519.988281 C 669.355469 517.738281 670.910156 514.617188 671.953125 511.425781 C 675.59375 500.304688 672.613281 486.429688 662.714844 480.1875 Z M 662.714844 480.1875"/></clipPath><filter x="0%" y="0%" width="100%" xlink:type="simple" xlink:actuate="onLoad" height="100%" id="a" xlink:show="other"><feColorMatrix values="0 0 0 0 1 0 0 0 0 1 0 0 0 0 1 0 0 0 1 0" color-interpolation-filters="sRGB"/></filter><mask id="g"><g filter="url(#a)"><path fill-opacity=".298" d="M-102.45 -58.8H1126.95V646.8000000000001H-102.45z"/></g></mask></defs><g clip-path="url(#b)" fill="#FFF"><path d="M 0 0.144531 L 1024.5 0.144531 L 1024.5 595.644531 L 0 595.644531 Z M 0 0.144531"/><path d="M 0 0.144531 L 1024.5 0.144531 L 1024.5 588.144531 L 0 588.144531 Z M 0 0.144531"/><path d="M 0 0.144531 L 1024.5 0.144531 L 1024.5 588.144531 L 0 588.144531 Z M 0 0.144531"/></g><g clip-path="url(#c)"><g clip-path="url(#d)"><g clip-path="url(#e)"><path fill="#E89A7D" d="M 162.398438 449.492188 L -75.597656 572.636719 L -250.050781 235.476562 L -12.058594 112.332031 Z M 162.398438 449.492188"/></g></g></g><g clip-path="url(#f)"><g mask="url(#g)"><g><g clip-path="url(#h)" transform="translate(234)"><g clip-path="url(#i)"><g clip-path="url(#j)"><g clip-path="url(#k)"><path fill="#FAB164" d="M 825.378906 946.96875 L 0.332031 812.144531 L 191.332031 -356.671875 L 1016.378906 -221.847656 Z M 825.378906 946.96875"/></g></g></g></g></g></g></g><g clip-path="url(#l)"><g clip-path="url(#m)"><g clip-path="url(#n)"><path fill="#E89A7D" d="M 886.132812 156.851562 L 742.570312 -24.011719 L 998.796875 -227.390625 L 1142.359375 -46.527344 Z M 886.132812 156.851562"/></g></g></g><g clip-path="url(#o)"><g clip-path="url(#p)"><g clip-path="url(#q)"><path fill="#FAB164" d="M 1124.816406 325.367188 L 1294.164062 643.078125 L 844.070312 882.988281 L 674.726562 565.273438 Z M 1124.816406 325.367188"/></g></g></g><g clip-path="url(#r)"><g clip-path="url(#s)"><g clip-path="url(#t)"><path fill="#FAB164" d="M 429.191406 610.828125 L 371.734375 831.507812 L 59.101562 750.109375 L 116.558594 529.429688 Z M 429.191406 610.828125"/></g></g></g><g clip-path="url(#u)"><g clip-path="url(#v)"><path fill="#E89A7D" d="M 617 472.09375 L 674.25 472.09375 L 674.25 529.34375 L 617 529.34375 Z M 617 472.09375"/></g></g></svg>