<svg xmlns="http://www.w3.org/2000/svg" width="810" viewBox="0 0 810 810" height="810" version="1.0"><defs><clipPath id="a"><path d="M 66.019531 150.035156 L 251.269531 150.035156 L 251.269531 385.535156 L 66.019531 385.535156 Z M 66.019531 150.035156"/></clipPath><clipPath id="b"><path d="M 69.773438 492 L 112 492 L 112 553 L 69.773438 553 Z M 69.773438 492"/></clipPath><clipPath id="c"><path d="M 111 456.203125 L 154 456.203125 L 154 517 L 111 517 Z M 111 456.203125"/></clipPath><clipPath id="d"><path d="M 80 529 L 238 529 L 238 633.953125 L 80 633.953125 Z M 80 529"/></clipPath><clipPath id="e"><path d="M 205 492 L 247.523438 492 L 247.523438 553 L 205 553 Z M 205 492"/></clipPath><clipPath id="f"><path d="M 163 456.203125 L 206 456.203125 L 206 517 L 163 517 Z M 163 456.203125"/></clipPath></defs><path fill="#FFF" d="M-81 -81H891V891H-81z"/><path fill="#FFF" d="M-81 -81H891V891H-81z"/><path fill="#FFF" d="M-81 -81H891V891H-81z"/><path fill="#E89A7D" d="M 204.917969 181.734375 L 158.855469 175.597656 L 112.792969 181.734375 C 111.710938 184.109375 110.441406 186.378906 108.980469 188.542969 C 107.523438 190.707031 105.890625 192.734375 104.09375 194.625 C 102.292969 196.515625 100.347656 198.242188 98.257812 199.804688 C 96.167969 201.371094 93.964844 202.75 91.644531 203.945312 L 91.644531 273.789062 C 91.628906 275.832031 91.683594 277.875 91.8125 279.917969 C 91.941406 281.957031 92.140625 283.988281 92.410156 286.015625 C 92.683594 288.042969 93.023438 290.054688 93.4375 292.058594 C 93.851562 294.058594 94.332031 296.046875 94.886719 298.015625 C 95.4375 299.980469 96.058594 301.929688 96.75 303.851562 C 97.441406 305.777344 98.195312 307.675781 99.019531 309.546875 C 99.84375 311.417969 100.730469 313.257812 101.683594 315.066406 C 102.636719 316.875 103.652344 318.648438 104.730469 320.382812 C 105.808594 322.121094 106.949219 323.816406 108.144531 325.476562 C 109.34375 327.132812 110.597656 328.746094 111.910156 330.3125 C 113.222656 331.882812 114.585938 333.402344 116.003906 334.875 C 117.421875 336.347656 118.890625 337.769531 120.410156 339.140625 C 121.929688 340.507812 123.492188 341.824219 125.105469 343.082031 C 126.714844 344.339844 128.367188 345.542969 130.0625 346.683594 C 131.757812 347.828125 133.492188 348.910156 135.265625 349.929688 C 137.035156 350.953125 138.84375 351.910156 140.683594 352.800781 C 146.550781 355.539062 152.609375 357.765625 158.855469 359.488281 C 165.101562 357.765625 171.160156 355.539062 177.03125 352.804688 C 178.871094 351.910156 180.675781 350.953125 182.449219 349.929688 C 184.21875 348.910156 185.953125 347.828125 187.648438 346.683594 C 189.34375 345.542969 191 344.339844 192.609375 343.082031 C 194.21875 341.824219 195.785156 340.507812 197.304688 339.140625 C 198.820312 337.769531 200.289062 336.347656 201.707031 334.875 C 203.125 333.402344 204.492188 331.882812 205.800781 330.3125 C 207.113281 328.746094 208.367188 327.132812 209.566406 325.476562 C 210.761719 323.816406 211.902344 322.121094 212.980469 320.382812 C 214.058594 318.644531 215.074219 316.875 216.027344 315.066406 C 216.980469 313.257812 217.867188 311.417969 218.691406 309.546875 C 219.515625 307.675781 220.269531 305.777344 220.960938 303.851562 C 221.652344 301.925781 222.273438 299.980469 222.824219 298.011719 C 223.378906 296.046875 223.859375 294.058594 224.273438 292.058594 C 224.6875 290.054688 225.027344 288.042969 225.300781 286.015625 C 225.570312 283.988281 225.769531 281.957031 225.898438 279.917969 C 226.027344 277.875 226.082031 275.832031 226.066406 273.789062 L 226.066406 203.945312 C 223.746094 202.75 221.539062 201.371094 219.453125 199.804688 C 217.363281 198.242188 215.417969 196.515625 213.617188 194.625 C 211.816406 192.734375 210.1875 190.707031 208.726562 188.542969 C 207.269531 186.378906 206 184.109375 204.917969 181.734375 Z M 158.855469 318.171875 C 157.203125 318.171875 155.558594 318.089844 153.914062 317.929688 C 152.269531 317.765625 150.640625 317.523438 149.019531 317.203125 C 147.402344 316.882812 145.800781 316.480469 144.222656 316 C 142.640625 315.523438 141.089844 314.96875 139.566406 314.335938 C 138.039062 313.703125 136.546875 313 135.09375 312.222656 C 133.636719 311.445312 132.222656 310.597656 130.851562 309.679688 C 129.476562 308.761719 128.152344 307.78125 126.875 306.734375 C 125.601562 305.6875 124.378906 304.582031 123.210938 303.414062 C 122.042969 302.246094 120.9375 301.023438 119.890625 299.75 C 118.839844 298.472656 117.859375 297.148438 116.941406 295.777344 C 116.023438 294.40625 115.175781 292.992188 114.398438 291.535156 C 113.621094 290.082031 112.914062 288.589844 112.285156 287.066406 C 111.652344 285.542969 111.097656 283.992188 110.617188 282.410156 C 110.136719 280.832031 109.738281 279.234375 109.414062 277.613281 C 109.09375 275.996094 108.851562 274.367188 108.691406 272.722656 C 108.527344 271.082031 108.445312 269.4375 108.445312 267.785156 C 108.445312 266.136719 108.527344 264.488281 108.691406 262.847656 C 108.851562 261.203125 109.09375 259.574219 109.414062 257.957031 C 109.738281 256.335938 110.136719 254.738281 110.617188 253.160156 C 111.097656 251.578125 111.652344 250.027344 112.285156 248.503906 C 112.914062 246.980469 113.621094 245.488281 114.398438 244.035156 C 115.175781 242.578125 116.023438 241.164062 116.941406 239.792969 C 117.859375 238.421875 118.839844 237.097656 119.890625 235.820312 C 120.9375 234.546875 122.042969 233.324219 123.210938 232.15625 C 124.378906 230.992188 125.601562 229.882812 126.875 228.835938 C 128.152344 227.789062 129.476562 226.808594 130.851562 225.890625 C 132.222656 224.972656 133.636719 224.128906 135.09375 223.347656 C 136.546875 222.570312 138.039062 221.867188 139.566406 221.234375 C 141.089844 220.605469 142.640625 220.046875 144.222656 219.570312 C 145.800781 219.089844 147.402344 218.691406 149.019531 218.367188 C 150.640625 218.046875 152.269531 217.804688 153.914062 217.640625 C 155.558594 217.480469 157.203125 217.398438 158.855469 217.398438 C 160.507812 217.398438 162.152344 217.480469 163.796875 217.640625 C 165.4375 217.804688 167.070312 218.046875 168.6875 218.367188 C 170.308594 218.691406 171.90625 219.089844 173.488281 219.570312 C 175.066406 220.046875 176.621094 220.605469 178.144531 221.234375 C 179.671875 221.867188 181.160156 222.570312 182.617188 223.347656 C 184.074219 224.128906 185.488281 224.972656 186.859375 225.890625 C 188.234375 226.808594 189.558594 227.789062 190.832031 228.835938 C 192.109375 229.882812 193.332031 230.992188 194.5 232.15625 C 195.667969 233.324219 196.773438 234.546875 197.820312 235.820312 C 198.867188 237.097656 199.851562 238.421875 200.769531 239.792969 C 201.683594 241.164062 202.53125 242.578125 203.3125 244.035156 C 204.089844 245.488281 204.792969 246.980469 205.425781 248.503906 C 206.058594 250.027344 206.613281 251.578125 207.09375 253.160156 C 207.570312 254.738281 207.972656 256.335938 208.292969 257.957031 C 208.617188 259.574219 208.859375 261.203125 209.019531 262.847656 C 209.183594 264.488281 209.261719 266.136719 209.261719 267.785156 C 209.261719 269.433594 209.179688 271.082031 209.015625 272.722656 C 208.851562 274.363281 208.609375 275.992188 208.285156 277.609375 C 207.960938 279.230469 207.558594 280.828125 207.082031 282.40625 C 206.601562 283.984375 206.042969 285.535156 205.410156 287.058594 C 204.777344 288.582031 204.074219 290.070312 203.292969 291.527344 C 202.515625 292.980469 201.667969 294.394531 200.75 295.765625 C 199.832031 297.136719 198.851562 298.460938 197.804688 299.734375 C 196.757812 301.011719 195.648438 302.230469 194.484375 303.398438 C 193.316406 304.5625 192.09375 305.671875 190.820312 306.71875 C 189.542969 307.765625 188.21875 308.746094 186.847656 309.664062 C 185.476562 310.578125 184.0625 311.425781 182.605469 312.207031 C 181.152344 312.984375 179.660156 313.6875 178.136719 314.320312 C 176.613281 314.953125 175.0625 315.507812 173.480469 315.988281 C 171.902344 316.46875 170.304688 316.871094 168.683594 317.195312 C 167.066406 317.515625 165.4375 317.761719 163.792969 317.921875 C 162.152344 318.085938 160.503906 318.167969 158.855469 318.171875 Z M 158.855469 318.171875"/><path fill="#E89A7D" d="M 158.855469 225.796875 C 157.480469 225.796875 156.105469 225.863281 154.738281 226 C 153.367188 226.132812 152.007812 226.335938 150.660156 226.605469 C 149.308594 226.871094 147.976562 227.207031 146.660156 227.605469 C 145.34375 228.003906 144.050781 228.46875 142.78125 228.992188 C 141.507812 229.519531 140.265625 230.105469 139.054688 230.753906 C 137.839844 231.402344 136.660156 232.109375 135.515625 232.875 C 134.375 233.636719 133.269531 234.457031 132.207031 235.328125 C 131.144531 236.199219 130.125 237.121094 129.152344 238.09375 C 128.179688 239.066406 127.257812 240.085938 126.382812 241.148438 C 125.511719 242.210938 124.691406 243.316406 123.925781 244.457031 C 123.164062 245.601562 122.457031 246.78125 121.808594 247.992188 C 121.160156 249.207031 120.570312 250.445312 120.046875 251.71875 C 119.519531 252.988281 119.054688 254.28125 118.65625 255.597656 C 118.257812 256.914062 117.921875 258.246094 117.65625 259.59375 C 117.386719 260.941406 117.183594 262.300781 117.050781 263.667969 C 116.914062 265.039062 116.847656 266.410156 116.847656 267.785156 C 116.847656 269.160156 116.914062 270.53125 117.050781 271.902344 C 117.183594 273.269531 117.386719 274.628906 117.65625 275.976562 C 117.921875 277.324219 118.257812 278.65625 118.65625 279.972656 C 119.054688 281.289062 119.519531 282.582031 120.046875 283.851562 C 120.570312 285.125 121.160156 286.367188 121.808594 287.578125 C 122.457031 288.792969 123.164062 289.96875 123.925781 291.113281 C 124.691406 292.257812 125.511719 293.359375 126.382812 294.421875 C 127.257812 295.484375 128.179688 296.503906 129.152344 297.476562 C 130.125 298.449219 131.144531 299.371094 132.207031 300.242188 C 133.269531 301.113281 134.375 301.933594 135.515625 302.695312 C 136.660156 303.460938 137.839844 304.167969 139.054688 304.816406 C 140.265625 305.464844 141.507812 306.050781 142.78125 306.578125 C 144.050781 307.101562 145.34375 307.566406 146.660156 307.964844 C 147.976562 308.363281 149.308594 308.699219 150.660156 308.964844 C 152.007812 309.234375 153.367188 309.4375 154.738281 309.570312 C 156.105469 309.707031 157.480469 309.773438 158.855469 309.773438 C 160.230469 309.773438 161.601562 309.707031 162.972656 309.570312 C 164.339844 309.4375 165.699219 309.234375 167.050781 308.964844 C 168.398438 308.699219 169.730469 308.363281 171.050781 307.964844 C 172.367188 307.566406 173.660156 307.101562 174.929688 306.578125 C 176.203125 306.050781 177.445312 305.464844 178.65625 304.816406 C 179.871094 304.167969 181.046875 303.460938 182.191406 302.695312 C 183.335938 301.933594 184.441406 301.113281 185.503906 300.242188 C 186.566406 299.371094 187.585938 298.449219 188.558594 297.476562 C 189.53125 296.503906 190.453125 295.484375 191.328125 294.421875 C 192.199219 293.359375 193.019531 292.257812 193.78125 291.113281 C 194.546875 289.96875 195.253906 288.792969 195.902344 287.578125 C 196.550781 286.367188 197.136719 285.125 197.664062 283.851562 C 198.191406 282.582031 198.652344 281.289062 199.054688 279.972656 C 199.453125 278.65625 199.785156 277.324219 200.054688 275.976562 C 200.324219 274.628906 200.523438 273.269531 200.660156 271.902344 C 200.792969 270.53125 200.863281 269.160156 200.863281 267.785156 C 200.859375 266.410156 200.792969 265.039062 200.65625 263.671875 C 200.519531 262.304688 200.316406 260.945312 200.046875 259.597656 C 199.777344 258.25 199.441406 256.917969 199.042969 255.601562 C 198.640625 254.289062 198.179688 252.996094 197.652344 251.726562 C 197.125 250.457031 196.535156 249.214844 195.886719 248.003906 C 195.238281 246.789062 194.53125 245.613281 193.765625 244.46875 C 193.003906 243.328125 192.183594 242.222656 191.3125 241.160156 C 190.4375 240.097656 189.515625 239.082031 188.542969 238.109375 C 187.570312 237.136719 186.554688 236.214844 185.492188 235.34375 C 184.425781 234.472656 183.324219 233.652344 182.179688 232.890625 C 181.039062 232.125 179.859375 231.417969 178.648438 230.769531 C 177.433594 230.121094 176.191406 229.535156 174.921875 229.007812 C 173.652344 228.480469 172.359375 228.015625 171.042969 227.617188 C 169.726562 227.214844 168.394531 226.882812 167.046875 226.613281 C 165.699219 226.34375 164.339844 226.140625 162.972656 226.003906 C 161.601562 225.867188 160.230469 225.800781 158.855469 225.796875 Z M 187.027344 253.957031 L 153.421875 287.550781 C 153.230469 287.742188 153.015625 287.917969 152.789062 288.070312 C 152.558594 288.226562 152.316406 288.355469 152.0625 288.460938 C 151.804688 288.566406 151.542969 288.644531 151.273438 288.699219 C 151.003906 288.753906 150.730469 288.78125 150.453125 288.78125 C 150.179688 288.78125 149.90625 288.753906 149.632812 288.699219 C 149.363281 288.644531 149.101562 288.566406 148.847656 288.460938 C 148.589844 288.355469 148.347656 288.226562 148.121094 288.070312 C 147.890625 287.917969 147.679688 287.742188 147.484375 287.550781 L 130.679688 270.753906 C 130.492188 270.558594 130.324219 270.34375 130.175781 270.117188 C 130.027344 269.886719 129.902344 269.644531 129.800781 269.394531 C 129.699219 269.140625 129.625 268.878906 129.574219 268.609375 C 129.523438 268.34375 129.5 268.074219 129.503906 267.800781 C 129.503906 267.527344 129.53125 267.257812 129.589844 266.992188 C 129.644531 266.722656 129.722656 266.464844 129.828125 266.214844 C 129.933594 265.960938 130.0625 265.722656 130.214844 265.496094 C 130.367188 265.269531 130.539062 265.0625 130.730469 264.867188 C 130.925781 264.675781 131.136719 264.503906 131.359375 264.351562 C 131.585938 264.199219 131.828125 264.070312 132.078125 263.964844 C 132.328125 263.859375 132.589844 263.777344 132.855469 263.722656 C 133.125 263.667969 133.394531 263.640625 133.667969 263.636719 C 133.9375 263.636719 134.210938 263.660156 134.476562 263.710938 C 134.746094 263.761719 135.007812 263.835938 135.257812 263.9375 C 135.511719 264.039062 135.753906 264.164062 135.984375 264.3125 C 136.210938 264.457031 136.425781 264.628906 136.621094 264.816406 L 150.453125 278.644531 L 181.089844 248.023438 C 181.285156 247.832031 181.496094 247.664062 181.726562 247.515625 C 181.957031 247.367188 182.199219 247.242188 182.449219 247.140625 C 182.703125 247.039062 182.964844 246.964844 183.234375 246.914062 C 183.5 246.863281 183.769531 246.839844 184.042969 246.84375 C 184.316406 246.84375 184.585938 246.875 184.855469 246.929688 C 185.121094 246.984375 185.378906 247.0625 185.632812 247.167969 C 185.882812 247.273438 186.121094 247.402344 186.347656 247.554688 C 186.574219 247.707031 186.785156 247.878906 186.976562 248.074219 C 187.171875 248.265625 187.34375 248.476562 187.496094 248.703125 C 187.648438 248.929688 187.777344 249.167969 187.882812 249.417969 C 187.988281 249.667969 188.066406 249.929688 188.121094 250.195312 C 188.175781 250.460938 188.207031 250.734375 188.207031 251.003906 C 188.210938 251.277344 188.1875 251.546875 188.136719 251.816406 C 188.085938 252.085938 188.011719 252.34375 187.910156 252.597656 C 187.808594 252.851562 187.683594 253.09375 187.535156 253.320312 C 187.386719 253.550781 187.21875 253.761719 187.027344 253.957031 Z M 187.027344 253.957031"/><g clip-path="url(#a)"><path fill="#E89A7D" d="M 247.070312 183.808594 C 246.382812 183.808594 245.695312 183.773438 245.011719 183.707031 C 244.328125 183.636719 243.648438 183.535156 242.972656 183.402344 C 242.300781 183.265625 241.632812 183.101562 240.976562 182.898438 C 240.316406 182.699219 239.671875 182.46875 239.035156 182.203125 C 238.398438 181.941406 237.78125 181.648438 237.171875 181.324219 C 236.566406 181 235.976562 180.644531 235.40625 180.261719 C 234.835938 179.882812 234.28125 179.472656 233.75 179.035156 C 233.21875 178.601562 232.710938 178.140625 232.226562 177.652344 C 231.738281 177.167969 231.277344 176.660156 230.839844 176.128906 C 230.40625 175.597656 229.996094 175.042969 229.613281 174.472656 C 229.230469 173.902344 228.878906 173.3125 228.554688 172.707031 C 228.230469 172.101562 227.933594 171.480469 227.671875 170.84375 C 227.40625 170.210938 227.175781 169.5625 226.976562 168.90625 C 226.777344 168.25 226.609375 167.582031 226.472656 166.910156 C 226.339844 166.234375 226.238281 165.554688 226.167969 164.871094 C 226.101562 164.1875 226.066406 163.503906 226.066406 162.816406 C 226.066406 162.304688 225.976562 161.8125 225.796875 161.335938 C 225.617188 160.863281 225.359375 160.433594 225.023438 160.050781 C 224.691406 159.667969 224.296875 159.355469 223.847656 159.113281 C 223.398438 158.875 222.921875 158.71875 222.417969 158.652344 L 159.410156 150.257812 C 159.039062 150.207031 158.671875 150.207031 158.300781 150.257812 L 95.292969 158.652344 C 94.785156 158.71875 94.308594 158.875 93.859375 159.113281 C 93.414062 159.355469 93.019531 159.667969 92.683594 160.050781 C 92.347656 160.433594 92.09375 160.863281 91.914062 161.335938 C 91.734375 161.8125 91.644531 162.304688 91.644531 162.816406 C 91.644531 163.503906 91.609375 164.1875 91.539062 164.871094 C 91.472656 165.554688 91.371094 166.234375 91.238281 166.910156 C 91.101562 167.582031 90.933594 168.25 90.734375 168.90625 C 90.535156 169.5625 90.300781 170.210938 90.039062 170.84375 C 89.773438 171.480469 89.480469 172.101562 89.15625 172.707031 C 88.832031 173.3125 88.480469 173.902344 88.097656 174.472656 C 87.714844 175.042969 87.304688 175.597656 86.867188 176.128906 C 86.433594 176.660156 85.972656 177.167969 85.484375 177.652344 C 85 178.140625 84.488281 178.601562 83.957031 179.035156 C 83.425781 179.472656 82.875 179.882812 82.304688 180.261719 C 81.730469 180.644531 81.144531 181 80.535156 181.324219 C 79.929688 181.648438 79.308594 181.941406 78.675781 182.203125 C 78.039062 182.46875 77.394531 182.699219 76.734375 182.898438 C 76.078125 183.101562 75.410156 183.265625 74.738281 183.402344 C 74.0625 183.535156 73.382812 183.636719 72.699219 183.707031 C 72.015625 183.773438 71.328125 183.808594 70.640625 183.808594 C 70.363281 183.808594 70.089844 183.835938 69.820312 183.890625 C 69.550781 183.945312 69.289062 184.023438 69.03125 184.128906 C 68.777344 184.234375 68.535156 184.363281 68.308594 184.515625 C 68.078125 184.671875 67.867188 184.84375 67.671875 185.039062 C 67.476562 185.234375 67.300781 185.445312 67.148438 185.675781 C 66.996094 185.90625 66.867188 186.148438 66.761719 186.402344 C 66.652344 186.65625 66.574219 186.917969 66.519531 187.1875 C 66.46875 187.460938 66.441406 187.734375 66.441406 188.007812 L 66.441406 273.789062 C 66.425781 276.429688 66.503906 279.0625 66.675781 281.695312 C 66.84375 284.328125 67.109375 286.953125 67.464844 289.566406 C 67.820312 292.179688 68.269531 294.777344 68.808594 297.359375 C 69.347656 299.945312 69.976562 302.503906 70.695312 305.042969 C 71.414062 307.582031 72.222656 310.089844 73.117188 312.570312 C 74.015625 315.054688 74.996094 317.5 76.066406 319.914062 C 77.132812 322.324219 78.285156 324.695312 79.523438 327.027344 C 80.757812 329.359375 82.074219 331.644531 83.46875 333.882812 C 84.867188 336.121094 86.339844 338.308594 87.890625 340.441406 C 89.441406 342.578125 91.066406 344.65625 92.761719 346.675781 C 94.460938 348.695312 96.226562 350.652344 98.0625 352.550781 C 99.898438 354.445312 101.796875 356.273438 103.761719 358.039062 C 105.722656 359.800781 107.75 361.492188 109.832031 363.113281 C 111.914062 364.730469 114.050781 366.277344 116.242188 367.746094 C 118.4375 369.214844 120.675781 370.605469 122.96875 371.917969 C 125.257812 373.230469 127.589844 374.457031 129.96875 375.605469 C 138.941406 379.789062 148.25 383 157.890625 385.242188 C 158.535156 385.390625 159.175781 385.390625 159.820312 385.242188 C 169.460938 383 178.773438 379.785156 187.746094 375.605469 C 190.125 374.457031 192.457031 373.230469 194.746094 371.917969 C 197.035156 370.605469 199.277344 369.214844 201.46875 367.746094 C 203.660156 366.277344 205.796875 364.730469 207.882812 363.109375 C 209.964844 361.492188 211.988281 359.800781 213.953125 358.035156 C 215.914062 356.273438 217.816406 354.445312 219.648438 352.550781 C 221.484375 350.652344 223.25 348.695312 224.949219 346.675781 C 226.644531 344.652344 228.269531 342.574219 229.820312 340.441406 C 231.371094 338.304688 232.84375 336.121094 234.242188 333.882812 C 235.636719 331.644531 236.953125 329.359375 238.1875 327.027344 C 239.425781 324.695312 240.578125 322.324219 241.644531 319.910156 C 242.714844 317.5 243.695312 315.050781 244.59375 312.570312 C 245.488281 310.089844 246.296875 307.578125 247.015625 305.042969 C 247.734375 302.503906 248.363281 299.941406 248.902344 297.359375 C 249.441406 294.777344 249.890625 292.179688 250.246094 289.566406 C 250.601562 286.953125 250.863281 284.328125 251.035156 281.695312 C 251.207031 279.0625 251.285156 276.425781 251.269531 273.789062 L 251.269531 188.007812 C 251.269531 187.734375 251.242188 187.460938 251.1875 187.1875 C 251.136719 186.917969 251.054688 186.65625 250.949219 186.402344 C 250.84375 186.148438 250.714844 185.90625 250.5625 185.675781 C 250.410156 185.445312 250.234375 185.234375 250.039062 185.039062 C 249.84375 184.84375 249.632812 184.671875 249.402344 184.515625 C 249.171875 184.363281 248.929688 184.234375 248.675781 184.128906 C 248.421875 184.023438 248.160156 183.945312 247.890625 183.890625 C 247.617188 183.835938 247.34375 183.808594 247.070312 183.808594 Z M 234.46875 273.789062 C 234.484375 276.03125 234.417969 278.273438 234.277344 280.507812 C 234.132812 282.746094 233.914062 284.976562 233.613281 287.199219 C 233.316406 289.421875 232.9375 291.628906 232.484375 293.824219 C 232.027344 296.019531 231.496094 298.199219 230.886719 300.355469 C 230.28125 302.515625 229.597656 304.648438 228.835938 306.757812 C 228.078125 308.867188 227.246094 310.949219 226.34375 313 C 225.4375 315.050781 224.460938 317.070312 223.414062 319.050781 C 222.367188 321.035156 221.25 322.976562 220.066406 324.882812 C 218.882812 326.785156 217.632812 328.648438 216.316406 330.464844 C 215 332.28125 213.625 334.046875 212.183594 335.765625 C 210.746094 337.484375 209.246094 339.152344 207.6875 340.765625 C 206.132812 342.378906 204.519531 343.9375 202.851562 345.4375 C 201.1875 346.9375 199.46875 348.378906 197.699219 349.757812 C 195.933594 351.136719 194.117188 352.453125 192.257812 353.707031 C 190.394531 354.957031 188.492188 356.140625 186.550781 357.261719 C 184.605469 358.378906 182.625 359.425781 180.605469 360.40625 C 173.9375 363.507812 167.050781 366.003906 159.941406 367.890625 C 159.21875 368.085938 158.492188 368.085938 157.769531 367.890625 C 150.660156 366.003906 143.773438 363.507812 137.109375 360.40625 C 135.089844 359.425781 133.109375 358.378906 131.164062 357.261719 C 129.21875 356.144531 127.316406 354.957031 125.457031 353.707031 C 123.59375 352.453125 121.78125 351.136719 120.011719 349.757812 C 118.242188 348.378906 116.527344 346.941406 114.859375 345.4375 C 113.191406 343.9375 111.578125 342.382812 110.023438 340.769531 C 108.464844 339.152344 106.96875 337.488281 105.527344 335.769531 C 104.085938 334.046875 102.710938 332.28125 101.394531 330.464844 C 100.078125 328.648438 98.828125 326.789062 97.644531 324.882812 C 96.460938 322.980469 95.34375 321.035156 94.296875 319.054688 C 93.25 317.070312 92.273438 315.054688 91.367188 313 C 90.464844 310.949219 89.632812 308.867188 88.871094 306.757812 C 88.113281 304.648438 87.429688 302.515625 86.820312 300.355469 C 86.214844 298.199219 85.683594 296.019531 85.226562 293.824219 C 84.773438 291.628906 84.394531 289.421875 84.09375 287.199219 C 83.796875 284.976562 83.574219 282.746094 83.433594 280.507812 C 83.289062 278.273438 83.226562 276.03125 83.242188 273.789062 L 83.242188 201.296875 C 83.242188 200.890625 83.300781 200.488281 83.417969 200.097656 C 83.535156 199.707031 83.703125 199.339844 83.925781 199 C 84.148438 198.660156 84.417969 198.355469 84.730469 198.09375 C 85.039062 197.828125 85.382812 197.613281 85.757812 197.453125 C 88.046875 196.441406 90.21875 195.21875 92.265625 193.78125 C 94.316406 192.347656 96.207031 190.722656 97.9375 188.917969 C 99.667969 187.109375 101.207031 185.148438 102.550781 183.039062 C 103.894531 180.929688 105.023438 178.710938 105.933594 176.378906 C 106.207031 175.664062 106.648438 175.070312 107.25 174.59375 C 107.855469 174.121094 108.535156 173.832031 109.296875 173.730469 L 158.300781 167.199219 C 158.671875 167.148438 159.039062 167.148438 159.410156 167.199219 L 208.414062 173.730469 C 209.175781 173.832031 209.855469 174.121094 210.460938 174.59375 C 211.0625 175.070312 211.5 175.664062 211.777344 176.382812 C 212.6875 178.710938 213.8125 180.933594 215.160156 183.042969 C 216.503906 185.152344 218.042969 187.109375 219.773438 188.917969 C 221.503906 190.726562 223.394531 192.347656 225.445312 193.785156 C 227.492188 195.21875 229.664062 196.441406 231.953125 197.453125 C 232.328125 197.617188 232.667969 197.832031 232.980469 198.09375 C 233.292969 198.355469 233.558594 198.660156 233.78125 199 C 234.003906 199.34375 234.175781 199.707031 234.292969 200.097656 C 234.410156 200.488281 234.46875 200.890625 234.46875 201.296875 Z M 234.46875 273.789062"/></g><g fill="#E89A7D"><g><g><path d="M 6.390625 0 C 4.890625 0 4.140625 -0.738281 4.140625 -2.21875 C 4.140625 -3.632812 4.890625 -4.34375 6.390625 -4.34375 L 10.984375 -4.34375 L 10.984375 -22.921875 L 7.5 -20.828125 C 6.84375 -20.441406 6.25 -20.34375 5.71875 -20.53125 C 5.1875 -20.726562 4.78125 -21.070312 4.5 -21.5625 C 4.226562 -22.050781 4.144531 -22.585938 4.25 -23.171875 C 4.363281 -23.765625 4.75 -24.253906 5.40625 -24.640625 L 11.0625 -28.046875 C 11.613281 -28.367188 12.160156 -28.644531 12.703125 -28.875 C 13.253906 -29.113281 13.765625 -29.234375 14.234375 -29.234375 C 14.804688 -29.234375 15.28125 -29.078125 15.65625 -28.765625 C 16.039062 -28.453125 16.234375 -27.9375 16.234375 -27.21875 L 16.234375 -4.34375 L 20.421875 -4.34375 C 21.921875 -4.34375 22.671875 -3.632812 22.671875 -2.21875 C 22.671875 -0.738281 21.921875 0 20.421875 0 Z M 6.390625 0" transform="translate(270.261 281.342)"/></g></g></g><g fill="#E89A7D"><g><g><path d="M 12.296875 0.40625 C 8.878906 0.40625 6.269531 -0.882812 4.46875 -3.46875 C 2.664062 -6.050781 1.765625 -9.734375 1.765625 -14.515625 C 1.765625 -19.347656 2.664062 -23.019531 4.46875 -25.53125 C 6.269531 -28.050781 8.878906 -29.3125 12.296875 -29.3125 C 15.742188 -29.3125 18.363281 -28.050781 20.15625 -25.53125 C 21.945312 -23.019531 22.84375 -19.363281 22.84375 -14.5625 C 22.84375 -9.75 21.9375 -6.050781 20.125 -3.46875 C 18.320312 -0.882812 15.710938 0.40625 12.296875 0.40625 Z M 12.296875 -3.890625 C 14.160156 -3.890625 15.535156 -4.75 16.421875 -6.46875 C 17.304688 -8.195312 17.75 -10.894531 17.75 -14.5625 C 17.75 -18.21875 17.304688 -20.875 16.421875 -22.53125 C 15.535156 -24.1875 14.160156 -25.015625 12.296875 -25.015625 C 10.460938 -25.015625 9.09375 -24.1875 8.1875 -22.53125 C 7.289062 -20.875 6.84375 -18.21875 6.84375 -14.5625 C 6.84375 -10.894531 7.289062 -8.195312 8.1875 -6.46875 C 9.09375 -4.75 10.460938 -3.890625 12.296875 -3.890625 Z M 12.296875 -3.890625" transform="translate(294.857 281.342)"/></g></g></g><g fill="#E89A7D"><g><g><path d="M 12.296875 0.40625 C 8.878906 0.40625 6.269531 -0.882812 4.46875 -3.46875 C 2.664062 -6.050781 1.765625 -9.734375 1.765625 -14.515625 C 1.765625 -19.347656 2.664062 -23.019531 4.46875 -25.53125 C 6.269531 -28.050781 8.878906 -29.3125 12.296875 -29.3125 C 15.742188 -29.3125 18.363281 -28.050781 20.15625 -25.53125 C 21.945312 -23.019531 22.84375 -19.363281 22.84375 -14.5625 C 22.84375 -9.75 21.9375 -6.050781 20.125 -3.46875 C 18.320312 -0.882812 15.710938 0.40625 12.296875 0.40625 Z M 12.296875 -3.890625 C 14.160156 -3.890625 15.535156 -4.75 16.421875 -6.46875 C 17.304688 -8.195312 17.75 -10.894531 17.75 -14.5625 C 17.75 -18.21875 17.304688 -20.875 16.421875 -22.53125 C 15.535156 -24.1875 14.160156 -25.015625 12.296875 -25.015625 C 10.460938 -25.015625 9.09375 -24.1875 8.1875 -22.53125 C 7.289062 -20.875 6.84375 -18.21875 6.84375 -14.5625 C 6.84375 -10.894531 7.289062 -8.195312 8.1875 -6.46875 C 9.09375 -4.75 10.460938 -3.890625 12.296875 -3.890625 Z M 12.296875 -3.890625" transform="translate(319.452 281.342)"/></g></g></g><g fill="#E89A7D"><g><g><path d="M 13.484375 -0.328125 C 13.128906 0.273438 12.695312 0.628906 12.1875 0.734375 C 11.6875 0.847656 11.210938 0.773438 10.765625 0.515625 C 10.316406 0.253906 10.007812 -0.125 9.84375 -0.625 C 9.675781 -1.132812 9.769531 -1.691406 10.125 -2.296875 L 25.25 -28.53125 C 25.601562 -29.164062 26.035156 -29.53125 26.546875 -29.625 C 27.054688 -29.71875 27.53125 -29.632812 27.96875 -29.375 C 28.40625 -29.113281 28.703125 -28.738281 28.859375 -28.25 C 29.023438 -27.757812 28.945312 -27.210938 28.625 -26.609375 Z M 9.109375 -11.640625 C 6.804688 -11.640625 5.007812 -12.429688 3.71875 -14.015625 C 2.4375 -15.609375 1.796875 -17.769531 1.796875 -20.5 C 1.796875 -23.226562 2.4375 -25.378906 3.71875 -26.953125 C 5.007812 -28.523438 6.804688 -29.3125 9.109375 -29.3125 C 11.398438 -29.3125 13.1875 -28.523438 14.46875 -26.953125 C 15.757812 -25.378906 16.40625 -23.226562 16.40625 -20.5 C 16.40625 -17.769531 15.757812 -15.609375 14.46875 -14.015625 C 13.1875 -12.429688 11.398438 -11.640625 9.109375 -11.640625 Z M 9.109375 -15.09375 C 10.085938 -15.09375 10.847656 -15.535156 11.390625 -16.421875 C 11.941406 -17.304688 12.21875 -18.664062 12.21875 -20.5 C 12.21875 -22.332031 11.941406 -23.6875 11.390625 -24.5625 C 10.847656 -25.4375 10.085938 -25.875 9.109375 -25.875 C 8.117188 -25.875 7.347656 -25.441406 6.796875 -24.578125 C 6.253906 -23.710938 5.984375 -22.351562 5.984375 -20.5 C 5.984375 -18.644531 6.253906 -17.28125 6.796875 -16.40625 C 7.347656 -15.53125 8.117188 -15.09375 9.109375 -15.09375 Z M 29.6875 0.40625 C 27.382812 0.40625 25.59375 -0.382812 24.3125 -1.96875 C 23.03125 -3.550781 22.390625 -5.710938 22.390625 -8.453125 C 22.390625 -11.179688 23.03125 -13.332031 24.3125 -14.90625 C 25.59375 -16.476562 27.382812 -17.265625 29.6875 -17.265625 C 31.976562 -17.265625 33.765625 -16.476562 35.046875 -14.90625 C 36.335938 -13.332031 36.984375 -11.179688 36.984375 -8.453125 C 36.984375 -5.710938 36.335938 -3.550781 35.046875 -1.96875 C 33.765625 -0.382812 31.976562 0.40625 29.6875 0.40625 Z M 29.6875 -3.03125 C 30.664062 -3.03125 31.425781 -3.472656 31.96875 -4.359375 C 32.519531 -5.253906 32.796875 -6.617188 32.796875 -8.453125 C 32.796875 -10.273438 32.519531 -11.625 31.96875 -12.5 C 31.425781 -13.375 30.664062 -13.8125 29.6875 -13.8125 C 28.695312 -13.8125 27.925781 -13.378906 27.375 -12.515625 C 26.832031 -11.660156 26.5625 -10.304688 26.5625 -8.453125 C 26.5625 -6.585938 26.832031 -5.21875 27.375 -4.34375 C 27.925781 -3.46875 28.695312 -3.03125 29.6875 -3.03125 Z M 29.6875 -3.03125" transform="translate(344.047 281.342)"/></g></g></g><g fill="#E89A7D"><g><g><path d="M 13.125 0.40625 C 11.289062 0.40625 9.503906 0.203125 7.765625 -0.203125 C 6.035156 -0.609375 4.523438 -1.222656 3.234375 -2.046875 C 2.609375 -2.460938 2.226562 -2.96875 2.09375 -3.5625 C 1.957031 -4.164062 2.003906 -4.734375 2.234375 -5.265625 C 2.460938 -5.796875 2.828125 -6.164062 3.328125 -6.375 C 3.835938 -6.582031 4.421875 -6.476562 5.078125 -6.0625 C 6.285156 -5.351562 7.554688 -4.832031 8.890625 -4.5 C 10.234375 -4.175781 11.644531 -4.015625 13.125 -4.015625 C 15.28125 -4.015625 16.847656 -4.375 17.828125 -5.09375 C 18.816406 -5.820312 19.3125 -6.757812 19.3125 -7.90625 C 19.3125 -8.863281 18.960938 -9.613281 18.265625 -10.15625 C 17.566406 -10.707031 16.367188 -11.160156 14.671875 -11.515625 L 10.171875 -12.46875 C 5.023438 -13.5625 2.453125 -16.195312 2.453125 -20.375 C 2.453125 -22.175781 2.929688 -23.742188 3.890625 -25.078125 C 4.847656 -26.421875 6.171875 -27.460938 7.859375 -28.203125 C 9.554688 -28.941406 11.515625 -29.3125 13.734375 -29.3125 C 15.367188 -29.3125 16.925781 -29.101562 18.40625 -28.6875 C 19.882812 -28.28125 21.210938 -27.679688 22.390625 -26.890625 C 22.929688 -26.515625 23.253906 -26.046875 23.359375 -25.484375 C 23.472656 -24.921875 23.40625 -24.398438 23.15625 -23.921875 C 22.914062 -23.441406 22.53125 -23.113281 22 -22.9375 C 21.46875 -22.757812 20.84375 -22.875 20.125 -23.28125 C 19.113281 -23.863281 18.085938 -24.273438 17.046875 -24.515625 C 16.015625 -24.765625 14.894531 -24.890625 13.6875 -24.890625 C 11.800781 -24.890625 10.328125 -24.492188 9.265625 -23.703125 C 8.203125 -22.910156 7.671875 -21.867188 7.671875 -20.578125 C 7.671875 -19.597656 8 -18.8125 8.65625 -18.21875 C 9.3125 -17.632812 10.429688 -17.175781 12.015625 -16.84375 L 16.484375 -15.90625 C 19.191406 -15.332031 21.207031 -14.429688 22.53125 -13.203125 C 23.851562 -11.972656 24.515625 -10.332031 24.515625 -8.28125 C 24.515625 -6.5625 24.050781 -5.046875 23.125 -3.734375 C 22.195312 -2.421875 20.878906 -1.398438 19.171875 -0.671875 C 17.460938 0.046875 15.445312 0.40625 13.125 0.40625 Z M 13.125 0.40625" transform="translate(393.894 281.342)"/></g></g></g><g fill="#E89A7D"><g><g><path d="M 3.4375 0.328125 C 2.488281 0.328125 1.804688 0 1.390625 -0.65625 C 0.984375 -1.3125 1 -2.101562 1.4375 -3.03125 L 12.265625 -27.015625 C 12.617188 -27.804688 13.046875 -28.375 13.546875 -28.71875 C 14.054688 -29.0625 14.640625 -29.234375 15.296875 -29.234375 C 15.921875 -29.234375 16.484375 -29.0625 16.984375 -28.71875 C 17.492188 -28.375 17.925781 -27.804688 18.28125 -27.015625 L 29.15625 -3.03125 C 29.59375 -2.070312 29.617188 -1.269531 29.234375 -0.625 C 28.847656 0.0078125 28.191406 0.328125 27.265625 0.328125 C 26.492188 0.328125 25.894531 0.144531 25.46875 -0.21875 C 25.050781 -0.59375 24.679688 -1.160156 24.359375 -1.921875 L 22.296875 -6.6875 L 8.203125 -6.6875 L 6.1875 -1.921875 C 5.832031 -1.128906 5.460938 -0.554688 5.078125 -0.203125 C 4.703125 0.148438 4.15625 0.328125 3.4375 0.328125 Z M 15.21875 -23.203125 L 10 -10.859375 L 20.5 -10.859375 L 15.296875 -23.203125 Z M 15.21875 -23.203125" transform="translate(419.76 281.342)"/></g></g></g><g fill="#E89A7D"><g><g><path d="M 5.859375 0.328125 C 4.054688 0.328125 3.15625 -0.597656 3.15625 -2.453125 L 3.15625 -26.109375 C 3.15625 -27.972656 4.082031 -28.90625 5.9375 -28.90625 L 20.25 -28.90625 C 21.675781 -28.90625 22.390625 -28.222656 22.390625 -26.859375 C 22.390625 -25.429688 21.675781 -24.71875 20.25 -24.71875 L 8.40625 -24.71875 L 8.40625 -16.5625 L 19.390625 -16.5625 C 20.816406 -16.5625 21.53125 -15.878906 21.53125 -14.515625 C 21.53125 -13.085938 20.816406 -12.375 19.390625 -12.375 L 8.40625 -12.375 L 8.40625 -2.453125 C 8.40625 -0.597656 7.554688 0.328125 5.859375 0.328125 Z M 5.859375 0.328125" transform="translate(450.258 281.342)"/></g></g></g><g fill="#E89A7D"><g><g><path d="M 5.9375 0 C 4.082031 0 3.15625 -0.925781 3.15625 -2.78125 L 3.15625 -26.109375 C 3.15625 -27.972656 4.082031 -28.90625 5.9375 -28.90625 L 20.578125 -28.90625 C 22.003906 -28.90625 22.71875 -28.222656 22.71875 -26.859375 C 22.71875 -25.429688 22.003906 -24.71875 20.578125 -24.71875 L 8.203125 -24.71875 L 8.203125 -16.765625 L 19.6875 -16.765625 C 21.101562 -16.765625 21.8125 -16.066406 21.8125 -14.671875 C 21.8125 -13.285156 21.101562 -12.59375 19.6875 -12.59375 L 8.203125 -12.59375 L 8.203125 -4.1875 L 20.578125 -4.1875 C 22.003906 -4.1875 22.71875 -3.488281 22.71875 -2.09375 C 22.71875 -0.695312 22.003906 0 20.578125 0 Z M 5.9375 0" transform="translate(473.296 281.342)"/></g></g></g><g fill="#E89A7D"><g><g><path d="M 5.609375 0.328125 C 4.023438 0.328125 3.234375 -0.488281 3.234375 -2.125 L 3.234375 -26.765625 C 3.234375 -28.410156 4.054688 -29.234375 5.703125 -29.234375 C 6.378906 -29.234375 6.914062 -29.101562 7.3125 -28.84375 C 7.707031 -28.582031 8.070312 -28.140625 8.40625 -27.515625 L 17.875 -10 L 27.34375 -27.515625 C 27.675781 -28.140625 28.03125 -28.582031 28.40625 -28.84375 C 28.789062 -29.101562 29.328125 -29.234375 30.015625 -29.234375 C 31.597656 -29.234375 32.390625 -28.410156 32.390625 -26.765625 L 32.390625 -2.125 C 32.390625 -0.488281 31.597656 0.328125 30.015625 0.328125 C 28.429688 0.328125 27.640625 -0.488281 27.640625 -2.125 L 27.640625 -19.46875 L 19.921875 -5.40625 C 19.648438 -4.945312 19.363281 -4.609375 19.0625 -4.390625 C 18.757812 -4.171875 18.347656 -4.0625 17.828125 -4.0625 C 17.316406 -4.0625 16.894531 -4.175781 16.5625 -4.40625 C 16.238281 -4.632812 15.953125 -4.96875 15.703125 -5.40625 L 8 -19.390625 L 8 -2.125 C 8 -0.488281 7.203125 0.328125 5.609375 0.328125 Z M 5.609375 0.328125" transform="translate(508.877 281.342)"/></g></g></g><g fill="#E89A7D"><g><g><path d="M 3.4375 0.328125 C 2.488281 0.328125 1.804688 0 1.390625 -0.65625 C 0.984375 -1.3125 1 -2.101562 1.4375 -3.03125 L 12.265625 -27.015625 C 12.617188 -27.804688 13.046875 -28.375 13.546875 -28.71875 C 14.054688 -29.0625 14.640625 -29.234375 15.296875 -29.234375 C 15.921875 -29.234375 16.484375 -29.0625 16.984375 -28.71875 C 17.492188 -28.375 17.925781 -27.804688 18.28125 -27.015625 L 29.15625 -3.03125 C 29.59375 -2.070312 29.617188 -1.269531 29.234375 -0.625 C 28.847656 0.0078125 28.191406 0.328125 27.265625 0.328125 C 26.492188 0.328125 25.894531 0.144531 25.46875 -0.21875 C 25.050781 -0.59375 24.679688 -1.160156 24.359375 -1.921875 L 22.296875 -6.6875 L 8.203125 -6.6875 L 6.1875 -1.921875 C 5.832031 -1.128906 5.460938 -0.554688 5.078125 -0.203125 C 4.703125 0.148438 4.15625 0.328125 3.4375 0.328125 Z M 15.21875 -23.203125 L 10 -10.859375 L 20.5 -10.859375 L 15.296875 -23.203125 Z M 15.21875 -23.203125" transform="translate(544.458 281.342)"/></g></g></g><g fill="#E89A7D"><g><g><path d="M 12.75 0.328125 C 11 0.328125 10.125 -0.570312 10.125 -2.375 L 10.125 -24.515625 L 2.125 -24.515625 C 0.625 -24.515625 -0.125 -25.253906 -0.125 -26.734375 C -0.125 -28.179688 0.625 -28.90625 2.125 -28.90625 L 23.375 -28.90625 C 24.875 -28.90625 25.625 -28.179688 25.625 -26.734375 C 25.625 -25.253906 24.875 -24.515625 23.375 -24.515625 L 15.375 -24.515625 L 15.375 -2.375 C 15.375 -0.570312 14.5 0.328125 12.75 0.328125 Z M 12.75 0.328125" transform="translate(574.956 281.342)"/></g></g></g><g fill="#E89A7D"><g><g><path d="M 5.9375 0 C 4.082031 0 3.15625 -0.925781 3.15625 -2.78125 L 3.15625 -26.109375 C 3.15625 -27.972656 4.082031 -28.90625 5.9375 -28.90625 L 20.578125 -28.90625 C 22.003906 -28.90625 22.71875 -28.222656 22.71875 -26.859375 C 22.71875 -25.429688 22.003906 -24.71875 20.578125 -24.71875 L 8.203125 -24.71875 L 8.203125 -16.765625 L 19.6875 -16.765625 C 21.101562 -16.765625 21.8125 -16.066406 21.8125 -14.671875 C 21.8125 -13.285156 21.101562 -12.59375 19.6875 -12.59375 L 8.203125 -12.59375 L 8.203125 -4.1875 L 20.578125 -4.1875 C 22.003906 -4.1875 22.71875 -3.488281 22.71875 -2.09375 C 22.71875 -0.695312 22.003906 0 20.578125 0 Z M 5.9375 0" transform="translate(600.412 281.342)"/></g></g></g><g fill="#E89A7D"><g><g><path d="M 5.78125 0.328125 C 4.03125 0.328125 3.15625 -0.570312 3.15625 -2.375 L 3.15625 -26.234375 C 3.15625 -28.015625 4.046875 -28.90625 5.828125 -28.90625 L 15.703125 -28.90625 C 18.867188 -28.90625 21.3125 -28.144531 23.03125 -26.625 C 24.757812 -25.113281 25.625 -22.988281 25.625 -20.25 C 25.625 -18.09375 25.0625 -16.3125 23.9375 -14.90625 C 22.820312 -13.5 21.210938 -12.546875 19.109375 -12.046875 C 20.503906 -11.609375 21.648438 -10.554688 22.546875 -8.890625 L 25.625 -3.203125 C 26.09375 -2.328125 26.179688 -1.519531 25.890625 -0.78125 C 25.597656 -0.0390625 24.894531 0.328125 23.78125 0.328125 C 23.039062 0.328125 22.4375 0.171875 21.96875 -0.140625 C 21.507812 -0.453125 21.101562 -0.9375 20.75 -1.59375 L 16.609375 -9.21875 C 16.109375 -10.15625 15.523438 -10.78125 14.859375 -11.09375 C 14.191406 -11.40625 13.335938 -11.5625 12.296875 -11.5625 L 8.40625 -11.5625 L 8.40625 -2.375 C 8.40625 -0.570312 7.53125 0.328125 5.78125 0.328125 Z M 8.40625 -15.453125 L 14.796875 -15.453125 C 18.628906 -15.453125 20.546875 -17.007812 20.546875 -20.125 C 20.546875 -23.21875 18.628906 -24.765625 14.796875 -24.765625 L 8.40625 -24.765625 Z M 8.40625 -15.453125" transform="translate(624.885 281.342)"/></g></g></g><g fill="#E89A7D"><g><g><path d="M 5.78125 0.328125 C 4.03125 0.328125 3.15625 -0.570312 3.15625 -2.375 L 3.15625 -26.53125 C 3.15625 -28.332031 4.03125 -29.234375 5.78125 -29.234375 C 7.53125 -29.234375 8.40625 -28.332031 8.40625 -26.53125 L 8.40625 -2.375 C 8.40625 -0.570312 7.53125 0.328125 5.78125 0.328125 Z M 5.78125 0.328125" transform="translate(653.005 281.342)"/></g></g></g><g fill="#E89A7D"><g><g><path d="M 3.4375 0.328125 C 2.488281 0.328125 1.804688 0 1.390625 -0.65625 C 0.984375 -1.3125 1 -2.101562 1.4375 -3.03125 L 12.265625 -27.015625 C 12.617188 -27.804688 13.046875 -28.375 13.546875 -28.71875 C 14.054688 -29.0625 14.640625 -29.234375 15.296875 -29.234375 C 15.921875 -29.234375 16.484375 -29.0625 16.984375 -28.71875 C 17.492188 -28.375 17.925781 -27.804688 18.28125 -27.015625 L 29.15625 -3.03125 C 29.59375 -2.070312 29.617188 -1.269531 29.234375 -0.625 C 28.847656 0.0078125 28.191406 0.328125 27.265625 0.328125 C 26.492188 0.328125 25.894531 0.144531 25.46875 -0.21875 C 25.050781 -0.59375 24.679688 -1.160156 24.359375 -1.921875 L 22.296875 -6.6875 L 8.203125 -6.6875 L 6.1875 -1.921875 C 5.832031 -1.128906 5.460938 -0.554688 5.078125 -0.203125 C 4.703125 0.148438 4.15625 0.328125 3.4375 0.328125 Z M 15.21875 -23.203125 L 10 -10.859375 L 20.5 -10.859375 L 15.296875 -23.203125 Z M 15.21875 -23.203125" transform="translate(664.565 281.342)"/></g></g></g><g fill="#E89A7D"><g><g><path d="M 5.828125 0 C 4.046875 0 3.15625 -0.898438 3.15625 -2.703125 L 3.15625 -26.359375 C 3.15625 -28.140625 4.03125 -29.03125 5.78125 -29.03125 C 7.53125 -29.03125 8.40625 -28.140625 8.40625 -26.359375 L 8.40625 -4.46875 L 20.296875 -4.46875 C 21.828125 -4.46875 22.59375 -3.726562 22.59375 -2.25 C 22.59375 -0.75 21.828125 0 20.296875 0 Z M 5.828125 0" transform="translate(695.063 281.342)"/></g></g></g><g fill="#E89A7D"><g><g><path d="M 13.125 0.40625 C 11.289062 0.40625 9.503906 0.203125 7.765625 -0.203125 C 6.035156 -0.609375 4.523438 -1.222656 3.234375 -2.046875 C 2.609375 -2.460938 2.226562 -2.96875 2.09375 -3.5625 C 1.957031 -4.164062 2.003906 -4.734375 2.234375 -5.265625 C 2.460938 -5.796875 2.828125 -6.164062 3.328125 -6.375 C 3.835938 -6.582031 4.421875 -6.476562 5.078125 -6.0625 C 6.285156 -5.351562 7.554688 -4.832031 8.890625 -4.5 C 10.234375 -4.175781 11.644531 -4.015625 13.125 -4.015625 C 15.28125 -4.015625 16.847656 -4.375 17.828125 -5.09375 C 18.816406 -5.820312 19.3125 -6.757812 19.3125 -7.90625 C 19.3125 -8.863281 18.960938 -9.613281 18.265625 -10.15625 C 17.566406 -10.707031 16.367188 -11.160156 14.671875 -11.515625 L 10.171875 -12.46875 C 5.023438 -13.5625 2.453125 -16.195312 2.453125 -20.375 C 2.453125 -22.175781 2.929688 -23.742188 3.890625 -25.078125 C 4.847656 -26.421875 6.171875 -27.460938 7.859375 -28.203125 C 9.554688 -28.941406 11.515625 -29.3125 13.734375 -29.3125 C 15.367188 -29.3125 16.925781 -29.101562 18.40625 -28.6875 C 19.882812 -28.28125 21.210938 -27.679688 22.390625 -26.890625 C 22.929688 -26.515625 23.253906 -26.046875 23.359375 -25.484375 C 23.472656 -24.921875 23.40625 -24.398438 23.15625 -23.921875 C 22.914062 -23.441406 22.53125 -23.113281 22 -22.9375 C 21.46875 -22.757812 20.84375 -22.875 20.125 -23.28125 C 19.113281 -23.863281 18.085938 -24.273438 17.046875 -24.515625 C 16.015625 -24.765625 14.894531 -24.890625 13.6875 -24.890625 C 11.800781 -24.890625 10.328125 -24.492188 9.265625 -23.703125 C 8.203125 -22.910156 7.671875 -21.867188 7.671875 -20.578125 C 7.671875 -19.597656 8 -18.8125 8.65625 -18.21875 C 9.3125 -17.632812 10.429688 -17.175781 12.015625 -16.84375 L 16.484375 -15.90625 C 19.191406 -15.332031 21.207031 -14.429688 22.53125 -13.203125 C 23.851562 -11.972656 24.515625 -10.332031 24.515625 -8.28125 C 24.515625 -6.5625 24.050781 -5.046875 23.125 -3.734375 C 22.195312 -2.421875 20.878906 -1.398438 19.171875 -0.671875 C 17.460938 0.046875 15.445312 0.40625 13.125 0.40625 Z M 13.125 0.40625" transform="translate(718.101 281.342)"/></g></g></g><g fill="#FAB164"><g><g><path d="M 5.859375 0.328125 C 4.054688 0.328125 3.15625 -0.597656 3.15625 -2.453125 L 3.15625 -26.109375 C 3.15625 -27.972656 4.082031 -28.90625 5.9375 -28.90625 L 20.25 -28.90625 C 21.675781 -28.90625 22.390625 -28.222656 22.390625 -26.859375 C 22.390625 -25.429688 21.675781 -24.71875 20.25 -24.71875 L 8.40625 -24.71875 L 8.40625 -16.5625 L 19.390625 -16.5625 C 20.816406 -16.5625 21.53125 -15.878906 21.53125 -14.515625 C 21.53125 -13.085938 20.816406 -12.375 19.390625 -12.375 L 8.40625 -12.375 L 8.40625 -2.453125 C 8.40625 -0.597656 7.554688 0.328125 5.859375 0.328125 Z M 5.859375 0.328125" transform="translate(280.256 530.076)"/></g></g></g><g fill="#FAB164"><g><g><path d="M 16.109375 0.40625 C 13.328125 0.40625 10.890625 -0.207031 8.796875 -1.4375 C 6.703125 -2.664062 5.082031 -4.394531 3.9375 -6.625 C 2.789062 -8.851562 2.21875 -11.46875 2.21875 -14.46875 C 2.21875 -17.507812 2.789062 -20.132812 3.9375 -22.34375 C 5.082031 -24.5625 6.691406 -26.273438 8.765625 -27.484375 C 10.847656 -28.703125 13.296875 -29.3125 16.109375 -29.3125 C 18.929688 -29.3125 21.378906 -28.703125 23.453125 -27.484375 C 25.523438 -26.273438 27.132812 -24.5625 28.28125 -22.34375 C 29.4375 -20.132812 30.015625 -17.523438 30.015625 -14.515625 C 30.015625 -11.484375 29.4375 -8.851562 28.28125 -6.625 C 27.132812 -4.394531 25.523438 -2.664062 23.453125 -1.4375 C 21.378906 -0.207031 18.929688 0.40625 16.109375 0.40625 Z M 16.109375 -4.09375 C 18.765625 -4.09375 20.828125 -5.007812 22.296875 -6.84375 C 23.773438 -8.675781 24.515625 -11.21875 24.515625 -14.46875 C 24.515625 -17.75 23.78125 -20.289062 22.3125 -22.09375 C 20.851562 -23.90625 18.785156 -24.8125 16.109375 -24.8125 C 13.460938 -24.8125 11.398438 -23.90625 9.921875 -22.09375 C 8.441406 -20.289062 7.703125 -17.75 7.703125 -14.46875 C 7.703125 -11.21875 8.441406 -8.675781 9.921875 -6.84375 C 11.398438 -5.007812 13.460938 -4.09375 16.109375 -4.09375 Z M 16.109375 -4.09375" transform="translate(303.293 530.076)"/></g></g></g><g fill="#FAB164"><g><g><path d="M 5.78125 0.328125 C 4.03125 0.328125 3.15625 -0.570312 3.15625 -2.375 L 3.15625 -26.234375 C 3.15625 -28.015625 4.046875 -28.90625 5.828125 -28.90625 L 15.703125 -28.90625 C 18.867188 -28.90625 21.3125 -28.144531 23.03125 -26.625 C 24.757812 -25.113281 25.625 -22.988281 25.625 -20.25 C 25.625 -18.09375 25.0625 -16.3125 23.9375 -14.90625 C 22.820312 -13.5 21.210938 -12.546875 19.109375 -12.046875 C 20.503906 -11.609375 21.648438 -10.554688 22.546875 -8.890625 L 25.625 -3.203125 C 26.09375 -2.328125 26.179688 -1.519531 25.890625 -0.78125 C 25.597656 -0.0390625 24.894531 0.328125 23.78125 0.328125 C 23.039062 0.328125 22.4375 0.171875 21.96875 -0.140625 C 21.507812 -0.453125 21.101562 -0.9375 20.75 -1.59375 L 16.609375 -9.21875 C 16.109375 -10.15625 15.523438 -10.78125 14.859375 -11.09375 C 14.191406 -11.40625 13.335938 -11.5625 12.296875 -11.5625 L 8.40625 -11.5625 L 8.40625 -2.375 C 8.40625 -0.570312 7.53125 0.328125 5.78125 0.328125 Z M 8.40625 -15.453125 L 14.796875 -15.453125 C 18.628906 -15.453125 20.546875 -17.007812 20.546875 -20.125 C 20.546875 -23.21875 18.628906 -24.765625 14.796875 -24.765625 L 8.40625 -24.765625 Z M 8.40625 -15.453125" transform="translate(335.472 530.076)"/></g></g></g><g fill="#FAB164"><g><g><path d="M 12.75 0.328125 C 11 0.328125 10.125 -0.570312 10.125 -2.375 L 10.125 -24.515625 L 2.125 -24.515625 C 0.625 -24.515625 -0.125 -25.253906 -0.125 -26.734375 C -0.125 -28.179688 0.625 -28.90625 2.125 -28.90625 L 23.375 -28.90625 C 24.875 -28.90625 25.625 -28.179688 25.625 -26.734375 C 25.625 -25.253906 24.875 -24.515625 23.375 -24.515625 L 15.375 -24.515625 L 15.375 -2.375 C 15.375 -0.570312 14.5 0.328125 12.75 0.328125 Z M 12.75 0.328125" transform="translate(374.702 530.076)"/></g></g></g><g fill="#FAB164"><g><g><path d="M 5.78125 0.328125 C 4.03125 0.328125 3.15625 -0.570312 3.15625 -2.375 L 3.15625 -26.53125 C 3.15625 -28.332031 4.03125 -29.234375 5.78125 -29.234375 C 7.53125 -29.234375 8.40625 -28.332031 8.40625 -26.53125 L 8.40625 -16.84375 L 23.28125 -16.84375 L 23.28125 -26.53125 C 23.28125 -28.332031 24.15625 -29.234375 25.90625 -29.234375 C 27.65625 -29.234375 28.53125 -28.332031 28.53125 -26.53125 L 28.53125 -2.375 C 28.53125 -0.570312 27.65625 0.328125 25.90625 0.328125 C 24.15625 0.328125 23.28125 -0.570312 23.28125 -2.375 L 23.28125 -12.46875 L 8.40625 -12.46875 L 8.40625 -2.375 C 8.40625 -0.570312 7.53125 0.328125 5.78125 0.328125 Z M 5.78125 0.328125" transform="translate(400.158 530.076)"/></g></g></g><g fill="#FAB164"><g><g><path d="M 5.9375 0 C 4.082031 0 3.15625 -0.925781 3.15625 -2.78125 L 3.15625 -26.109375 C 3.15625 -27.972656 4.082031 -28.90625 5.9375 -28.90625 L 20.578125 -28.90625 C 22.003906 -28.90625 22.71875 -28.222656 22.71875 -26.859375 C 22.71875 -25.429688 22.003906 -24.71875 20.578125 -24.71875 L 8.203125 -24.71875 L 8.203125 -16.765625 L 19.6875 -16.765625 C 21.101562 -16.765625 21.8125 -16.066406 21.8125 -14.671875 C 21.8125 -13.285156 21.101562 -12.59375 19.6875 -12.59375 L 8.203125 -12.59375 L 8.203125 -4.1875 L 20.578125 -4.1875 C 22.003906 -4.1875 22.71875 -3.488281 22.71875 -2.09375 C 22.71875 -0.695312 22.003906 0 20.578125 0 Z M 5.9375 0" transform="translate(431.845 530.076)"/></g></g></g><g fill="#FAB164"><g><g><path d="M 13.328125 0.328125 C 11.929688 0.328125 10.972656 -0.410156 10.453125 -1.890625 L 1.890625 -26.109375 C 1.585938 -26.984375 1.644531 -27.722656 2.0625 -28.328125 C 2.488281 -28.929688 3.207031 -29.234375 4.21875 -29.234375 C 4.957031 -29.234375 5.53125 -29.0625 5.9375 -28.71875 C 6.351562 -28.375 6.679688 -27.832031 6.921875 -27.09375 L 13.484375 -7.578125 L 20.375 -27.0625 C 20.894531 -28.507812 21.769531 -29.234375 23 -29.234375 C 23.65625 -29.234375 24.175781 -29.054688 24.5625 -28.703125 C 24.945312 -28.347656 25.273438 -27.785156 25.546875 -27.015625 L 32.3125 -7.296875 L 39.078125 -27.09375 C 39.316406 -27.8125 39.640625 -28.347656 40.046875 -28.703125 C 40.460938 -29.054688 41.023438 -29.234375 41.734375 -29.234375 C 42.609375 -29.234375 43.25 -28.929688 43.65625 -28.328125 C 44.070312 -27.722656 44.128906 -26.984375 43.828125 -26.109375 L 35.171875 -1.84375 C 34.898438 -1.101562 34.546875 -0.554688 34.109375 -0.203125 C 33.671875 0.148438 33.082031 0.328125 32.34375 0.328125 C 31.601562 0.328125 31.015625 0.148438 30.578125 -0.203125 C 30.148438 -0.554688 29.796875 -1.117188 29.515625 -1.890625 L 22.84375 -20.875 L 16.109375 -1.84375 C 15.835938 -1.101562 15.488281 -0.554688 15.0625 -0.203125 C 14.644531 0.148438 14.066406 0.328125 13.328125 0.328125 Z M 13.328125 0.328125" transform="translate(467.426 530.076)"/></g></g></g><g fill="#FAB164"><g><g><path d="M 5.9375 0 C 4.082031 0 3.15625 -0.925781 3.15625 -2.78125 L 3.15625 -26.109375 C 3.15625 -27.972656 4.082031 -28.90625 5.9375 -28.90625 L 20.578125 -28.90625 C 22.003906 -28.90625 22.71875 -28.222656 22.71875 -26.859375 C 22.71875 -25.429688 22.003906 -24.71875 20.578125 -24.71875 L 8.203125 -24.71875 L 8.203125 -16.765625 L 19.6875 -16.765625 C 21.101562 -16.765625 21.8125 -16.066406 21.8125 -14.671875 C 21.8125 -13.285156 21.101562 -12.59375 19.6875 -12.59375 L 8.203125 -12.59375 L 8.203125 -4.1875 L 20.578125 -4.1875 C 22.003906 -4.1875 22.71875 -3.488281 22.71875 -2.09375 C 22.71875 -0.695312 22.003906 0 20.578125 0 Z M 5.9375 0" transform="translate(513.05 530.076)"/></g></g></g><g fill="#FAB164"><g><g><path d="M 5.828125 0 C 4.046875 0 3.15625 -0.898438 3.15625 -2.703125 L 3.15625 -26.359375 C 3.15625 -28.140625 4.03125 -29.03125 5.78125 -29.03125 C 7.53125 -29.03125 8.40625 -28.140625 8.40625 -26.359375 L 8.40625 -4.46875 L 20.296875 -4.46875 C 21.828125 -4.46875 22.59375 -3.726562 22.59375 -2.25 C 22.59375 -0.75 21.828125 0 20.296875 0 Z M 5.828125 0" transform="translate(537.523 530.076)"/></g></g></g><g fill="#FAB164"><g><g><path d="M 5.828125 0 C 4.046875 0 3.15625 -0.898438 3.15625 -2.703125 L 3.15625 -26.359375 C 3.15625 -28.140625 4.03125 -29.03125 5.78125 -29.03125 C 7.53125 -29.03125 8.40625 -28.140625 8.40625 -26.359375 L 8.40625 -4.46875 L 20.296875 -4.46875 C 21.828125 -4.46875 22.59375 -3.726562 22.59375 -2.25 C 22.59375 -0.75 21.828125 0 20.296875 0 Z M 5.828125 0" transform="translate(560.56 530.076)"/></g></g></g><g fill="#FAB164"><g><g><path d="M 4.546875 -8.9375 C 3.953125 -8.9375 3.453125 -9.132812 3.046875 -9.53125 C 2.648438 -9.925781 2.453125 -10.410156 2.453125 -10.984375 C 2.453125 -11.585938 2.648438 -12.078125 3.046875 -12.453125 C 3.453125 -12.835938 3.953125 -13.03125 4.546875 -13.03125 L 13.28125 -13.03125 C 13.851562 -13.03125 14.335938 -12.835938 14.734375 -12.453125 C 15.128906 -12.078125 15.328125 -11.585938 15.328125 -10.984375 C 15.328125 -10.410156 15.128906 -9.925781 14.734375 -9.53125 C 14.335938 -9.132812 13.851562 -8.9375 13.28125 -8.9375 Z M 4.546875 -8.9375" transform="translate(583.598 530.076)"/></g></g></g><g fill="#FAB164"><g><g><path d="M 5.9375 0 C 4.082031 0 3.15625 -0.925781 3.15625 -2.78125 L 3.15625 -26.109375 C 3.15625 -27.972656 4.082031 -28.90625 5.9375 -28.90625 L 15.78125 -28.90625 C 18.820312 -28.90625 21.175781 -28.238281 22.84375 -26.90625 C 24.507812 -25.582031 25.34375 -23.75 25.34375 -21.40625 C 25.34375 -19.84375 24.941406 -18.5 24.140625 -17.375 C 23.347656 -16.257812 22.257812 -15.441406 20.875 -14.921875 C 22.507812 -14.460938 23.785156 -13.648438 24.703125 -12.484375 C 25.617188 -11.316406 26.078125 -9.847656 26.078125 -8.078125 C 26.078125 -5.503906 25.207031 -3.515625 23.46875 -2.109375 C 21.738281 -0.703125 19.328125 0 16.234375 0 Z M 8.203125 -16.640625 L 14.890625 -16.640625 C 18.460938 -16.640625 20.25 -18.019531 20.25 -20.78125 C 20.25 -23.539062 18.460938 -24.921875 14.890625 -24.921875 L 8.203125 -24.921875 Z M 8.203125 -3.984375 L 15.578125 -3.984375 C 19.179688 -3.984375 20.984375 -5.429688 20.984375 -8.328125 C 20.984375 -11.222656 19.179688 -12.671875 15.578125 -12.671875 L 8.203125 -12.671875 Z M 8.203125 -3.984375" transform="translate(601.389 530.076)"/></g></g></g><g fill="#FAB164"><g><g><path d="M 5.9375 0 C 4.082031 0 3.15625 -0.925781 3.15625 -2.78125 L 3.15625 -26.109375 C 3.15625 -27.972656 4.082031 -28.90625 5.9375 -28.90625 L 20.578125 -28.90625 C 22.003906 -28.90625 22.71875 -28.222656 22.71875 -26.859375 C 22.71875 -25.429688 22.003906 -24.71875 20.578125 -24.71875 L 8.203125 -24.71875 L 8.203125 -16.765625 L 19.6875 -16.765625 C 21.101562 -16.765625 21.8125 -16.066406 21.8125 -14.671875 C 21.8125 -13.285156 21.101562 -12.59375 19.6875 -12.59375 L 8.203125 -12.59375 L 8.203125 -4.1875 L 20.578125 -4.1875 C 22.003906 -4.1875 22.71875 -3.488281 22.71875 -2.09375 C 22.71875 -0.695312 22.003906 0 20.578125 0 Z M 5.9375 0" transform="translate(629.591 530.076)"/></g></g></g><g fill="#FAB164"><g><g><path d="M 5.78125 0.328125 C 4.03125 0.328125 3.15625 -0.570312 3.15625 -2.375 L 3.15625 -26.53125 C 3.15625 -28.332031 4.03125 -29.234375 5.78125 -29.234375 C 7.53125 -29.234375 8.40625 -28.332031 8.40625 -26.53125 L 8.40625 -2.375 C 8.40625 -0.570312 7.53125 0.328125 5.78125 0.328125 Z M 5.78125 0.328125" transform="translate(654.064 530.076)"/></g></g></g><g fill="#FAB164"><g><g><path d="M 5.609375 0.328125 C 3.972656 0.328125 3.15625 -0.519531 3.15625 -2.21875 L 3.15625 -26.609375 C 3.15625 -27.453125 3.363281 -28.097656 3.78125 -28.546875 C 4.207031 -29.003906 4.765625 -29.234375 5.453125 -29.234375 C 6.078125 -29.234375 6.546875 -29.113281 6.859375 -28.875 C 7.179688 -28.644531 7.5625 -28.257812 8 -27.71875 L 22.625 -8.734375 L 22.625 -26.734375 C 22.625 -28.398438 23.445312 -29.234375 25.09375 -29.234375 C 26.707031 -29.234375 27.515625 -28.398438 27.515625 -26.734375 L 27.515625 -2.125 C 27.515625 -1.363281 27.320312 -0.765625 26.9375 -0.328125 C 26.550781 0.109375 26.03125 0.328125 25.375 0.328125 C 24.75 0.328125 24.25 0.207031 23.875 -0.03125 C 23.507812 -0.28125 23.109375 -0.679688 22.671875 -1.234375 L 8.03125 -20.25 L 8.03125 -2.21875 C 8.03125 -0.519531 7.222656 0.328125 5.609375 0.328125 Z M 5.609375 0.328125" transform="translate(665.623 530.076)"/></g></g></g><g fill="#FAB164"><g><g><path d="M 17.0625 0.40625 C 13.863281 0.40625 11.160156 -0.191406 8.953125 -1.390625 C 6.753906 -2.597656 5.082031 -4.304688 3.9375 -6.515625 C 2.789062 -8.734375 2.21875 -11.359375 2.21875 -14.390625 C 2.21875 -17.453125 2.800781 -20.097656 3.96875 -22.328125 C 5.144531 -24.554688 6.835938 -26.273438 9.046875 -27.484375 C 11.265625 -28.703125 13.921875 -29.3125 17.015625 -29.3125 C 18.546875 -29.3125 20.082031 -29.125 21.625 -28.75 C 23.164062 -28.382812 24.625 -27.765625 26 -26.890625 C 26.59375 -26.535156 26.9375 -26.0625 27.03125 -25.46875 C 27.132812 -24.882812 27.046875 -24.332031 26.765625 -23.8125 C 26.492188 -23.300781 26.082031 -22.941406 25.53125 -22.734375 C 24.988281 -22.523438 24.390625 -22.613281 23.734375 -23 C 22.703125 -23.601562 21.648438 -24.039062 20.578125 -24.3125 C 19.515625 -24.582031 18.328125 -24.71875 17.015625 -24.71875 C 13.953125 -24.71875 11.632812 -23.828125 10.0625 -22.046875 C 8.488281 -20.273438 7.703125 -17.722656 7.703125 -14.390625 C 7.703125 -11.023438 8.507812 -8.46875 10.125 -6.71875 C 11.738281 -4.96875 14.128906 -4.09375 17.296875 -4.09375 C 18.203125 -4.09375 19.125 -4.164062 20.0625 -4.3125 C 21.007812 -4.46875 21.945312 -4.695312 22.875 -5 L 22.875 -11.71875 L 18.375 -11.71875 C 16.945312 -11.71875 16.234375 -12.375 16.234375 -13.6875 C 16.234375 -14.976562 16.945312 -15.625 18.375 -15.625 L 25.140625 -15.625 C 26.554688 -15.625 27.265625 -14.910156 27.265625 -13.484375 L 27.265625 -3.53125 C 27.265625 -2.269531 26.769531 -1.460938 25.78125 -1.109375 C 24.582031 -0.671875 23.203125 -0.304688 21.640625 -0.015625 C 20.085938 0.265625 18.5625 0.40625 17.0625 0.40625 Z M 17.0625 0.40625" transform="translate(696.286 530.076)"/></g></g></g><g fill="#FAB164"><g><g><path d="M 16.109375 0.40625 C 13.328125 0.40625 10.890625 -0.207031 8.796875 -1.4375 C 6.703125 -2.664062 5.082031 -4.394531 3.9375 -6.625 C 2.789062 -8.851562 2.21875 -11.46875 2.21875 -14.46875 C 2.21875 -17.507812 2.789062 -20.132812 3.9375 -22.34375 C 5.082031 -24.5625 6.691406 -26.273438 8.765625 -27.484375 C 10.847656 -28.703125 13.296875 -29.3125 16.109375 -29.3125 C 18.929688 -29.3125 21.378906 -28.703125 23.453125 -27.484375 C 25.523438 -26.273438 27.132812 -24.5625 28.28125 -22.34375 C 29.4375 -20.132812 30.015625 -17.523438 30.015625 -14.515625 C 30.015625 -11.484375 29.4375 -8.851562 28.28125 -6.625 C 27.132812 -4.394531 25.523438 -2.664062 23.453125 -1.4375 C 21.378906 -0.207031 18.929688 0.40625 16.109375 0.40625 Z M 16.109375 -4.09375 C 18.765625 -4.09375 20.828125 -5.007812 22.296875 -6.84375 C 23.773438 -8.675781 24.515625 -11.21875 24.515625 -14.46875 C 24.515625 -17.75 23.78125 -20.289062 22.3125 -22.09375 C 20.851562 -23.90625 18.785156 -24.8125 16.109375 -24.8125 C 13.460938 -24.8125 11.398438 -23.90625 9.921875 -22.09375 C 8.441406 -20.289062 7.703125 -17.75 7.703125 -14.46875 C 7.703125 -11.21875 8.441406 -8.675781 9.921875 -6.84375 C 11.398438 -5.007812 13.460938 -4.09375 16.109375 -4.09375 Z M 16.109375 -4.09375" transform="translate(376.338 587.076)"/></g></g></g><g fill="#FAB164"><g><g><path d="M 5.859375 0.328125 C 4.054688 0.328125 3.15625 -0.597656 3.15625 -2.453125 L 3.15625 -26.109375 C 3.15625 -27.972656 4.082031 -28.90625 5.9375 -28.90625 L 20.25 -28.90625 C 21.675781 -28.90625 22.390625 -28.222656 22.390625 -26.859375 C 22.390625 -25.429688 21.675781 -24.71875 20.25 -24.71875 L 8.40625 -24.71875 L 8.40625 -16.5625 L 19.390625 -16.5625 C 20.816406 -16.5625 21.53125 -15.878906 21.53125 -14.515625 C 21.53125 -13.085938 20.816406 -12.375 19.390625 -12.375 L 8.40625 -12.375 L 8.40625 -2.453125 C 8.40625 -0.597656 7.554688 0.328125 5.859375 0.328125 Z M 5.859375 0.328125" transform="translate(408.517 587.076)"/></g></g></g><g fill="#FAB164"><g><g><path d="M 3.4375 0.328125 C 2.488281 0.328125 1.804688 0 1.390625 -0.65625 C 0.984375 -1.3125 1 -2.101562 1.4375 -3.03125 L 12.265625 -27.015625 C 12.617188 -27.804688 13.046875 -28.375 13.546875 -28.71875 C 14.054688 -29.0625 14.640625 -29.234375 15.296875 -29.234375 C 15.921875 -29.234375 16.484375 -29.0625 16.984375 -28.71875 C 17.492188 -28.375 17.925781 -27.804688 18.28125 -27.015625 L 29.15625 -3.03125 C 29.59375 -2.070312 29.617188 -1.269531 29.234375 -0.625 C 28.847656 0.0078125 28.191406 0.328125 27.265625 0.328125 C 26.492188 0.328125 25.894531 0.144531 25.46875 -0.21875 C 25.050781 -0.59375 24.679688 -1.160156 24.359375 -1.921875 L 22.296875 -6.6875 L 8.203125 -6.6875 L 6.1875 -1.921875 C 5.832031 -1.128906 5.460938 -0.554688 5.078125 -0.203125 C 4.703125 0.148438 4.15625 0.328125 3.4375 0.328125 Z M 15.21875 -23.203125 L 10 -10.859375 L 20.5 -10.859375 L 15.296875 -23.203125 Z M 15.21875 -23.203125" transform="translate(442.663 587.076)"/></g></g></g><g fill="#FAB164"><g><g><path d="M 5.609375 0.328125 C 3.972656 0.328125 3.15625 -0.519531 3.15625 -2.21875 L 3.15625 -26.609375 C 3.15625 -27.453125 3.363281 -28.097656 3.78125 -28.546875 C 4.207031 -29.003906 4.765625 -29.234375 5.453125 -29.234375 C 6.078125 -29.234375 6.546875 -29.113281 6.859375 -28.875 C 7.179688 -28.644531 7.5625 -28.257812 8 -27.71875 L 22.625 -8.734375 L 22.625 -26.734375 C 22.625 -28.398438 23.445312 -29.234375 25.09375 -29.234375 C 26.707031 -29.234375 27.515625 -28.398438 27.515625 -26.734375 L 27.515625 -2.125 C 27.515625 -1.363281 27.320312 -0.765625 26.9375 -0.328125 C 26.550781 0.109375 26.03125 0.328125 25.375 0.328125 C 24.75 0.328125 24.25 0.207031 23.875 -0.03125 C 23.507812 -0.28125 23.109375 -0.679688 22.671875 -1.234375 L 8.03125 -20.25 L 8.03125 -2.21875 C 8.03125 -0.519531 7.222656 0.328125 5.609375 0.328125 Z M 5.609375 0.328125" transform="translate(473.161 587.076)"/></g></g></g><g fill="#FAB164"><g><g><path d="M 5.78125 0.328125 C 4.03125 0.328125 3.15625 -0.570312 3.15625 -2.375 L 3.15625 -26.53125 C 3.15625 -28.332031 4.03125 -29.234375 5.78125 -29.234375 C 7.53125 -29.234375 8.40625 -28.332031 8.40625 -26.53125 L 8.40625 -2.375 C 8.40625 -0.570312 7.53125 0.328125 5.78125 0.328125 Z M 5.78125 0.328125" transform="translate(503.824 587.076)"/></g></g></g><g fill="#FAB164"><g><g><path d="M 5.609375 0.328125 C 4.023438 0.328125 3.234375 -0.488281 3.234375 -2.125 L 3.234375 -26.765625 C 3.234375 -28.410156 4.054688 -29.234375 5.703125 -29.234375 C 6.378906 -29.234375 6.914062 -29.101562 7.3125 -28.84375 C 7.707031 -28.582031 8.070312 -28.140625 8.40625 -27.515625 L 17.875 -10 L 27.34375 -27.515625 C 27.675781 -28.140625 28.03125 -28.582031 28.40625 -28.84375 C 28.789062 -29.101562 29.328125 -29.234375 30.015625 -29.234375 C 31.597656 -29.234375 32.390625 -28.410156 32.390625 -26.765625 L 32.390625 -2.125 C 32.390625 -0.488281 31.597656 0.328125 30.015625 0.328125 C 28.429688 0.328125 27.640625 -0.488281 27.640625 -2.125 L 27.640625 -19.46875 L 19.921875 -5.40625 C 19.648438 -4.945312 19.363281 -4.609375 19.0625 -4.390625 C 18.757812 -4.171875 18.347656 -4.0625 17.828125 -4.0625 C 17.316406 -4.0625 16.894531 -4.175781 16.5625 -4.40625 C 16.238281 -4.632812 15.953125 -4.96875 15.703125 -5.40625 L 8 -19.390625 L 8 -2.125 C 8 -0.488281 7.203125 0.328125 5.609375 0.328125 Z M 5.609375 0.328125" transform="translate(515.383 587.076)"/></g></g></g><g fill="#FAB164"><g><g><path d="M 3.4375 0.328125 C 2.488281 0.328125 1.804688 0 1.390625 -0.65625 C 0.984375 -1.3125 1 -2.101562 1.4375 -3.03125 L 12.265625 -27.015625 C 12.617188 -27.804688 13.046875 -28.375 13.546875 -28.71875 C 14.054688 -29.0625 14.640625 -29.234375 15.296875 -29.234375 C 15.921875 -29.234375 16.484375 -29.0625 16.984375 -28.71875 C 17.492188 -28.375 17.925781 -27.804688 18.28125 -27.015625 L 29.15625 -3.03125 C 29.59375 -2.070312 29.617188 -1.269531 29.234375 -0.625 C 28.847656 0.0078125 28.191406 0.328125 27.265625 0.328125 C 26.492188 0.328125 25.894531 0.144531 25.46875 -0.21875 C 25.050781 -0.59375 24.679688 -1.160156 24.359375 -1.921875 L 22.296875 -6.6875 L 8.203125 -6.6875 L 6.1875 -1.921875 C 5.832031 -1.128906 5.460938 -0.554688 5.078125 -0.203125 C 4.703125 0.148438 4.15625 0.328125 3.4375 0.328125 Z M 15.21875 -23.203125 L 10 -10.859375 L 20.5 -10.859375 L 15.296875 -23.203125 Z M 15.21875 -23.203125" transform="translate(550.965 587.076)"/></g></g></g><g fill="#FAB164"><g><g><path d="M 5.828125 0 C 4.046875 0 3.15625 -0.898438 3.15625 -2.703125 L 3.15625 -26.359375 C 3.15625 -28.140625 4.03125 -29.03125 5.78125 -29.03125 C 7.53125 -29.03125 8.40625 -28.140625 8.40625 -26.359375 L 8.40625 -4.46875 L 20.296875 -4.46875 C 21.828125 -4.46875 22.59375 -3.726562 22.59375 -2.25 C 22.59375 -0.75 21.828125 0 20.296875 0 Z M 5.828125 0" transform="translate(581.463 587.076)"/></g></g></g><g fill="#FAB164"><g><g><path d="M 13.125 0.40625 C 11.289062 0.40625 9.503906 0.203125 7.765625 -0.203125 C 6.035156 -0.609375 4.523438 -1.222656 3.234375 -2.046875 C 2.609375 -2.460938 2.226562 -2.96875 2.09375 -3.5625 C 1.957031 -4.164062 2.003906 -4.734375 2.234375 -5.265625 C 2.460938 -5.796875 2.828125 -6.164062 3.328125 -6.375 C 3.835938 -6.582031 4.421875 -6.476562 5.078125 -6.0625 C 6.285156 -5.351562 7.554688 -4.832031 8.890625 -4.5 C 10.234375 -4.175781 11.644531 -4.015625 13.125 -4.015625 C 15.28125 -4.015625 16.847656 -4.375 17.828125 -5.09375 C 18.816406 -5.820312 19.3125 -6.757812 19.3125 -7.90625 C 19.3125 -8.863281 18.960938 -9.613281 18.265625 -10.15625 C 17.566406 -10.707031 16.367188 -11.160156 14.671875 -11.515625 L 10.171875 -12.46875 C 5.023438 -13.5625 2.453125 -16.195312 2.453125 -20.375 C 2.453125 -22.175781 2.929688 -23.742188 3.890625 -25.078125 C 4.847656 -26.421875 6.171875 -27.460938 7.859375 -28.203125 C 9.554688 -28.941406 11.515625 -29.3125 13.734375 -29.3125 C 15.367188 -29.3125 16.925781 -29.101562 18.40625 -28.6875 C 19.882812 -28.28125 21.210938 -27.679688 22.390625 -26.890625 C 22.929688 -26.515625 23.253906 -26.046875 23.359375 -25.484375 C 23.472656 -24.921875 23.40625 -24.398438 23.15625 -23.921875 C 22.914062 -23.441406 22.53125 -23.113281 22 -22.9375 C 21.46875 -22.757812 20.84375 -22.875 20.125 -23.28125 C 19.113281 -23.863281 18.085938 -24.273438 17.046875 -24.515625 C 16.015625 -24.765625 14.894531 -24.890625 13.6875 -24.890625 C 11.800781 -24.890625 10.328125 -24.492188 9.265625 -23.703125 C 8.203125 -22.910156 7.671875 -21.867188 7.671875 -20.578125 C 7.671875 -19.597656 8 -18.8125 8.65625 -18.21875 C 9.3125 -17.632812 10.429688 -17.175781 12.015625 -16.84375 L 16.484375 -15.90625 C 19.191406 -15.332031 21.207031 -14.429688 22.53125 -13.203125 C 23.851562 -11.972656 24.515625 -10.332031 24.515625 -8.28125 C 24.515625 -6.5625 24.050781 -5.046875 23.125 -3.734375 C 22.195312 -2.421875 20.878906 -1.398438 19.171875 -0.671875 C 17.460938 0.046875 15.445312 0.40625 13.125 0.40625 Z M 13.125 0.40625" transform="translate(604.5 587.076)"/></g></g></g><g clip-path="url(#b)"><path fill="#FAB164" d="M 111.597656 522.859375 C 111.597656 539.457031 102.230469 552.910156 90.675781 552.910156 C 79.136719 552.910156 69.773438 539.457031 69.773438 522.859375 C 69.773438 506.257812 79.136719 492.796875 90.683594 492.796875 C 102.230469 492.796875 111.597656 506.257812 111.597656 522.859375 Z M 111.597656 522.859375"/></g><g clip-path="url(#c)"><path fill="#FAB164" d="M 153.417969 486.261719 C 153.417969 502.875 144.058594 516.328125 132.503906 516.328125 C 120.957031 516.328125 111.589844 502.867188 111.589844 486.261719 C 111.597656 469.664062 120.957031 456.203125 132.511719 456.203125 C 144.058594 456.203125 153.417969 469.664062 153.417969 486.261719 Z M 153.417969 486.261719"/></g><g clip-path="url(#d)"><path fill="#FAB164" d="M 216.15625 576.441406 C 198.621094 570.597656 195.242188 550.300781 184.78125 539.839844 C 174.328125 529.386719 158.648438 529.386719 158.648438 529.386719 C 158.648438 529.386719 142.964844 529.386719 132.511719 539.839844 C 122.050781 550.292969 118.679688 570.589844 101.144531 576.441406 C 85.453125 581.679688 80.226562 597.355469 80.226562 610.425781 C 80.226562 623.5 90.683594 633.953125 111.597656 633.953125 C 132.511719 633.953125 145.582031 626.117188 158.648438 626.117188 C 171.71875 626.117188 184.78125 633.953125 205.703125 633.953125 C 226.617188 633.953125 237.070312 623.5 237.070312 610.425781 C 237.070312 597.355469 231.839844 581.679688 216.15625 576.441406 Z M 216.15625 576.441406"/></g><g clip-path="url(#e)"><path fill="#FAB164" d="M 247.523438 522.859375 C 247.523438 523.84375 247.488281 524.824219 247.421875 525.804688 C 247.355469 526.785156 247.253906 527.757812 247.121094 528.722656 C 246.984375 529.6875 246.820312 530.640625 246.621094 531.582031 C 246.421875 532.527344 246.191406 533.453125 245.929688 534.359375 C 245.667969 535.269531 245.375 536.160156 245.050781 537.027344 C 244.730469 537.894531 244.378906 538.738281 243.996094 539.558594 C 243.617188 540.375 243.210938 541.167969 242.773438 541.929688 C 242.339844 542.6875 241.878906 543.417969 241.394531 544.113281 C 240.910156 544.808594 240.40625 545.46875 239.875 546.09375 C 239.347656 546.71875 238.796875 547.304688 238.226562 547.851562 C 237.65625 548.398438 237.070312 548.90625 236.46875 549.367188 C 235.863281 549.832031 235.246094 550.253906 234.613281 550.628906 C 233.980469 551.007812 233.335938 551.335938 232.679688 551.625 C 232.023438 551.910156 231.359375 552.148438 230.6875 552.339844 C 230.015625 552.53125 229.339844 552.675781 228.660156 552.773438 C 227.976562 552.871094 227.292969 552.917969 226.609375 552.917969 C 225.921875 552.917969 225.242188 552.871094 224.558594 552.773438 C 223.878906 552.675781 223.199219 552.53125 222.527344 552.339844 C 221.855469 552.148438 221.191406 551.910156 220.539062 551.625 C 219.882812 551.335938 219.238281 551.007812 218.605469 550.628906 C 217.972656 550.253906 217.355469 549.832031 216.75 549.367188 C 216.144531 548.90625 215.558594 548.398438 214.988281 547.851562 C 214.421875 547.304688 213.871094 546.71875 213.339844 546.09375 C 212.8125 545.46875 212.304688 544.808594 211.820312 544.113281 C 211.335938 543.417969 210.878906 542.6875 210.441406 541.929688 C 210.007812 541.167969 209.601562 540.375 209.21875 539.558594 C 208.839844 538.738281 208.488281 537.894531 208.164062 537.027344 C 207.84375 536.160156 207.550781 535.269531 207.289062 534.359375 C 207.023438 533.453125 206.792969 532.527344 206.597656 531.582031 C 206.398438 530.640625 206.230469 529.6875 206.097656 528.722656 C 205.964844 527.757812 205.863281 526.785156 205.796875 525.804688 C 205.730469 524.824219 205.695312 523.84375 205.695312 522.859375 C 205.695312 521.875 205.730469 520.890625 205.796875 519.910156 C 205.863281 518.929688 205.964844 517.957031 206.097656 516.992188 C 206.230469 516.027344 206.398438 515.074219 206.597656 514.132812 C 206.792969 513.191406 207.023438 512.265625 207.289062 511.355469 C 207.550781 510.445312 207.84375 509.554688 208.164062 508.6875 C 208.488281 507.820312 208.839844 506.976562 209.21875 506.15625 C 209.601562 505.339844 210.007812 504.546875 210.441406 503.789062 C 210.878906 503.027344 211.335938 502.296875 211.820312 501.601562 C 212.304688 500.90625 212.8125 500.246094 213.339844 499.621094 C 213.871094 498.996094 214.421875 498.410156 214.988281 497.863281 C 215.558594 497.316406 216.144531 496.8125 216.75 496.347656 C 217.355469 495.882812 217.972656 495.460938 218.605469 495.085938 C 219.238281 494.707031 219.882812 494.378906 220.539062 494.09375 C 221.191406 493.804688 221.855469 493.566406 222.527344 493.375 C 223.199219 493.183594 223.878906 493.039062 224.558594 492.941406 C 225.242188 492.847656 225.921875 492.796875 226.609375 492.796875 C 227.292969 492.796875 227.976562 492.847656 228.660156 492.941406 C 229.339844 493.039062 230.015625 493.183594 230.6875 493.375 C 231.359375 493.566406 232.023438 493.804688 232.679688 494.09375 C 233.335938 494.378906 233.980469 494.707031 234.613281 495.085938 C 235.246094 495.460938 235.863281 495.882812 236.46875 496.347656 C 237.070312 496.8125 237.65625 497.316406 238.226562 497.863281 C 238.796875 498.410156 239.347656 498.996094 239.875 499.621094 C 240.40625 500.246094 240.910156 500.90625 241.394531 501.601562 C 241.878906 502.296875 242.339844 503.027344 242.773438 503.789062 C 243.210938 504.546875 243.617188 505.339844 243.996094 506.15625 C 244.378906 506.976562 244.730469 507.820312 245.050781 508.6875 C 245.375 509.554688 245.667969 510.445312 245.929688 511.355469 C 246.191406 512.265625 246.421875 513.191406 246.621094 514.132812 C 246.820312 515.074219 246.984375 516.027344 247.121094 516.992188 C 247.253906 517.957031 247.355469 518.929688 247.421875 519.910156 C 247.488281 520.890625 247.523438 521.875 247.523438 522.859375 Z M 247.523438 522.859375"/></g><g clip-path="url(#f)"><path fill="#FAB164" d="M 163.875 486.261719 C 163.875 502.875 173.242188 516.328125 184.789062 516.328125 C 196.34375 516.328125 205.710938 502.867188 205.710938 486.261719 C 205.710938 469.664062 196.34375 456.203125 184.789062 456.203125 C 173.242188 456.203125 163.875 469.664062 163.875 486.261719 Z M 163.875 486.261719"/></g></svg>