<svg xmlns="http://www.w3.org/2000/svg" width="810" viewBox="0 0 810 810" height="810" version="1.0"><defs><clipPath id="a"><path d="M 60.289062 169.484375 L 256.789062 169.484375 L 256.789062 365.984375 L 60.289062 365.984375 Z M 60.289062 169.484375"/></clipPath><clipPath id="b"><path d="M 60.289062 444.839844 L 256.789062 444.839844 L 256.789062 642 L 60.289062 642 Z M 60.289062 444.839844"/></clipPath></defs><path fill="#FFF" d="M-81 -81H891V891H-81z"/><path fill="#FFF" d="M-81 -81H891V891H-81z"/><g clip-path="url(#a)"><path fill="#FAB164" d="M 246.144531 252.15625 C 243.839844 250.261719 240.359375 247.402344 239.960938 245.917969 C 239.515625 244.246094 241.082031 240.050781 242.222656 236.988281 C 244.4375 231.050781 246.945312 224.320312 243.632812 218.59375 C 240.28125 212.796875 233.136719 211.609375 226.832031 210.558594 C 223.828125 210.058594 219.289062 209.304688 218.128906 208.144531 C 216.96875 206.984375 216.214844 202.445312 215.714844 199.441406 C 214.664062 193.136719 213.472656 185.992188 207.679688 182.640625 C 201.953125 179.328125 195.222656 181.835938 189.285156 184.050781 C 186.222656 185.191406 182.023438 186.753906 180.355469 186.308594 C 178.871094 185.914062 176.007812 182.433594 174.113281 180.128906 C 170.011719 175.140625 165.363281 169.484375 158.539062 169.484375 C 151.714844 169.484375 147.0625 175.140625 142.960938 180.128906 C 141.066406 182.433594 138.203125 185.914062 136.71875 186.3125 C 135.050781 186.753906 130.855469 185.191406 127.789062 184.050781 C 121.851562 181.835938 115.125 179.328125 109.398438 182.640625 C 103.601562 185.992188 102.414062 193.136719 101.363281 199.441406 C 100.863281 202.445312 100.105469 206.984375 98.945312 208.144531 C 97.785156 209.304688 93.246094 210.058594 90.246094 210.558594 C 83.941406 211.609375 76.796875 212.800781 73.445312 218.59375 C 70.128906 224.320312 72.640625 231.050781 74.851562 236.988281 C 75.996094 240.050781 77.558594 244.25 77.113281 245.917969 C 76.714844 247.402344 73.234375 250.261719 70.933594 252.160156 C 65.945312 256.261719 60.289062 260.910156 60.289062 267.734375 C 60.289062 274.558594 65.945312 279.210938 70.933594 283.3125 C 73.238281 285.207031 76.71875 288.070312 77.113281 289.554688 C 77.558594 291.222656 75.996094 295.417969 74.851562 298.484375 C 72.640625 304.417969 70.128906 311.148438 73.445312 316.875 C 76.796875 322.671875 83.941406 323.859375 90.246094 324.910156 C 93.246094 325.410156 97.785156 326.167969 98.945312 327.328125 C 100.105469 328.488281 100.863281 333.027344 101.363281 336.027344 C 102.414062 342.332031 103.601562 349.476562 109.398438 352.828125 C 115.121094 356.144531 121.851562 353.632812 127.792969 351.421875 C 130.855469 350.277344 135.054688 348.714844 136.71875 349.160156 C 138.203125 349.558594 141.066406 353.039062 142.960938 355.339844 C 147.0625 360.328125 151.714844 365.984375 158.539062 365.984375 C 165.363281 365.984375 170.011719 360.328125 174.117188 355.339844 C 176.007812 353.035156 178.871094 349.554688 180.355469 349.160156 C 182.027344 348.714844 186.222656 350.277344 189.285156 351.421875 C 195.222656 353.632812 201.953125 356.144531 207.679688 352.828125 C 213.476562 349.476562 214.664062 342.332031 215.714844 336.027344 C 216.214844 333.027344 216.96875 328.488281 218.128906 327.328125 C 219.289062 326.167969 223.828125 325.410156 226.832031 324.910156 C 233.136719 323.859375 240.28125 322.671875 243.632812 316.875 C 246.945312 311.148438 244.4375 304.417969 242.222656 298.480469 C 241.082031 295.417969 239.519531 291.222656 239.964844 289.554688 C 240.359375 288.070312 243.839844 285.207031 246.144531 283.3125 C 251.132812 279.210938 256.789062 274.558594 256.789062 267.734375 C 256.789062 260.910156 251.132812 256.261719 246.144531 252.15625 Z M 238.941406 274.554688 C 234.714844 278.03125 230.347656 281.625 229.011719 286.628906 C 227.628906 291.789062 229.648438 297.207031 231.601562 302.441406 C 232.511719 304.894531 234.414062 309.992188 233.820312 311.199219 C 233.144531 312.367188 227.417969 313.320312 224.96875 313.726562 C 219.5 314.636719 213.84375 315.582031 210.113281 319.3125 C 206.382812 323.039062 205.441406 328.695312 204.53125 334.167969 C 204.125 336.613281 203.167969 342.339844 202.003906 343.015625 C 202 343.019531 201.441406 343.257812 199.628906 342.875 C 197.777344 342.488281 195.574219 341.664062 193.246094 340.796875 C 188.007812 338.84375 182.59375 336.824219 177.429688 338.207031 C 172.429688 339.542969 168.835938 343.914062 165.359375 348.140625 C 163.621094 350.25 160.007812 354.648438 158.539062 354.648438 C 157.070312 354.648438 153.453125 350.25 151.71875 348.140625 C 148.242188 343.914062 144.648438 339.542969 139.644531 338.207031 C 138.457031 337.890625 137.257812 337.75 136.050781 337.75 C 132 337.75 127.863281 339.292969 123.832031 340.796875 C 121.382812 341.710938 116.28125 343.613281 115.074219 343.015625 C 113.90625 342.339844 112.953125 336.613281 112.546875 334.167969 C 111.636719 328.695312 110.695312 323.042969 106.964844 319.3125 C 103.234375 315.582031 97.578125 314.636719 92.105469 313.726562 C 89.660156 313.320312 83.933594 312.367188 83.257812 311.199219 C 83.253906 311.195312 83.015625 310.636719 83.398438 308.828125 C 83.789062 306.972656 84.609375 304.773438 85.476562 302.441406 C 87.429688 297.207031 89.449219 291.789062 88.066406 286.625 C 86.730469 281.625 82.359375 278.03125 78.132812 274.554688 C 76.023438 272.820312 71.625 269.203125 71.625 267.734375 C 71.625 266.265625 76.023438 262.652344 78.132812 260.914062 C 82.359375 257.4375 86.730469 253.84375 88.066406 248.84375 C 89.449219 243.679688 87.429688 238.265625 85.476562 233.027344 C 84.5625 230.578125 82.660156 225.476562 83.257812 224.269531 C 83.933594 223.101562 89.660156 222.148438 92.105469 221.742188 C 97.578125 220.832031 103.234375 219.890625 106.964844 216.160156 C 110.691406 212.429688 111.636719 206.773438 112.546875 201.304688 C 112.953125 198.855469 113.90625 193.128906 115.074219 192.457031 C 115.078125 192.453125 115.636719 192.210938 117.445312 192.59375 C 119.300781 192.984375 121.5 193.804688 123.832031 194.671875 C 129.066406 196.625 134.484375 198.644531 139.648438 197.261719 C 144.648438 195.925781 148.242188 191.554688 151.71875 187.332031 C 153.453125 185.21875 157.070312 180.820312 158.539062 180.820312 C 160.007812 180.820312 163.621094 185.21875 165.359375 187.332031 C 168.835938 191.558594 172.429688 195.925781 177.429688 197.261719 C 182.59375 198.644531 188.007812 196.625 193.246094 194.671875 C 195.695312 193.757812 200.796875 191.855469 202.003906 192.453125 C 203.171875 193.128906 204.125 198.855469 204.53125 201.304688 C 205.441406 206.773438 206.382812 212.429688 210.113281 216.160156 C 213.84375 219.890625 219.5 220.832031 224.96875 221.742188 C 227.417969 222.148438 233.144531 223.105469 233.816406 224.269531 C 233.820312 224.273438 234.0625 224.832031 233.679688 226.644531 C 233.289062 228.496094 232.46875 230.699219 231.601562 233.027344 C 229.648438 238.265625 227.628906 243.679688 229.011719 248.84375 C 230.347656 253.84375 234.71875 257.4375 238.941406 260.914062 C 241.054688 262.652344 245.453125 266.265625 245.453125 267.734375 C 245.453125 269.203125 241.054688 272.820312 238.941406 274.554688 Z M 238.941406 274.554688"/></g><path fill="#FAB164" d="M 197.835938 232.96875 C 194.609375 230.546875 190.628906 229.527344 186.632812 230.097656 C 182.632812 230.667969 179.097656 232.765625 176.675781 235.992188 L 153.125 267.394531 L 142.773438 257.046875 C 136.882812 251.152344 127.292969 251.152344 121.398438 257.046875 C 115.503906 262.941406 115.503906 272.53125 121.398438 278.425781 L 144.070312 301.097656 C 146.925781 303.953125 150.722656 305.523438 154.757812 305.523438 C 155.117188 305.523438 155.476562 305.511719 155.832031 305.484375 C 160.203125 305.175781 164.222656 302.984375 166.851562 299.476562 L 200.863281 254.132812 C 203.285156 250.902344 204.304688 246.921875 203.734375 242.925781 C 203.160156 238.929688 201.070312 235.390625 197.835938 232.96875 Z M 191.792969 247.328125 L 157.78125 292.675781 C 157.125 293.550781 156.121094 294.101562 155.027344 294.175781 C 153.921875 294.261719 152.863281 293.859375 152.085938 293.082031 L 129.414062 270.40625 C 127.941406 268.933594 127.941406 266.539062 129.414062 265.0625 C 130.152344 264.328125 131.117188 263.957031 132.085938 263.957031 C 133.054688 263.957031 134.023438 264.328125 134.757812 265.0625 L 149.730469 280.035156 C 150.890625 281.195312 152.5 281.796875 154.136719 281.679688 C 155.777344 281.5625 157.285156 280.742188 158.269531 279.425781 L 185.746094 242.792969 C 186.351562 241.988281 187.234375 241.464844 188.234375 241.320312 C 189.234375 241.179688 190.230469 241.433594 191.035156 242.039062 C 191.84375 242.644531 192.367188 243.527344 192.507812 244.527344 C 192.652344 245.527344 192.398438 246.523438 191.792969 247.328125 Z M 191.792969 247.328125"/><path fill="#E89A7D" d="M 230.09375 538.335938 C 204.6875 535.792969 118.003906 531.964844 140.382812 601.757812 C 143.253906 605.546875 167.550781 634.800781 206.566406 594.671875 C 209.421875 591.730469 211.734375 583.648438 214.367188 574.4375 C 217.980469 561.796875 222.164062 547.179688 230.09375 538.335938 Z M 237.648438 533.074219 C 238.5625 533.164062 239.429688 533.664062 239.953125 534.503906 C 240.847656 535.945312 240.40625 537.835938 238.96875 538.730469 L 238.964844 538.722656 C 229.222656 544.78125 224.351562 561.804688 220.261719 576.113281 C 217.402344 586.105469 214.898438 594.875 210.949219 598.9375 C 166.066406 645.105469 137.488281 608.164062 135.257812 605.113281 C 135.007812 604.820312 134.8125 604.476562 134.6875 604.089844 C 135.785156 603.207031 103.839844 513.289062 237.648438 533.074219 Z M 237.648438 533.074219"/><path fill="#E89A7D" d="M 211.25 549.847656 C 212.828125 549.253906 213.628906 547.488281 213.035156 545.90625 C 212.4375 544.324219 210.675781 543.527344 209.09375 544.121094 C 208.9375 544.179688 155.125 564.25 151.800781 594.179688 C 151.617188 595.859375 152.828125 597.375 154.507812 597.558594 C 156.1875 597.746094 157.703125 596.53125 157.886719 594.851562 C 160.796875 568.679688 211.105469 549.902344 211.25 549.847656 Z M 211.25 549.847656"/><path fill="#E89A7D" d="M 95.910156 507.136719 C 94.199219 525.921875 92.753906 578.492188 130.789062 574.796875 C 131.535156 567.914062 133.675781 562.054688 136.871094 557.074219 C 139.789062 552.519531 143.566406 548.730469 147.953125 545.585938 C 143.75 541.6875 140.910156 537.847656 139.167969 534.113281 C 137.507812 530.550781 136.84375 527.082031 136.957031 523.734375 C 134.808594 521.761719 128.902344 520.074219 122.179688 518.152344 C 113.125 515.5625 102.738281 512.589844 95.910156 507.136719 Z M 134.085938 580.5625 C 78.148438 589.082031 89.96875 504.023438 90.574219 499.902344 C 90.652344 498.972656 91.15625 498.09375 92.007812 497.5625 C 93.449219 496.667969 95.339844 497.109375 96.234375 498.546875 L 96.226562 498.550781 C 100.621094 505.613281 113.246094 509.222656 123.855469 512.257812 C 131.453125 514.429688 138.121094 516.335938 141.3125 519.433594 C 141.570312 519.6875 141.835938 519.945312 142.101562 520.210938 C 142.835938 520.84375 143.257812 521.816406 143.152344 522.851562 L 143.144531 522.851562 C 142.863281 525.585938 143.308594 528.480469 144.726562 531.527344 C 146.179688 534.644531 148.644531 537.914062 152.363281 541.320312 C 152.851562 541.511719 153.71875 541.808594 154.902344 542.070312 C 155.796875 542.214844 156.617188 542.746094 157.09375 543.597656 C 157.925781 545.074219 157.402344 546.941406 155.925781 547.773438 L 155.917969 547.769531 C 150.234375 550.96875 145.410156 555.09375 142.019531 560.378906 C 139.015625 565.066406 137.109375 570.714844 136.699219 577.503906 C 136.714844 579.003906 135.621094 580.328125 134.09375 580.5625 Z M 134.085938 580.5625"/><path fill="#E89A7D" d="M 104.644531 519.488281 C 104.046875 517.90625 102.28125 517.109375 100.703125 517.703125 C 99.121094 518.296875 98.320312 520.0625 98.917969 521.644531 C 98.960938 521.761719 114.183594 562.589844 137.125 565.136719 C 138.804688 565.324219 140.320312 564.109375 140.503906 562.429688 C 140.691406 560.75 139.476562 559.238281 137.796875 559.050781 C 118.621094 556.921875 104.683594 519.59375 104.644531 519.488281 Z M 104.644531 519.488281"/><path fill="#E89A7D" d="M 173.5 493.492188 C 159.855469 500.050781 127.855469 518.835938 152.382812 541.328125 C 152.734375 541.464844 153.277344 541.652344 153.984375 541.84375 C 156.648438 540.421875 159.484375 539.164062 162.445312 538.0625 C 165.679688 536.855469 169.007812 535.851562 172.375 535.019531 C 173.335938 533.652344 174.253906 532.054688 175.101562 530.199219 C 176.148438 527.898438 177.101562 525.175781 177.914062 521.957031 C 178.34375 520.25 177.332031 516.207031 176.179688 511.597656 C 174.730469 505.804688 173.089844 499.246094 173.5 493.492188 Z M 148.625 546.199219 C 111.226562 512.578125 172.195312 487.195312 176.617188 485.414062 C 177.480469 484.980469 178.53125 484.960938 179.445312 485.449219 C 180.941406 486.246094 181.503906 488.105469 180.703125 489.597656 L 180.695312 489.59375 C 178.171875 494.316406 180.316406 502.898438 182.121094 510.113281 C 183.472656 515.515625 184.660156 520.257812 183.855469 523.445312 C 182.957031 526.992188 181.875 530.070312 180.660156 532.738281 C 179.464844 535.351562 178.144531 537.554688 176.746094 539.40625 C 176.328125 540.046875 175.675781 540.535156 174.875 540.722656 L 174.867188 540.71875 C 171.296875 541.558594 167.839844 542.574219 164.578125 543.789062 C 161.613281 544.890625 158.753906 546.183594 156.058594 547.691406 C 155.402344 548.105469 154.59375 548.273438 153.777344 548.097656 L 153.78125 548.09375 C 151.8125 547.671875 150.328125 547.09375 149.726562 546.839844 C 149.332031 546.710938 148.953125 546.5 148.625 546.203125 Z M 148.625 546.199219"/><g clip-path="url(#b)"><path fill="#E89A7D" d="M 158.539062 444.839844 C 185.636719 444.839844 210.171875 455.824219 227.929688 473.582031 C 245.6875 491.339844 256.675781 515.871094 256.675781 542.96875 C 256.675781 570.070312 245.6875 594.601562 227.929688 612.359375 C 210.171875 630.117188 185.636719 641.101562 158.539062 641.101562 C 131.4375 641.101562 106.90625 630.117188 89.148438 612.359375 C 71.386719 594.601562 60.402344 570.066406 60.402344 542.96875 C 60.402344 515.871094 71.386719 491.339844 89.148438 473.582031 C 106.90625 455.824219 131.441406 444.839844 158.539062 444.839844 Z M 223.59375 477.917969 C 206.945312 461.269531 183.945312 450.972656 158.539062 450.972656 C 133.132812 450.972656 110.132812 461.269531 93.484375 477.917969 C 76.835938 494.566406 66.535156 517.566406 66.535156 542.96875 C 66.535156 568.375 76.835938 591.375 93.484375 608.023438 C 110.132812 624.671875 133.132812 634.96875 158.539062 634.96875 C 183.945312 634.96875 206.945312 624.671875 223.59375 608.023438 C 240.242188 591.375 250.539062 568.375 250.539062 542.96875 C 250.539062 517.566406 240.242188 494.566406 223.59375 477.917969 Z M 223.59375 477.917969"/></g><path fill="#E89A7D" d="M 171.835938 547.355469 C 170.152344 547.15625 168.628906 548.359375 168.429688 550.039062 C 168.234375 551.71875 169.433594 553.242188 171.113281 553.441406 L 191.199219 555.871094 L 184.566406 568.640625 C 183.792969 570.144531 184.382812 571.988281 185.886719 572.761719 C 187.386719 573.535156 189.234375 572.949219 190.007812 571.445312 L 198.566406 554.960938 C 198.789062 554.597656 198.941406 554.179688 198.996094 553.726562 C 199.199219 552.046875 198 550.519531 196.320312 550.316406 L 196.3125 550.316406 Z M 171.835938 547.355469"/><path fill="#E89A7D" d="M 153.183594 569.914062 C 151.523438 570.222656 150.425781 571.820312 150.738281 573.480469 C 151.050781 575.140625 152.648438 576.238281 154.308594 575.925781 L 167.136719 573.488281 L 166.035156 584.597656 C 165.871094 586.277344 167.097656 587.777344 168.78125 587.941406 C 170.460938 588.105469 171.957031 586.878906 172.121094 585.195312 L 173.601562 570.257812 C 173.664062 569.898438 173.664062 569.523438 173.59375 569.144531 C 173.277344 567.480469 171.671875 566.390625 170.007812 566.707031 L 170.011719 566.714844 Z M 153.183594 569.914062"/><g fill="#FAB164"><g><g><path d="M 16.609375 0.40625 C 13.597656 0.40625 11.019531 -0.195312 8.875 -1.40625 C 6.726562 -2.625 5.082031 -4.347656 3.9375 -6.578125 C 2.789062 -8.804688 2.21875 -11.4375 2.21875 -14.46875 C 2.21875 -17.507812 2.789062 -20.132812 3.9375 -22.34375 C 5.082031 -24.5625 6.726562 -26.273438 8.875 -27.484375 C 11.019531 -28.703125 13.597656 -29.3125 16.609375 -29.3125 C 18.109375 -29.3125 19.582031 -29.117188 21.03125 -28.734375 C 22.476562 -28.359375 23.75 -27.8125 24.84375 -27.09375 C 25.550781 -26.632812 25.972656 -26.082031 26.109375 -25.4375 C 26.253906 -24.800781 26.175781 -24.210938 25.875 -23.671875 C 25.570312 -23.140625 25.117188 -22.785156 24.515625 -22.609375 C 23.910156 -22.429688 23.242188 -22.585938 22.515625 -23.078125 C 21.660156 -23.628906 20.738281 -24.023438 19.75 -24.265625 C 18.769531 -24.515625 17.773438 -24.640625 16.765625 -24.640625 C 13.835938 -24.640625 11.609375 -23.757812 10.078125 -22 C 8.554688 -20.238281 7.796875 -17.726562 7.796875 -14.46875 C 7.796875 -11.21875 8.554688 -8.703125 10.078125 -6.921875 C 11.609375 -5.148438 13.835938 -4.265625 16.765625 -4.265625 C 17.804688 -4.265625 18.832031 -4.394531 19.84375 -4.65625 C 20.851562 -4.914062 21.8125 -5.316406 22.71875 -5.859375 C 23.457031 -6.328125 24.113281 -6.476562 24.6875 -6.3125 C 25.257812 -6.144531 25.6875 -5.804688 25.96875 -5.296875 C 26.257812 -4.796875 26.347656 -4.242188 26.234375 -3.640625 C 26.128906 -3.046875 25.765625 -2.515625 25.140625 -2.046875 C 24.046875 -1.253906 22.738281 -0.644531 21.21875 -0.21875 C 19.695312 0.195312 18.160156 0.40625 16.609375 0.40625 Z M 16.609375 0.40625" transform="translate(352.63 252.842)"/></g></g></g><g fill="#FAB164"><g><g><path d="M 15.171875 0.40625 C 11.203125 0.40625 8.171875 -0.625 6.078125 -2.6875 C 3.992188 -4.75 2.953125 -7.800781 2.953125 -11.84375 L 2.953125 -26.5625 C 2.953125 -28.34375 3.828125 -29.234375 5.578125 -29.234375 C 7.328125 -29.234375 8.203125 -28.34375 8.203125 -26.5625 L 8.203125 -11.890625 C 8.203125 -9.296875 8.796875 -7.347656 9.984375 -6.046875 C 11.171875 -4.742188 12.898438 -4.09375 15.171875 -4.09375 C 19.785156 -4.09375 22.09375 -6.691406 22.09375 -11.890625 L 22.09375 -26.5625 C 22.09375 -28.34375 22.96875 -29.234375 24.71875 -29.234375 C 26.445312 -29.234375 27.3125 -28.34375 27.3125 -26.5625 L 27.3125 -11.84375 C 27.3125 -7.800781 26.285156 -4.75 24.234375 -2.6875 C 22.179688 -0.625 19.160156 0.40625 15.171875 0.40625 Z M 15.171875 0.40625" transform="translate(380.505 252.842)"/></g></g></g><g fill="#FAB164"><g><g><path d="M 13.125 0.40625 C 11.289062 0.40625 9.503906 0.203125 7.765625 -0.203125 C 6.035156 -0.609375 4.523438 -1.222656 3.234375 -2.046875 C 2.609375 -2.460938 2.226562 -2.96875 2.09375 -3.5625 C 1.957031 -4.164062 2.003906 -4.734375 2.234375 -5.265625 C 2.460938 -5.796875 2.828125 -6.164062 3.328125 -6.375 C 3.835938 -6.582031 4.421875 -6.476562 5.078125 -6.0625 C 6.285156 -5.351562 7.554688 -4.832031 8.890625 -4.5 C 10.234375 -4.175781 11.644531 -4.015625 13.125 -4.015625 C 15.28125 -4.015625 16.847656 -4.375 17.828125 -5.09375 C 18.816406 -5.820312 19.3125 -6.757812 19.3125 -7.90625 C 19.3125 -8.863281 18.960938 -9.613281 18.265625 -10.15625 C 17.566406 -10.707031 16.367188 -11.160156 14.671875 -11.515625 L 10.171875 -12.46875 C 5.023438 -13.5625 2.453125 -16.195312 2.453125 -20.375 C 2.453125 -22.175781 2.929688 -23.742188 3.890625 -25.078125 C 4.847656 -26.421875 6.171875 -27.460938 7.859375 -28.203125 C 9.554688 -28.941406 11.515625 -29.3125 13.734375 -29.3125 C 15.367188 -29.3125 16.925781 -29.101562 18.40625 -28.6875 C 19.882812 -28.28125 21.210938 -27.679688 22.390625 -26.890625 C 22.929688 -26.515625 23.253906 -26.046875 23.359375 -25.484375 C 23.472656 -24.921875 23.40625 -24.398438 23.15625 -23.921875 C 22.914062 -23.441406 22.53125 -23.113281 22 -22.9375 C 21.46875 -22.757812 20.84375 -22.875 20.125 -23.28125 C 19.113281 -23.863281 18.085938 -24.273438 17.046875 -24.515625 C 16.015625 -24.765625 14.894531 -24.890625 13.6875 -24.890625 C 11.800781 -24.890625 10.328125 -24.492188 9.265625 -23.703125 C 8.203125 -22.910156 7.671875 -21.867188 7.671875 -20.578125 C 7.671875 -19.597656 8 -18.8125 8.65625 -18.21875 C 9.3125 -17.632812 10.429688 -17.175781 12.015625 -16.84375 L 16.484375 -15.90625 C 19.191406 -15.332031 21.207031 -14.429688 22.53125 -13.203125 C 23.851562 -11.972656 24.515625 -10.332031 24.515625 -8.28125 C 24.515625 -6.5625 24.050781 -5.046875 23.125 -3.734375 C 22.195312 -2.421875 20.878906 -1.398438 19.171875 -0.671875 C 17.460938 0.046875 15.445312 0.40625 13.125 0.40625 Z M 13.125 0.40625" transform="translate(410.758 252.842)"/></g></g></g><g fill="#FAB164"><g><g><path d="M 12.75 0.328125 C 11 0.328125 10.125 -0.570312 10.125 -2.375 L 10.125 -24.515625 L 2.125 -24.515625 C 0.625 -24.515625 -0.125 -25.253906 -0.125 -26.734375 C -0.125 -28.179688 0.625 -28.90625 2.125 -28.90625 L 23.375 -28.90625 C 24.875 -28.90625 25.625 -28.179688 25.625 -26.734375 C 25.625 -25.253906 24.875 -24.515625 23.375 -24.515625 L 15.375 -24.515625 L 15.375 -2.375 C 15.375 -0.570312 14.5 0.328125 12.75 0.328125 Z M 12.75 0.328125" transform="translate(436.624 252.842)"/></g></g></g><g fill="#FAB164"><g><g><path d="M 16.109375 0.40625 C 13.328125 0.40625 10.890625 -0.207031 8.796875 -1.4375 C 6.703125 -2.664062 5.082031 -4.394531 3.9375 -6.625 C 2.789062 -8.851562 2.21875 -11.46875 2.21875 -14.46875 C 2.21875 -17.507812 2.789062 -20.132812 3.9375 -22.34375 C 5.082031 -24.5625 6.691406 -26.273438 8.765625 -27.484375 C 10.847656 -28.703125 13.296875 -29.3125 16.109375 -29.3125 C 18.929688 -29.3125 21.378906 -28.703125 23.453125 -27.484375 C 25.523438 -26.273438 27.132812 -24.5625 28.28125 -22.34375 C 29.4375 -20.132812 30.015625 -17.523438 30.015625 -14.515625 C 30.015625 -11.484375 29.4375 -8.851562 28.28125 -6.625 C 27.132812 -4.394531 25.523438 -2.664062 23.453125 -1.4375 C 21.378906 -0.207031 18.929688 0.40625 16.109375 0.40625 Z M 16.109375 -4.09375 C 18.765625 -4.09375 20.828125 -5.007812 22.296875 -6.84375 C 23.773438 -8.675781 24.515625 -11.21875 24.515625 -14.46875 C 24.515625 -17.75 23.78125 -20.289062 22.3125 -22.09375 C 20.851562 -23.90625 18.785156 -24.8125 16.109375 -24.8125 C 13.460938 -24.8125 11.398438 -23.90625 9.921875 -22.09375 C 8.441406 -20.289062 7.703125 -17.75 7.703125 -14.46875 C 7.703125 -11.21875 8.441406 -8.675781 9.921875 -6.84375 C 11.398438 -5.007812 13.460938 -4.09375 16.109375 -4.09375 Z M 16.109375 -4.09375" transform="translate(462.08 252.842)"/></g></g></g><g fill="#FAB164"><g><g><path d="M 5.609375 0.328125 C 4.023438 0.328125 3.234375 -0.488281 3.234375 -2.125 L 3.234375 -26.765625 C 3.234375 -28.410156 4.054688 -29.234375 5.703125 -29.234375 C 6.378906 -29.234375 6.914062 -29.101562 7.3125 -28.84375 C 7.707031 -28.582031 8.070312 -28.140625 8.40625 -27.515625 L 17.875 -10 L 27.34375 -27.515625 C 27.675781 -28.140625 28.03125 -28.582031 28.40625 -28.84375 C 28.789062 -29.101562 29.328125 -29.234375 30.015625 -29.234375 C 31.597656 -29.234375 32.390625 -28.410156 32.390625 -26.765625 L 32.390625 -2.125 C 32.390625 -0.488281 31.597656 0.328125 30.015625 0.328125 C 28.429688 0.328125 27.640625 -0.488281 27.640625 -2.125 L 27.640625 -19.46875 L 19.921875 -5.40625 C 19.648438 -4.945312 19.363281 -4.609375 19.0625 -4.390625 C 18.757812 -4.171875 18.347656 -4.0625 17.828125 -4.0625 C 17.316406 -4.0625 16.894531 -4.175781 16.5625 -4.40625 C 16.238281 -4.632812 15.953125 -4.96875 15.703125 -5.40625 L 8 -19.390625 L 8 -2.125 C 8 -0.488281 7.203125 0.328125 5.609375 0.328125 Z M 5.609375 0.328125" transform="translate(494.259 252.842)"/></g></g></g><g fill="#FAB164"><g><g><path d="M 5.9375 0 C 4.082031 0 3.15625 -0.925781 3.15625 -2.78125 L 3.15625 -26.109375 C 3.15625 -27.972656 4.082031 -28.90625 5.9375 -28.90625 L 20.578125 -28.90625 C 22.003906 -28.90625 22.71875 -28.222656 22.71875 -26.859375 C 22.71875 -25.429688 22.003906 -24.71875 20.578125 -24.71875 L 8.203125 -24.71875 L 8.203125 -16.765625 L 19.6875 -16.765625 C 21.101562 -16.765625 21.8125 -16.066406 21.8125 -14.671875 C 21.8125 -13.285156 21.101562 -12.59375 19.6875 -12.59375 L 8.203125 -12.59375 L 8.203125 -4.1875 L 20.578125 -4.1875 C 22.003906 -4.1875 22.71875 -3.488281 22.71875 -2.09375 C 22.71875 -0.695312 22.003906 0 20.578125 0 Z M 5.9375 0" transform="translate(529.84 252.842)"/></g></g></g><g fill="#FAB164"><g><g><path d="M 5.78125 0.328125 C 4.03125 0.328125 3.15625 -0.570312 3.15625 -2.375 L 3.15625 -26.234375 C 3.15625 -28.015625 4.046875 -28.90625 5.828125 -28.90625 L 15.703125 -28.90625 C 18.867188 -28.90625 21.3125 -28.144531 23.03125 -26.625 C 24.757812 -25.113281 25.625 -22.988281 25.625 -20.25 C 25.625 -18.09375 25.0625 -16.3125 23.9375 -14.90625 C 22.820312 -13.5 21.210938 -12.546875 19.109375 -12.046875 C 20.503906 -11.609375 21.648438 -10.554688 22.546875 -8.890625 L 25.625 -3.203125 C 26.09375 -2.328125 26.179688 -1.519531 25.890625 -0.78125 C 25.597656 -0.0390625 24.894531 0.328125 23.78125 0.328125 C 23.039062 0.328125 22.4375 0.171875 21.96875 -0.140625 C 21.507812 -0.453125 21.101562 -0.9375 20.75 -1.59375 L 16.609375 -9.21875 C 16.109375 -10.15625 15.523438 -10.78125 14.859375 -11.09375 C 14.191406 -11.40625 13.335938 -11.5625 12.296875 -11.5625 L 8.40625 -11.5625 L 8.40625 -2.375 C 8.40625 -0.570312 7.53125 0.328125 5.78125 0.328125 Z M 8.40625 -15.453125 L 14.796875 -15.453125 C 18.628906 -15.453125 20.546875 -17.007812 20.546875 -20.125 C 20.546875 -23.21875 18.628906 -24.765625 14.796875 -24.765625 L 8.40625 -24.765625 Z M 8.40625 -15.453125" transform="translate(554.312 252.842)"/></g></g></g><g fill="#FAB164"><g><g><path d="M 5.859375 0.328125 C 4.054688 0.328125 3.15625 -0.597656 3.15625 -2.453125 L 3.15625 -26.109375 C 3.15625 -27.972656 4.082031 -28.90625 5.9375 -28.90625 L 20.25 -28.90625 C 21.675781 -28.90625 22.390625 -28.222656 22.390625 -26.859375 C 22.390625 -25.429688 21.675781 -24.71875 20.25 -24.71875 L 8.40625 -24.71875 L 8.40625 -16.5625 L 19.390625 -16.5625 C 20.816406 -16.5625 21.53125 -15.878906 21.53125 -14.515625 C 21.53125 -13.085938 20.816406 -12.375 19.390625 -12.375 L 8.40625 -12.375 L 8.40625 -2.453125 C 8.40625 -0.597656 7.554688 0.328125 5.859375 0.328125 Z M 5.859375 0.328125" transform="translate(593.542 252.842)"/></g></g></g><g fill="#FAB164"><g><g><path d="M 5.78125 0.328125 C 4.03125 0.328125 3.15625 -0.570312 3.15625 -2.375 L 3.15625 -26.53125 C 3.15625 -28.332031 4.03125 -29.234375 5.78125 -29.234375 C 7.53125 -29.234375 8.40625 -28.332031 8.40625 -26.53125 L 8.40625 -2.375 C 8.40625 -0.570312 7.53125 0.328125 5.78125 0.328125 Z M 5.78125 0.328125" transform="translate(616.58 252.842)"/></g></g></g><g fill="#FAB164"><g><g><path d="M 5.78125 0.328125 C 4.03125 0.328125 3.15625 -0.570312 3.15625 -2.375 L 3.15625 -26.234375 C 3.15625 -28.015625 4.046875 -28.90625 5.828125 -28.90625 L 15.703125 -28.90625 C 18.867188 -28.90625 21.3125 -28.144531 23.03125 -26.625 C 24.757812 -25.113281 25.625 -22.988281 25.625 -20.25 C 25.625 -18.09375 25.0625 -16.3125 23.9375 -14.90625 C 22.820312 -13.5 21.210938 -12.546875 19.109375 -12.046875 C 20.503906 -11.609375 21.648438 -10.554688 22.546875 -8.890625 L 25.625 -3.203125 C 26.09375 -2.328125 26.179688 -1.519531 25.890625 -0.78125 C 25.597656 -0.0390625 24.894531 0.328125 23.78125 0.328125 C 23.039062 0.328125 22.4375 0.171875 21.96875 -0.140625 C 21.507812 -0.453125 21.101562 -0.9375 20.75 -1.59375 L 16.609375 -9.21875 C 16.109375 -10.15625 15.523438 -10.78125 14.859375 -11.09375 C 14.191406 -11.40625 13.335938 -11.5625 12.296875 -11.5625 L 8.40625 -11.5625 L 8.40625 -2.375 C 8.40625 -0.570312 7.53125 0.328125 5.78125 0.328125 Z M 8.40625 -15.453125 L 14.796875 -15.453125 C 18.628906 -15.453125 20.546875 -17.007812 20.546875 -20.125 C 20.546875 -23.21875 18.628906 -24.765625 14.796875 -24.765625 L 8.40625 -24.765625 Z M 8.40625 -15.453125" transform="translate(628.14 252.842)"/></g></g></g><g fill="#FAB164"><g><g><path d="M 13.125 0.40625 C 11.289062 0.40625 9.503906 0.203125 7.765625 -0.203125 C 6.035156 -0.609375 4.523438 -1.222656 3.234375 -2.046875 C 2.609375 -2.460938 2.226562 -2.96875 2.09375 -3.5625 C 1.957031 -4.164062 2.003906 -4.734375 2.234375 -5.265625 C 2.460938 -5.796875 2.828125 -6.164062 3.328125 -6.375 C 3.835938 -6.582031 4.421875 -6.476562 5.078125 -6.0625 C 6.285156 -5.351562 7.554688 -4.832031 8.890625 -4.5 C 10.234375 -4.175781 11.644531 -4.015625 13.125 -4.015625 C 15.28125 -4.015625 16.847656 -4.375 17.828125 -5.09375 C 18.816406 -5.820312 19.3125 -6.757812 19.3125 -7.90625 C 19.3125 -8.863281 18.960938 -9.613281 18.265625 -10.15625 C 17.566406 -10.707031 16.367188 -11.160156 14.671875 -11.515625 L 10.171875 -12.46875 C 5.023438 -13.5625 2.453125 -16.195312 2.453125 -20.375 C 2.453125 -22.175781 2.929688 -23.742188 3.890625 -25.078125 C 4.847656 -26.421875 6.171875 -27.460938 7.859375 -28.203125 C 9.554688 -28.941406 11.515625 -29.3125 13.734375 -29.3125 C 15.367188 -29.3125 16.925781 -29.101562 18.40625 -28.6875 C 19.882812 -28.28125 21.210938 -27.679688 22.390625 -26.890625 C 22.929688 -26.515625 23.253906 -26.046875 23.359375 -25.484375 C 23.472656 -24.921875 23.40625 -24.398438 23.15625 -23.921875 C 22.914062 -23.441406 22.53125 -23.113281 22 -22.9375 C 21.46875 -22.757812 20.84375 -22.875 20.125 -23.28125 C 19.113281 -23.863281 18.085938 -24.273438 17.046875 -24.515625 C 16.015625 -24.765625 14.894531 -24.890625 13.6875 -24.890625 C 11.800781 -24.890625 10.328125 -24.492188 9.265625 -23.703125 C 8.203125 -22.910156 7.671875 -21.867188 7.671875 -20.578125 C 7.671875 -19.597656 8 -18.8125 8.65625 -18.21875 C 9.3125 -17.632812 10.429688 -17.175781 12.015625 -16.84375 L 16.484375 -15.90625 C 19.191406 -15.332031 21.207031 -14.429688 22.53125 -13.203125 C 23.851562 -11.972656 24.515625 -10.332031 24.515625 -8.28125 C 24.515625 -6.5625 24.050781 -5.046875 23.125 -3.734375 C 22.195312 -2.421875 20.878906 -1.398438 19.171875 -0.671875 C 17.460938 0.046875 15.445312 0.40625 13.125 0.40625 Z M 13.125 0.40625" transform="translate(656.26 252.842)"/></g></g></g><g fill="#FAB164"><g><g><path d="M 12.75 0.328125 C 11 0.328125 10.125 -0.570312 10.125 -2.375 L 10.125 -24.515625 L 2.125 -24.515625 C 0.625 -24.515625 -0.125 -25.253906 -0.125 -26.734375 C -0.125 -28.179688 0.625 -28.90625 2.125 -28.90625 L 23.375 -28.90625 C 24.875 -28.90625 25.625 -28.179688 25.625 -26.734375 C 25.625 -25.253906 24.875 -24.515625 23.375 -24.515625 L 15.375 -24.515625 L 15.375 -2.375 C 15.375 -0.570312 14.5 0.328125 12.75 0.328125 Z M 12.75 0.328125" transform="translate(682.126 252.842)"/></g></g></g><g fill="#FAB164"><g><g><path d="M 11.71875 0.40625 C 10.25 0.40625 8.71875 0.21875 7.125 -0.15625 C 5.539062 -0.539062 4.164062 -1.117188 3 -1.890625 C 2.3125 -2.347656 1.898438 -2.867188 1.765625 -3.453125 C 1.628906 -4.046875 1.695312 -4.582031 1.96875 -5.0625 C 2.238281 -5.539062 2.65625 -5.859375 3.21875 -6.015625 C 3.78125 -6.179688 4.414062 -6.078125 5.125 -5.703125 C 6.25 -5.097656 7.328125 -4.664062 8.359375 -4.40625 C 9.398438 -4.144531 10.46875 -4.015625 11.5625 -4.015625 C 15.25 -4.015625 17.09375 -5.460938 17.09375 -8.359375 C 17.09375 -9.722656 16.632812 -10.738281 15.71875 -11.40625 C 14.800781 -12.082031 13.46875 -12.421875 11.71875 -12.421875 L 9.109375 -12.421875 C 8.335938 -12.421875 7.753906 -12.613281 7.359375 -13 C 6.960938 -13.382812 6.765625 -13.914062 6.765625 -14.59375 C 6.765625 -15.28125 6.960938 -15.8125 7.359375 -16.1875 C 7.753906 -16.570312 8.335938 -16.765625 9.109375 -16.765625 L 11.234375 -16.765625 C 12.765625 -16.765625 13.976562 -17.140625 14.875 -17.890625 C 15.78125 -18.648438 16.234375 -19.695312 16.234375 -21.03125 C 16.234375 -22.289062 15.816406 -23.25 14.984375 -23.90625 C 14.148438 -24.5625 12.941406 -24.890625 11.359375 -24.890625 C 10.347656 -24.890625 9.394531 -24.769531 8.5 -24.53125 C 7.613281 -24.300781 6.640625 -23.875 5.578125 -23.25 C 4.953125 -22.863281 4.378906 -22.757812 3.859375 -22.9375 C 3.335938 -23.113281 2.929688 -23.441406 2.640625 -23.921875 C 2.359375 -24.398438 2.269531 -24.925781 2.375 -25.5 C 2.488281 -26.070312 2.875 -26.566406 3.53125 -26.984375 C 5.9375 -28.535156 8.695312 -29.3125 11.8125 -29.3125 C 14.8125 -29.3125 17.144531 -28.632812 18.8125 -27.28125 C 20.476562 -25.925781 21.3125 -24.046875 21.3125 -21.640625 C 21.3125 -20.085938 20.914062 -18.722656 20.125 -17.546875 C 19.332031 -16.367188 18.253906 -15.519531 16.890625 -15 C 18.554688 -14.539062 19.851562 -13.6875 20.78125 -12.4375 C 21.71875 -11.195312 22.1875 -9.6875 22.1875 -7.90625 C 22.1875 -5.34375 21.253906 -3.316406 19.390625 -1.828125 C 17.535156 -0.335938 14.976562 0.40625 11.71875 0.40625 Z M 11.71875 0.40625" transform="translate(284.72 309.842)"/></g></g></g><g fill="#FAB164"><g><g><path d="M 12.296875 0.40625 C 8.878906 0.40625 6.269531 -0.882812 4.46875 -3.46875 C 2.664062 -6.050781 1.765625 -9.734375 1.765625 -14.515625 C 1.765625 -19.347656 2.664062 -23.019531 4.46875 -25.53125 C 6.269531 -28.050781 8.878906 -29.3125 12.296875 -29.3125 C 15.742188 -29.3125 18.363281 -28.050781 20.15625 -25.53125 C 21.945312 -23.019531 22.84375 -19.363281 22.84375 -14.5625 C 22.84375 -9.75 21.9375 -6.050781 20.125 -3.46875 C 18.320312 -0.882812 15.710938 0.40625 12.296875 0.40625 Z M 12.296875 -3.890625 C 14.160156 -3.890625 15.535156 -4.75 16.421875 -6.46875 C 17.304688 -8.195312 17.75 -10.894531 17.75 -14.5625 C 17.75 -18.21875 17.304688 -20.875 16.421875 -22.53125 C 15.535156 -24.1875 14.160156 -25.015625 12.296875 -25.015625 C 10.460938 -25.015625 9.09375 -24.1875 8.1875 -22.53125 C 7.289062 -20.875 6.84375 -18.21875 6.84375 -14.5625 C 6.84375 -10.894531 7.289062 -8.195312 8.1875 -6.46875 C 9.09375 -4.75 10.460938 -3.890625 12.296875 -3.890625 Z M 12.296875 -3.890625" transform="translate(309.316 309.842)"/></g></g></g><g fill="#FAB164"><g><g><path d="M 4.546875 -8.9375 C 3.953125 -8.9375 3.453125 -9.132812 3.046875 -9.53125 C 2.648438 -9.925781 2.453125 -10.410156 2.453125 -10.984375 C 2.453125 -11.585938 2.648438 -12.078125 3.046875 -12.453125 C 3.453125 -12.835938 3.953125 -13.03125 4.546875 -13.03125 L 13.28125 -13.03125 C 13.851562 -13.03125 14.335938 -12.835938 14.734375 -12.453125 C 15.128906 -12.078125 15.328125 -11.585938 15.328125 -10.984375 C 15.328125 -10.410156 15.128906 -9.925781 14.734375 -9.53125 C 14.335938 -9.132812 13.851562 -8.9375 13.28125 -8.9375 Z M 4.546875 -8.9375" transform="translate(333.911 309.842)"/></g></g></g><g fill="#FAB164"><g><g><path d="M 5.9375 0 C 4.082031 0 3.15625 -0.925781 3.15625 -2.78125 L 3.15625 -26.109375 C 3.15625 -27.972656 4.082031 -28.90625 5.9375 -28.90625 L 13.90625 -28.90625 C 18.738281 -28.90625 22.472656 -27.660156 25.109375 -25.171875 C 27.742188 -22.679688 29.0625 -19.113281 29.0625 -14.46875 C 29.0625 -9.851562 27.742188 -6.285156 25.109375 -3.765625 C 22.472656 -1.253906 18.738281 0 13.90625 0 Z M 8.40625 -4.34375 L 13.578125 -4.34375 C 20.242188 -4.34375 23.578125 -7.71875 23.578125 -14.46875 C 23.578125 -21.195312 20.242188 -24.5625 13.578125 -24.5625 L 8.40625 -24.5625 Z M 8.40625 -4.34375" transform="translate(351.702 309.842)"/></g></g></g><g fill="#FAB164"><g><g><path d="M 3.4375 0.328125 C 2.488281 0.328125 1.804688 0 1.390625 -0.65625 C 0.984375 -1.3125 1 -2.101562 1.4375 -3.03125 L 12.265625 -27.015625 C 12.617188 -27.804688 13.046875 -28.375 13.546875 -28.71875 C 14.054688 -29.0625 14.640625 -29.234375 15.296875 -29.234375 C 15.921875 -29.234375 16.484375 -29.0625 16.984375 -28.71875 C 17.492188 -28.375 17.925781 -27.804688 18.28125 -27.015625 L 29.15625 -3.03125 C 29.59375 -2.070312 29.617188 -1.269531 29.234375 -0.625 C 28.847656 0.0078125 28.191406 0.328125 27.265625 0.328125 C 26.492188 0.328125 25.894531 0.144531 25.46875 -0.21875 C 25.050781 -0.59375 24.679688 -1.160156 24.359375 -1.921875 L 22.296875 -6.6875 L 8.203125 -6.6875 L 6.1875 -1.921875 C 5.832031 -1.128906 5.460938 -0.554688 5.078125 -0.203125 C 4.703125 0.148438 4.15625 0.328125 3.4375 0.328125 Z M 15.21875 -23.203125 L 10 -10.859375 L 20.5 -10.859375 L 15.296875 -23.203125 Z M 15.21875 -23.203125" transform="translate(382.938 309.842)"/></g></g></g><g fill="#FAB164"><g><g><path d="M 12.671875 0.328125 C 10.921875 0.328125 10.046875 -0.585938 10.046875 -2.421875 L 10.046875 -13.28125 L 1.265625 -25.625 C 0.910156 -26.113281 0.753906 -26.640625 0.796875 -27.203125 C 0.835938 -27.765625 1.0625 -28.242188 1.46875 -28.640625 C 1.882812 -29.035156 2.460938 -29.234375 3.203125 -29.234375 C 4.265625 -29.234375 5.191406 -28.671875 5.984375 -27.546875 L 12.75 -17.953125 L 19.5625 -27.546875 C 20 -28.148438 20.421875 -28.582031 20.828125 -28.84375 C 21.234375 -29.101562 21.738281 -29.234375 22.34375 -29.234375 C 23.40625 -29.234375 24.109375 -28.84375 24.453125 -28.0625 C 24.796875 -27.28125 24.65625 -26.453125 24.03125 -25.578125 L 15.296875 -13.25 L 15.296875 -2.421875 C 15.296875 -0.585938 14.421875 0.328125 12.671875 0.328125 Z M 12.671875 0.328125" transform="translate(413.436 309.842)"/></g></g></g><g fill="#FAB164"><g><g><path d="M 5.78125 0.328125 C 4.03125 0.328125 3.15625 -0.570312 3.15625 -2.375 L 3.15625 -26.234375 C 3.15625 -28.015625 4.046875 -28.90625 5.828125 -28.90625 L 15.703125 -28.90625 C 18.867188 -28.90625 21.3125 -28.144531 23.03125 -26.625 C 24.757812 -25.113281 25.625 -22.988281 25.625 -20.25 C 25.625 -18.09375 25.0625 -16.3125 23.9375 -14.90625 C 22.820312 -13.5 21.210938 -12.546875 19.109375 -12.046875 C 20.503906 -11.609375 21.648438 -10.554688 22.546875 -8.890625 L 25.625 -3.203125 C 26.09375 -2.328125 26.179688 -1.519531 25.890625 -0.78125 C 25.597656 -0.0390625 24.894531 0.328125 23.78125 0.328125 C 23.039062 0.328125 22.4375 0.171875 21.96875 -0.140625 C 21.507812 -0.453125 21.101562 -0.9375 20.75 -1.59375 L 16.609375 -9.21875 C 16.109375 -10.15625 15.523438 -10.78125 14.859375 -11.09375 C 14.191406 -11.40625 13.335938 -11.5625 12.296875 -11.5625 L 8.40625 -11.5625 L 8.40625 -2.375 C 8.40625 -0.570312 7.53125 0.328125 5.78125 0.328125 Z M 8.40625 -15.453125 L 14.796875 -15.453125 C 18.628906 -15.453125 20.546875 -17.007812 20.546875 -20.125 C 20.546875 -23.21875 18.628906 -24.765625 14.796875 -24.765625 L 8.40625 -24.765625 Z M 8.40625 -15.453125" transform="translate(449.878 309.842)"/></g></g></g><g fill="#FAB164"><g><g><path d="M 5.9375 0 C 4.082031 0 3.15625 -0.925781 3.15625 -2.78125 L 3.15625 -26.109375 C 3.15625 -27.972656 4.082031 -28.90625 5.9375 -28.90625 L 20.578125 -28.90625 C 22.003906 -28.90625 22.71875 -28.222656 22.71875 -26.859375 C 22.71875 -25.429688 22.003906 -24.71875 20.578125 -24.71875 L 8.203125 -24.71875 L 8.203125 -16.765625 L 19.6875 -16.765625 C 21.101562 -16.765625 21.8125 -16.066406 21.8125 -14.671875 C 21.8125 -13.285156 21.101562 -12.59375 19.6875 -12.59375 L 8.203125 -12.59375 L 8.203125 -4.1875 L 20.578125 -4.1875 C 22.003906 -4.1875 22.71875 -3.488281 22.71875 -2.09375 C 22.71875 -0.695312 22.003906 0 20.578125 0 Z M 5.9375 0" transform="translate(477.999 309.842)"/></g></g></g><g fill="#FAB164"><g><g><path d="M 5.859375 0.328125 C 4.054688 0.328125 3.15625 -0.597656 3.15625 -2.453125 L 3.15625 -26.109375 C 3.15625 -27.972656 4.082031 -28.90625 5.9375 -28.90625 L 20.25 -28.90625 C 21.675781 -28.90625 22.390625 -28.222656 22.390625 -26.859375 C 22.390625 -25.429688 21.675781 -24.71875 20.25 -24.71875 L 8.40625 -24.71875 L 8.40625 -16.5625 L 19.390625 -16.5625 C 20.816406 -16.5625 21.53125 -15.878906 21.53125 -14.515625 C 21.53125 -13.085938 20.816406 -12.375 19.390625 -12.375 L 8.40625 -12.375 L 8.40625 -2.453125 C 8.40625 -0.597656 7.554688 0.328125 5.859375 0.328125 Z M 5.859375 0.328125" transform="translate(502.471 309.842)"/></g></g></g><g fill="#FAB164"><g><g><path d="M 15.171875 0.40625 C 11.203125 0.40625 8.171875 -0.625 6.078125 -2.6875 C 3.992188 -4.75 2.953125 -7.800781 2.953125 -11.84375 L 2.953125 -26.5625 C 2.953125 -28.34375 3.828125 -29.234375 5.578125 -29.234375 C 7.328125 -29.234375 8.203125 -28.34375 8.203125 -26.5625 L 8.203125 -11.890625 C 8.203125 -9.296875 8.796875 -7.347656 9.984375 -6.046875 C 11.171875 -4.742188 12.898438 -4.09375 15.171875 -4.09375 C 19.785156 -4.09375 22.09375 -6.691406 22.09375 -11.890625 L 22.09375 -26.5625 C 22.09375 -28.34375 22.96875 -29.234375 24.71875 -29.234375 C 26.445312 -29.234375 27.3125 -28.34375 27.3125 -26.5625 L 27.3125 -11.84375 C 27.3125 -7.800781 26.285156 -4.75 24.234375 -2.6875 C 22.179688 -0.625 19.160156 0.40625 15.171875 0.40625 Z M 15.171875 0.40625" transform="translate(525.509 309.842)"/></g></g></g><g fill="#FAB164"><g><g><path d="M 5.609375 0.328125 C 3.972656 0.328125 3.15625 -0.519531 3.15625 -2.21875 L 3.15625 -26.609375 C 3.15625 -27.453125 3.363281 -28.097656 3.78125 -28.546875 C 4.207031 -29.003906 4.765625 -29.234375 5.453125 -29.234375 C 6.078125 -29.234375 6.546875 -29.113281 6.859375 -28.875 C 7.179688 -28.644531 7.5625 -28.257812 8 -27.71875 L 22.625 -8.734375 L 22.625 -26.734375 C 22.625 -28.398438 23.445312 -29.234375 25.09375 -29.234375 C 26.707031 -29.234375 27.515625 -28.398438 27.515625 -26.734375 L 27.515625 -2.125 C 27.515625 -1.363281 27.320312 -0.765625 26.9375 -0.328125 C 26.550781 0.109375 26.03125 0.328125 25.375 0.328125 C 24.75 0.328125 24.25 0.207031 23.875 -0.03125 C 23.507812 -0.28125 23.109375 -0.679688 22.671875 -1.234375 L 8.03125 -20.25 L 8.03125 -2.21875 C 8.03125 -0.519531 7.222656 0.328125 5.609375 0.328125 Z M 5.609375 0.328125" transform="translate(555.761 309.842)"/></g></g></g><g fill="#FAB164"><g><g><path d="M 5.9375 0 C 4.082031 0 3.15625 -0.925781 3.15625 -2.78125 L 3.15625 -26.109375 C 3.15625 -27.972656 4.082031 -28.90625 5.9375 -28.90625 L 13.90625 -28.90625 C 18.738281 -28.90625 22.472656 -27.660156 25.109375 -25.171875 C 27.742188 -22.679688 29.0625 -19.113281 29.0625 -14.46875 C 29.0625 -9.851562 27.742188 -6.285156 25.109375 -3.765625 C 22.472656 -1.253906 18.738281 0 13.90625 0 Z M 8.40625 -4.34375 L 13.578125 -4.34375 C 20.242188 -4.34375 23.578125 -7.71875 23.578125 -14.46875 C 23.578125 -21.195312 20.242188 -24.5625 13.578125 -24.5625 L 8.40625 -24.5625 Z M 8.40625 -4.34375" transform="translate(586.423 309.842)"/></g></g></g><g fill="#FAB164"><g><g><path d="M 5.78125 0.328125 C 4.03125 0.328125 3.15625 -0.570312 3.15625 -2.375 L 3.15625 -26.234375 C 3.15625 -28.015625 4.046875 -28.90625 5.828125 -28.90625 L 15.703125 -28.90625 C 18.867188 -28.90625 21.3125 -28.113281 23.03125 -26.53125 C 24.757812 -24.945312 25.625 -22.734375 25.625 -19.890625 C 25.625 -17.046875 24.757812 -14.820312 23.03125 -13.21875 C 21.3125 -11.625 18.867188 -10.828125 15.703125 -10.828125 L 8.40625 -10.828125 L 8.40625 -2.375 C 8.40625 -0.570312 7.53125 0.328125 5.78125 0.328125 Z M 8.40625 -14.96875 L 14.890625 -14.96875 C 18.660156 -14.96875 20.546875 -16.609375 20.546875 -19.890625 C 20.546875 -23.140625 18.660156 -24.765625 14.890625 -24.765625 L 8.40625 -24.765625 Z M 8.40625 -14.96875" transform="translate(628.768 309.842)"/></g></g></g><g fill="#FAB164"><g><g><path d="M 16.109375 0.40625 C 13.328125 0.40625 10.890625 -0.207031 8.796875 -1.4375 C 6.703125 -2.664062 5.082031 -4.394531 3.9375 -6.625 C 2.789062 -8.851562 2.21875 -11.46875 2.21875 -14.46875 C 2.21875 -17.507812 2.789062 -20.132812 3.9375 -22.34375 C 5.082031 -24.5625 6.691406 -26.273438 8.765625 -27.484375 C 10.847656 -28.703125 13.296875 -29.3125 16.109375 -29.3125 C 18.929688 -29.3125 21.378906 -28.703125 23.453125 -27.484375 C 25.523438 -26.273438 27.132812 -24.5625 28.28125 -22.34375 C 29.4375 -20.132812 30.015625 -17.523438 30.015625 -14.515625 C 30.015625 -11.484375 29.4375 -8.851562 28.28125 -6.625 C 27.132812 -4.394531 25.523438 -2.664062 23.453125 -1.4375 C 21.378906 -0.207031 18.929688 0.40625 16.109375 0.40625 Z M 16.109375 -4.09375 C 18.765625 -4.09375 20.828125 -5.007812 22.296875 -6.84375 C 23.773438 -8.675781 24.515625 -11.21875 24.515625 -14.46875 C 24.515625 -17.75 23.78125 -20.289062 22.3125 -22.09375 C 20.851562 -23.90625 18.785156 -24.8125 16.109375 -24.8125 C 13.460938 -24.8125 11.398438 -23.90625 9.921875 -22.09375 C 8.441406 -20.289062 7.703125 -17.75 7.703125 -14.46875 C 7.703125 -11.21875 8.441406 -8.675781 9.921875 -6.84375 C 11.398438 -5.007812 13.460938 -4.09375 16.109375 -4.09375 Z M 16.109375 -4.09375" transform="translate(655.495 309.842)"/></g></g></g><g fill="#FAB164"><g><g><path d="M 5.828125 0 C 4.046875 0 3.15625 -0.898438 3.15625 -2.703125 L 3.15625 -26.359375 C 3.15625 -28.140625 4.03125 -29.03125 5.78125 -29.03125 C 7.53125 -29.03125 8.40625 -28.140625 8.40625 -26.359375 L 8.40625 -4.46875 L 20.296875 -4.46875 C 21.828125 -4.46875 22.59375 -3.726562 22.59375 -2.25 C 22.59375 -0.75 21.828125 0 20.296875 0 Z M 5.828125 0" transform="translate(687.674 309.842)"/></g></g></g><g fill="#FAB164"><g><g><path d="M 5.78125 0.328125 C 4.03125 0.328125 3.15625 -0.570312 3.15625 -2.375 L 3.15625 -26.53125 C 3.15625 -28.332031 4.03125 -29.234375 5.78125 -29.234375 C 7.53125 -29.234375 8.40625 -28.332031 8.40625 -26.53125 L 8.40625 -2.375 C 8.40625 -0.570312 7.53125 0.328125 5.78125 0.328125 Z M 5.78125 0.328125" transform="translate(710.711 309.842)"/></g></g></g><g fill="#FAB164"><g><g><path d="M 16.609375 0.40625 C 13.597656 0.40625 11.019531 -0.195312 8.875 -1.40625 C 6.726562 -2.625 5.082031 -4.347656 3.9375 -6.578125 C 2.789062 -8.804688 2.21875 -11.4375 2.21875 -14.46875 C 2.21875 -17.507812 2.789062 -20.132812 3.9375 -22.34375 C 5.082031 -24.5625 6.726562 -26.273438 8.875 -27.484375 C 11.019531 -28.703125 13.597656 -29.3125 16.609375 -29.3125 C 18.109375 -29.3125 19.582031 -29.117188 21.03125 -28.734375 C 22.476562 -28.359375 23.75 -27.8125 24.84375 -27.09375 C 25.550781 -26.632812 25.972656 -26.082031 26.109375 -25.4375 C 26.253906 -24.800781 26.175781 -24.210938 25.875 -23.671875 C 25.570312 -23.140625 25.117188 -22.785156 24.515625 -22.609375 C 23.910156 -22.429688 23.242188 -22.585938 22.515625 -23.078125 C 21.660156 -23.628906 20.738281 -24.023438 19.75 -24.265625 C 18.769531 -24.515625 17.773438 -24.640625 16.765625 -24.640625 C 13.835938 -24.640625 11.609375 -23.757812 10.078125 -22 C 8.554688 -20.238281 7.796875 -17.726562 7.796875 -14.46875 C 7.796875 -11.21875 8.554688 -8.703125 10.078125 -6.921875 C 11.609375 -5.148438 13.835938 -4.265625 16.765625 -4.265625 C 17.804688 -4.265625 18.832031 -4.394531 19.84375 -4.65625 C 20.851562 -4.914062 21.8125 -5.316406 22.71875 -5.859375 C 23.457031 -6.328125 24.113281 -6.476562 24.6875 -6.3125 C 25.257812 -6.144531 25.6875 -5.804688 25.96875 -5.296875 C 26.257812 -4.796875 26.347656 -4.242188 26.234375 -3.640625 C 26.128906 -3.046875 25.765625 -2.515625 25.140625 -2.046875 C 24.046875 -1.253906 22.738281 -0.644531 21.21875 -0.21875 C 19.695312 0.195312 18.160156 0.40625 16.609375 0.40625 Z M 16.609375 0.40625" transform="translate(722.271 309.842)"/></g></g></g><g fill="#FAB164"><g><g><path d="M 12.671875 0.328125 C 10.921875 0.328125 10.046875 -0.585938 10.046875 -2.421875 L 10.046875 -13.28125 L 1.265625 -25.625 C 0.910156 -26.113281 0.753906 -26.640625 0.796875 -27.203125 C 0.835938 -27.765625 1.0625 -28.242188 1.46875 -28.640625 C 1.882812 -29.035156 2.460938 -29.234375 3.203125 -29.234375 C 4.265625 -29.234375 5.191406 -28.671875 5.984375 -27.546875 L 12.75 -17.953125 L 19.5625 -27.546875 C 20 -28.148438 20.421875 -28.582031 20.828125 -28.84375 C 21.234375 -29.101562 21.738281 -29.234375 22.34375 -29.234375 C 23.40625 -29.234375 24.109375 -28.84375 24.453125 -28.0625 C 24.796875 -27.28125 24.65625 -26.453125 24.03125 -25.578125 L 15.296875 -13.25 L 15.296875 -2.421875 C 15.296875 -0.585938 14.421875 0.328125 12.671875 0.328125 Z M 12.671875 0.328125" transform="translate(750.146 309.842)"/></g></g></g><g fill="#E89A7D"><g><g><path d="M 5.9375 0 C 4.082031 0 3.15625 -0.925781 3.15625 -2.78125 L 3.15625 -26.109375 C 3.15625 -27.972656 4.082031 -28.90625 5.9375 -28.90625 L 20.578125 -28.90625 C 22.003906 -28.90625 22.71875 -28.222656 22.71875 -26.859375 C 22.71875 -25.429688 22.003906 -24.71875 20.578125 -24.71875 L 8.203125 -24.71875 L 8.203125 -16.765625 L 19.6875 -16.765625 C 21.101562 -16.765625 21.8125 -16.066406 21.8125 -14.671875 C 21.8125 -13.285156 21.101562 -12.59375 19.6875 -12.59375 L 8.203125 -12.59375 L 8.203125 -4.1875 L 20.578125 -4.1875 C 22.003906 -4.1875 22.71875 -3.488281 22.71875 -2.09375 C 22.71875 -0.695312 22.003906 0 20.578125 0 Z M 5.9375 0" transform="translate(327.623 530.076)"/></g></g></g><g fill="#E89A7D"><g><g><path d="M 5.609375 0.328125 C 3.972656 0.328125 3.15625 -0.519531 3.15625 -2.21875 L 3.15625 -26.609375 C 3.15625 -27.453125 3.363281 -28.097656 3.78125 -28.546875 C 4.207031 -29.003906 4.765625 -29.234375 5.453125 -29.234375 C 6.078125 -29.234375 6.546875 -29.113281 6.859375 -28.875 C 7.179688 -28.644531 7.5625 -28.257812 8 -27.71875 L 22.625 -8.734375 L 22.625 -26.734375 C 22.625 -28.398438 23.445312 -29.234375 25.09375 -29.234375 C 26.707031 -29.234375 27.515625 -28.398438 27.515625 -26.734375 L 27.515625 -2.125 C 27.515625 -1.363281 27.320312 -0.765625 26.9375 -0.328125 C 26.550781 0.109375 26.03125 0.328125 25.375 0.328125 C 24.75 0.328125 24.25 0.207031 23.875 -0.03125 C 23.507812 -0.28125 23.109375 -0.679688 22.671875 -1.234375 L 8.03125 -20.25 L 8.03125 -2.21875 C 8.03125 -0.519531 7.222656 0.328125 5.609375 0.328125 Z M 5.609375 0.328125" transform="translate(352.095 530.076)"/></g></g></g><g fill="#E89A7D"><g><g><path d="M 14.640625 0.328125 C 13.242188 0.328125 12.242188 -0.351562 11.640625 -1.71875 L 0.9375 -25.75 C 0.5 -26.789062 0.519531 -27.628906 1 -28.265625 C 1.476562 -28.910156 2.179688 -29.234375 3.109375 -29.234375 C 3.910156 -29.234375 4.507812 -29.0625 4.90625 -28.71875 C 5.300781 -28.375 5.632812 -27.863281 5.90625 -27.1875 L 14.71875 -6.71875 L 23.53125 -27.21875 C 23.832031 -27.875 24.1875 -28.375 24.59375 -28.71875 C 25.007812 -29.0625 25.585938 -29.234375 26.328125 -29.234375 C 27.203125 -29.234375 27.863281 -28.90625 28.3125 -28.25 C 28.757812 -27.59375 28.753906 -26.757812 28.296875 -25.75 L 17.59375 -1.71875 C 17.289062 -1.039062 16.910156 -0.53125 16.453125 -0.1875 C 16.003906 0.15625 15.398438 0.328125 14.640625 0.328125 Z M 14.640625 0.328125" transform="translate(382.757 530.076)"/></g></g></g><g fill="#E89A7D"><g><g><path d="M 5.78125 0.328125 C 4.03125 0.328125 3.15625 -0.570312 3.15625 -2.375 L 3.15625 -26.53125 C 3.15625 -28.332031 4.03125 -29.234375 5.78125 -29.234375 C 7.53125 -29.234375 8.40625 -28.332031 8.40625 -26.53125 L 8.40625 -2.375 C 8.40625 -0.570312 7.53125 0.328125 5.78125 0.328125 Z M 5.78125 0.328125" transform="translate(411.985 530.076)"/></g></g></g><g fill="#E89A7D"><g><g><path d="M 5.78125 0.328125 C 4.03125 0.328125 3.15625 -0.570312 3.15625 -2.375 L 3.15625 -26.234375 C 3.15625 -28.015625 4.046875 -28.90625 5.828125 -28.90625 L 15.703125 -28.90625 C 18.867188 -28.90625 21.3125 -28.144531 23.03125 -26.625 C 24.757812 -25.113281 25.625 -22.988281 25.625 -20.25 C 25.625 -18.09375 25.0625 -16.3125 23.9375 -14.90625 C 22.820312 -13.5 21.210938 -12.546875 19.109375 -12.046875 C 20.503906 -11.609375 21.648438 -10.554688 22.546875 -8.890625 L 25.625 -3.203125 C 26.09375 -2.328125 26.179688 -1.519531 25.890625 -0.78125 C 25.597656 -0.0390625 24.894531 0.328125 23.78125 0.328125 C 23.039062 0.328125 22.4375 0.171875 21.96875 -0.140625 C 21.507812 -0.453125 21.101562 -0.9375 20.75 -1.59375 L 16.609375 -9.21875 C 16.109375 -10.15625 15.523438 -10.78125 14.859375 -11.09375 C 14.191406 -11.40625 13.335938 -11.5625 12.296875 -11.5625 L 8.40625 -11.5625 L 8.40625 -2.375 C 8.40625 -0.570312 7.53125 0.328125 5.78125 0.328125 Z M 8.40625 -15.453125 L 14.796875 -15.453125 C 18.628906 -15.453125 20.546875 -17.007812 20.546875 -20.125 C 20.546875 -23.21875 18.628906 -24.765625 14.796875 -24.765625 L 8.40625 -24.765625 Z M 8.40625 -15.453125" transform="translate(423.545 530.076)"/></g></g></g><g fill="#E89A7D"><g><g><path d="M 16.109375 0.40625 C 13.328125 0.40625 10.890625 -0.207031 8.796875 -1.4375 C 6.703125 -2.664062 5.082031 -4.394531 3.9375 -6.625 C 2.789062 -8.851562 2.21875 -11.46875 2.21875 -14.46875 C 2.21875 -17.507812 2.789062 -20.132812 3.9375 -22.34375 C 5.082031 -24.5625 6.691406 -26.273438 8.765625 -27.484375 C 10.847656 -28.703125 13.296875 -29.3125 16.109375 -29.3125 C 18.929688 -29.3125 21.378906 -28.703125 23.453125 -27.484375 C 25.523438 -26.273438 27.132812 -24.5625 28.28125 -22.34375 C 29.4375 -20.132812 30.015625 -17.523438 30.015625 -14.515625 C 30.015625 -11.484375 29.4375 -8.851562 28.28125 -6.625 C 27.132812 -4.394531 25.523438 -2.664062 23.453125 -1.4375 C 21.378906 -0.207031 18.929688 0.40625 16.109375 0.40625 Z M 16.109375 -4.09375 C 18.765625 -4.09375 20.828125 -5.007812 22.296875 -6.84375 C 23.773438 -8.675781 24.515625 -11.21875 24.515625 -14.46875 C 24.515625 -17.75 23.78125 -20.289062 22.3125 -22.09375 C 20.851562 -23.90625 18.785156 -24.8125 16.109375 -24.8125 C 13.460938 -24.8125 11.398438 -23.90625 9.921875 -22.09375 C 8.441406 -20.289062 7.703125 -17.75 7.703125 -14.46875 C 7.703125 -11.21875 8.441406 -8.675781 9.921875 -6.84375 C 11.398438 -5.007812 13.460938 -4.09375 16.109375 -4.09375 Z M 16.109375 -4.09375" transform="translate(451.665 530.076)"/></g></g></g><g fill="#E89A7D"><g><g><path d="M 5.609375 0.328125 C 3.972656 0.328125 3.15625 -0.519531 3.15625 -2.21875 L 3.15625 -26.609375 C 3.15625 -27.453125 3.363281 -28.097656 3.78125 -28.546875 C 4.207031 -29.003906 4.765625 -29.234375 5.453125 -29.234375 C 6.078125 -29.234375 6.546875 -29.113281 6.859375 -28.875 C 7.179688 -28.644531 7.5625 -28.257812 8 -27.71875 L 22.625 -8.734375 L 22.625 -26.734375 C 22.625 -28.398438 23.445312 -29.234375 25.09375 -29.234375 C 26.707031 -29.234375 27.515625 -28.398438 27.515625 -26.734375 L 27.515625 -2.125 C 27.515625 -1.363281 27.320312 -0.765625 26.9375 -0.328125 C 26.550781 0.109375 26.03125 0.328125 25.375 0.328125 C 24.75 0.328125 24.25 0.207031 23.875 -0.03125 C 23.507812 -0.28125 23.109375 -0.679688 22.671875 -1.234375 L 8.03125 -20.25 L 8.03125 -2.21875 C 8.03125 -0.519531 7.222656 0.328125 5.609375 0.328125 Z M 5.609375 0.328125" transform="translate(483.844 530.076)"/></g></g></g><g fill="#E89A7D"><g><g><path d="M 5.609375 0.328125 C 4.023438 0.328125 3.234375 -0.488281 3.234375 -2.125 L 3.234375 -26.765625 C 3.234375 -28.410156 4.054688 -29.234375 5.703125 -29.234375 C 6.378906 -29.234375 6.914062 -29.101562 7.3125 -28.84375 C 7.707031 -28.582031 8.070312 -28.140625 8.40625 -27.515625 L 17.875 -10 L 27.34375 -27.515625 C 27.675781 -28.140625 28.03125 -28.582031 28.40625 -28.84375 C 28.789062 -29.101562 29.328125 -29.234375 30.015625 -29.234375 C 31.597656 -29.234375 32.390625 -28.410156 32.390625 -26.765625 L 32.390625 -2.125 C 32.390625 -0.488281 31.597656 0.328125 30.015625 0.328125 C 28.429688 0.328125 27.640625 -0.488281 27.640625 -2.125 L 27.640625 -19.46875 L 19.921875 -5.40625 C 19.648438 -4.945312 19.363281 -4.609375 19.0625 -4.390625 C 18.757812 -4.171875 18.347656 -4.0625 17.828125 -4.0625 C 17.316406 -4.0625 16.894531 -4.175781 16.5625 -4.40625 C 16.238281 -4.632812 15.953125 -4.96875 15.703125 -5.40625 L 8 -19.390625 L 8 -2.125 C 8 -0.488281 7.203125 0.328125 5.609375 0.328125 Z M 5.609375 0.328125" transform="translate(514.506 530.076)"/></g></g></g><g fill="#E89A7D"><g><g><path d="M 5.9375 0 C 4.082031 0 3.15625 -0.925781 3.15625 -2.78125 L 3.15625 -26.109375 C 3.15625 -27.972656 4.082031 -28.90625 5.9375 -28.90625 L 20.578125 -28.90625 C 22.003906 -28.90625 22.71875 -28.222656 22.71875 -26.859375 C 22.71875 -25.429688 22.003906 -24.71875 20.578125 -24.71875 L 8.203125 -24.71875 L 8.203125 -16.765625 L 19.6875 -16.765625 C 21.101562 -16.765625 21.8125 -16.066406 21.8125 -14.671875 C 21.8125 -13.285156 21.101562 -12.59375 19.6875 -12.59375 L 8.203125 -12.59375 L 8.203125 -4.1875 L 20.578125 -4.1875 C 22.003906 -4.1875 22.71875 -3.488281 22.71875 -2.09375 C 22.71875 -0.695312 22.003906 0 20.578125 0 Z M 5.9375 0" transform="translate(550.088 530.076)"/></g></g></g><g fill="#E89A7D"><g><g><path d="M 5.609375 0.328125 C 3.972656 0.328125 3.15625 -0.519531 3.15625 -2.21875 L 3.15625 -26.609375 C 3.15625 -27.453125 3.363281 -28.097656 3.78125 -28.546875 C 4.207031 -29.003906 4.765625 -29.234375 5.453125 -29.234375 C 6.078125 -29.234375 6.546875 -29.113281 6.859375 -28.875 C 7.179688 -28.644531 7.5625 -28.257812 8 -27.71875 L 22.625 -8.734375 L 22.625 -26.734375 C 22.625 -28.398438 23.445312 -29.234375 25.09375 -29.234375 C 26.707031 -29.234375 27.515625 -28.398438 27.515625 -26.734375 L 27.515625 -2.125 C 27.515625 -1.363281 27.320312 -0.765625 26.9375 -0.328125 C 26.550781 0.109375 26.03125 0.328125 25.375 0.328125 C 24.75 0.328125 24.25 0.207031 23.875 -0.03125 C 23.507812 -0.28125 23.109375 -0.679688 22.671875 -1.234375 L 8.03125 -20.25 L 8.03125 -2.21875 C 8.03125 -0.519531 7.222656 0.328125 5.609375 0.328125 Z M 5.609375 0.328125" transform="translate(574.56 530.076)"/></g></g></g><g fill="#E89A7D"><g><g><path d="M 12.75 0.328125 C 11 0.328125 10.125 -0.570312 10.125 -2.375 L 10.125 -24.515625 L 2.125 -24.515625 C 0.625 -24.515625 -0.125 -25.253906 -0.125 -26.734375 C -0.125 -28.179688 0.625 -28.90625 2.125 -28.90625 L 23.375 -28.90625 C 24.875 -28.90625 25.625 -28.179688 25.625 -26.734375 C 25.625 -25.253906 24.875 -24.515625 23.375 -24.515625 L 15.375 -24.515625 L 15.375 -2.375 C 15.375 -0.570312 14.5 0.328125 12.75 0.328125 Z M 12.75 0.328125" transform="translate(605.222 530.076)"/></g></g></g><g fill="#E89A7D"><g><g><path d="M 3.4375 0.328125 C 2.488281 0.328125 1.804688 0 1.390625 -0.65625 C 0.984375 -1.3125 1 -2.101562 1.4375 -3.03125 L 12.265625 -27.015625 C 12.617188 -27.804688 13.046875 -28.375 13.546875 -28.71875 C 14.054688 -29.0625 14.640625 -29.234375 15.296875 -29.234375 C 15.921875 -29.234375 16.484375 -29.0625 16.984375 -28.71875 C 17.492188 -28.375 17.925781 -27.804688 18.28125 -27.015625 L 29.15625 -3.03125 C 29.59375 -2.070312 29.617188 -1.269531 29.234375 -0.625 C 28.847656 0.0078125 28.191406 0.328125 27.265625 0.328125 C 26.492188 0.328125 25.894531 0.144531 25.46875 -0.21875 C 25.050781 -0.59375 24.679688 -1.160156 24.359375 -1.921875 L 22.296875 -6.6875 L 8.203125 -6.6875 L 6.1875 -1.921875 C 5.832031 -1.128906 5.460938 -0.554688 5.078125 -0.203125 C 4.703125 0.148438 4.15625 0.328125 3.4375 0.328125 Z M 15.21875 -23.203125 L 10 -10.859375 L 20.5 -10.859375 L 15.296875 -23.203125 Z M 15.21875 -23.203125" transform="translate(630.678 530.076)"/></g></g></g><g fill="#E89A7D"><g><g><path d="M 5.828125 0 C 4.046875 0 3.15625 -0.898438 3.15625 -2.703125 L 3.15625 -26.359375 C 3.15625 -28.140625 4.03125 -29.03125 5.78125 -29.03125 C 7.53125 -29.03125 8.40625 -28.140625 8.40625 -26.359375 L 8.40625 -4.46875 L 20.296875 -4.46875 C 21.828125 -4.46875 22.59375 -3.726562 22.59375 -2.25 C 22.59375 -0.75 21.828125 0 20.296875 0 Z M 5.828125 0" transform="translate(661.176 530.076)"/></g></g></g><g fill="#E89A7D"><g><g><path d="M 5.828125 0 C 4.046875 0 3.15625 -0.898438 3.15625 -2.703125 L 3.15625 -26.359375 C 3.15625 -28.140625 4.03125 -29.03125 5.78125 -29.03125 C 7.53125 -29.03125 8.40625 -28.140625 8.40625 -26.359375 L 8.40625 -4.46875 L 20.296875 -4.46875 C 21.828125 -4.46875 22.59375 -3.726562 22.59375 -2.25 C 22.59375 -0.75 21.828125 0 20.296875 0 Z M 5.828125 0" transform="translate(684.214 530.076)"/></g></g></g><g fill="#E89A7D"><g><g><path d="M 12.671875 0.328125 C 10.921875 0.328125 10.046875 -0.585938 10.046875 -2.421875 L 10.046875 -13.28125 L 1.265625 -25.625 C 0.910156 -26.113281 0.753906 -26.640625 0.796875 -27.203125 C 0.835938 -27.765625 1.0625 -28.242188 1.46875 -28.640625 C 1.882812 -29.035156 2.460938 -29.234375 3.203125 -29.234375 C 4.265625 -29.234375 5.191406 -28.671875 5.984375 -27.546875 L 12.75 -17.953125 L 19.5625 -27.546875 C 20 -28.148438 20.421875 -28.582031 20.828125 -28.84375 C 21.234375 -29.101562 21.738281 -29.234375 22.34375 -29.234375 C 23.40625 -29.234375 24.109375 -28.84375 24.453125 -28.0625 C 24.796875 -27.28125 24.65625 -26.453125 24.03125 -25.578125 L 15.296875 -13.25 L 15.296875 -2.421875 C 15.296875 -0.585938 14.421875 0.328125 12.671875 0.328125 Z M 12.671875 0.328125" transform="translate(707.252 530.076)"/></g></g></g><g fill="#E89A7D"><g><g><path d="M 13.125 0.40625 C 11.289062 0.40625 9.503906 0.203125 7.765625 -0.203125 C 6.035156 -0.609375 4.523438 -1.222656 3.234375 -2.046875 C 2.609375 -2.460938 2.226562 -2.96875 2.09375 -3.5625 C 1.957031 -4.164062 2.003906 -4.734375 2.234375 -5.265625 C 2.460938 -5.796875 2.828125 -6.164062 3.328125 -6.375 C 3.835938 -6.582031 4.421875 -6.476562 5.078125 -6.0625 C 6.285156 -5.351562 7.554688 -4.832031 8.890625 -4.5 C 10.234375 -4.175781 11.644531 -4.015625 13.125 -4.015625 C 15.28125 -4.015625 16.847656 -4.375 17.828125 -5.09375 C 18.816406 -5.820312 19.3125 -6.757812 19.3125 -7.90625 C 19.3125 -8.863281 18.960938 -9.613281 18.265625 -10.15625 C 17.566406 -10.707031 16.367188 -11.160156 14.671875 -11.515625 L 10.171875 -12.46875 C 5.023438 -13.5625 2.453125 -16.195312 2.453125 -20.375 C 2.453125 -22.175781 2.929688 -23.742188 3.890625 -25.078125 C 4.847656 -26.421875 6.171875 -27.460938 7.859375 -28.203125 C 9.554688 -28.941406 11.515625 -29.3125 13.734375 -29.3125 C 15.367188 -29.3125 16.925781 -29.101562 18.40625 -28.6875 C 19.882812 -28.28125 21.210938 -27.679688 22.390625 -26.890625 C 22.929688 -26.515625 23.253906 -26.046875 23.359375 -25.484375 C 23.472656 -24.921875 23.40625 -24.398438 23.15625 -23.921875 C 22.914062 -23.441406 22.53125 -23.113281 22 -22.9375 C 21.46875 -22.757812 20.84375 -22.875 20.125 -23.28125 C 19.113281 -23.863281 18.085938 -24.273438 17.046875 -24.515625 C 16.015625 -24.765625 14.894531 -24.890625 13.6875 -24.890625 C 11.800781 -24.890625 10.328125 -24.492188 9.265625 -23.703125 C 8.203125 -22.910156 7.671875 -21.867188 7.671875 -20.578125 C 7.671875 -19.597656 8 -18.8125 8.65625 -18.21875 C 9.3125 -17.632812 10.429688 -17.175781 12.015625 -16.84375 L 16.484375 -15.90625 C 19.191406 -15.332031 21.207031 -14.429688 22.53125 -13.203125 C 23.851562 -11.972656 24.515625 -10.332031 24.515625 -8.28125 C 24.515625 -6.5625 24.050781 -5.046875 23.125 -3.734375 C 22.195312 -2.421875 20.878906 -1.398438 19.171875 -0.671875 C 17.460938 0.046875 15.445312 0.40625 13.125 0.40625 Z M 13.125 0.40625" transform="translate(269.685 587.076)"/></g></g></g><g fill="#E89A7D"><g><g><path d="M 15.171875 0.40625 C 11.203125 0.40625 8.171875 -0.625 6.078125 -2.6875 C 3.992188 -4.75 2.953125 -7.800781 2.953125 -11.84375 L 2.953125 -26.5625 C 2.953125 -28.34375 3.828125 -29.234375 5.578125 -29.234375 C 7.328125 -29.234375 8.203125 -28.34375 8.203125 -26.5625 L 8.203125 -11.890625 C 8.203125 -9.296875 8.796875 -7.347656 9.984375 -6.046875 C 11.171875 -4.742188 12.898438 -4.09375 15.171875 -4.09375 C 19.785156 -4.09375 22.09375 -6.691406 22.09375 -11.890625 L 22.09375 -26.5625 C 22.09375 -28.34375 22.96875 -29.234375 24.71875 -29.234375 C 26.445312 -29.234375 27.3125 -28.34375 27.3125 -26.5625 L 27.3125 -11.84375 C 27.3125 -7.800781 26.285156 -4.75 24.234375 -2.6875 C 22.179688 -0.625 19.160156 0.40625 15.171875 0.40625 Z M 15.171875 0.40625" transform="translate(295.552 587.076)"/></g></g></g><g fill="#E89A7D"><g><g><path d="M 13.125 0.40625 C 11.289062 0.40625 9.503906 0.203125 7.765625 -0.203125 C 6.035156 -0.609375 4.523438 -1.222656 3.234375 -2.046875 C 2.609375 -2.460938 2.226562 -2.96875 2.09375 -3.5625 C 1.957031 -4.164062 2.003906 -4.734375 2.234375 -5.265625 C 2.460938 -5.796875 2.828125 -6.164062 3.328125 -6.375 C 3.835938 -6.582031 4.421875 -6.476562 5.078125 -6.0625 C 6.285156 -5.351562 7.554688 -4.832031 8.890625 -4.5 C 10.234375 -4.175781 11.644531 -4.015625 13.125 -4.015625 C 15.28125 -4.015625 16.847656 -4.375 17.828125 -5.09375 C 18.816406 -5.820312 19.3125 -6.757812 19.3125 -7.90625 C 19.3125 -8.863281 18.960938 -9.613281 18.265625 -10.15625 C 17.566406 -10.707031 16.367188 -11.160156 14.671875 -11.515625 L 10.171875 -12.46875 C 5.023438 -13.5625 2.453125 -16.195312 2.453125 -20.375 C 2.453125 -22.175781 2.929688 -23.742188 3.890625 -25.078125 C 4.847656 -26.421875 6.171875 -27.460938 7.859375 -28.203125 C 9.554688 -28.941406 11.515625 -29.3125 13.734375 -29.3125 C 15.367188 -29.3125 16.925781 -29.101562 18.40625 -28.6875 C 19.882812 -28.28125 21.210938 -27.679688 22.390625 -26.890625 C 22.929688 -26.515625 23.253906 -26.046875 23.359375 -25.484375 C 23.472656 -24.921875 23.40625 -24.398438 23.15625 -23.921875 C 22.914062 -23.441406 22.53125 -23.113281 22 -22.9375 C 21.46875 -22.757812 20.84375 -22.875 20.125 -23.28125 C 19.113281 -23.863281 18.085938 -24.273438 17.046875 -24.515625 C 16.015625 -24.765625 14.894531 -24.890625 13.6875 -24.890625 C 11.800781 -24.890625 10.328125 -24.492188 9.265625 -23.703125 C 8.203125 -22.910156 7.671875 -21.867188 7.671875 -20.578125 C 7.671875 -19.597656 8 -18.8125 8.65625 -18.21875 C 9.3125 -17.632812 10.429688 -17.175781 12.015625 -16.84375 L 16.484375 -15.90625 C 19.191406 -15.332031 21.207031 -14.429688 22.53125 -13.203125 C 23.851562 -11.972656 24.515625 -10.332031 24.515625 -8.28125 C 24.515625 -6.5625 24.050781 -5.046875 23.125 -3.734375 C 22.195312 -2.421875 20.878906 -1.398438 19.171875 -0.671875 C 17.460938 0.046875 15.445312 0.40625 13.125 0.40625 Z M 13.125 0.40625" transform="translate(325.804 587.076)"/></g></g></g><g fill="#E89A7D"><g><g><path d="M 12.75 0.328125 C 11 0.328125 10.125 -0.570312 10.125 -2.375 L 10.125 -24.515625 L 2.125 -24.515625 C 0.625 -24.515625 -0.125 -25.253906 -0.125 -26.734375 C -0.125 -28.179688 0.625 -28.90625 2.125 -28.90625 L 23.375 -28.90625 C 24.875 -28.90625 25.625 -28.179688 25.625 -26.734375 C 25.625 -25.253906 24.875 -24.515625 23.375 -24.515625 L 15.375 -24.515625 L 15.375 -2.375 C 15.375 -0.570312 14.5 0.328125 12.75 0.328125 Z M 12.75 0.328125" transform="translate(351.67 587.076)"/></g></g></g><g fill="#E89A7D"><g><g><path d="M 3.4375 0.328125 C 2.488281 0.328125 1.804688 0 1.390625 -0.65625 C 0.984375 -1.3125 1 -2.101562 1.4375 -3.03125 L 12.265625 -27.015625 C 12.617188 -27.804688 13.046875 -28.375 13.546875 -28.71875 C 14.054688 -29.0625 14.640625 -29.234375 15.296875 -29.234375 C 15.921875 -29.234375 16.484375 -29.0625 16.984375 -28.71875 C 17.492188 -28.375 17.925781 -27.804688 18.28125 -27.015625 L 29.15625 -3.03125 C 29.59375 -2.070312 29.617188 -1.269531 29.234375 -0.625 C 28.847656 0.0078125 28.191406 0.328125 27.265625 0.328125 C 26.492188 0.328125 25.894531 0.144531 25.46875 -0.21875 C 25.050781 -0.59375 24.679688 -1.160156 24.359375 -1.921875 L 22.296875 -6.6875 L 8.203125 -6.6875 L 6.1875 -1.921875 C 5.832031 -1.128906 5.460938 -0.554688 5.078125 -0.203125 C 4.703125 0.148438 4.15625 0.328125 3.4375 0.328125 Z M 15.21875 -23.203125 L 10 -10.859375 L 20.5 -10.859375 L 15.296875 -23.203125 Z M 15.21875 -23.203125" transform="translate(377.126 587.076)"/></g></g></g><g fill="#E89A7D"><g><g><path d="M 5.78125 0.328125 C 4.03125 0.328125 3.15625 -0.570312 3.15625 -2.375 L 3.15625 -26.53125 C 3.15625 -28.332031 4.03125 -29.234375 5.78125 -29.234375 C 7.53125 -29.234375 8.40625 -28.332031 8.40625 -26.53125 L 8.40625 -2.375 C 8.40625 -0.570312 7.53125 0.328125 5.78125 0.328125 Z M 5.78125 0.328125" transform="translate(407.624 587.076)"/></g></g></g><g fill="#E89A7D"><g><g><path d="M 5.609375 0.328125 C 3.972656 0.328125 3.15625 -0.519531 3.15625 -2.21875 L 3.15625 -26.609375 C 3.15625 -27.453125 3.363281 -28.097656 3.78125 -28.546875 C 4.207031 -29.003906 4.765625 -29.234375 5.453125 -29.234375 C 6.078125 -29.234375 6.546875 -29.113281 6.859375 -28.875 C 7.179688 -28.644531 7.5625 -28.257812 8 -27.71875 L 22.625 -8.734375 L 22.625 -26.734375 C 22.625 -28.398438 23.445312 -29.234375 25.09375 -29.234375 C 26.707031 -29.234375 27.515625 -28.398438 27.515625 -26.734375 L 27.515625 -2.125 C 27.515625 -1.363281 27.320312 -0.765625 26.9375 -0.328125 C 26.550781 0.109375 26.03125 0.328125 25.375 0.328125 C 24.75 0.328125 24.25 0.207031 23.875 -0.03125 C 23.507812 -0.28125 23.109375 -0.679688 22.671875 -1.234375 L 8.03125 -20.25 L 8.03125 -2.21875 C 8.03125 -0.519531 7.222656 0.328125 5.609375 0.328125 Z M 5.609375 0.328125" transform="translate(419.184 587.076)"/></g></g></g><g fill="#E89A7D"><g><g><path d="M 3.4375 0.328125 C 2.488281 0.328125 1.804688 0 1.390625 -0.65625 C 0.984375 -1.3125 1 -2.101562 1.4375 -3.03125 L 12.265625 -27.015625 C 12.617188 -27.804688 13.046875 -28.375 13.546875 -28.71875 C 14.054688 -29.0625 14.640625 -29.234375 15.296875 -29.234375 C 15.921875 -29.234375 16.484375 -29.0625 16.984375 -28.71875 C 17.492188 -28.375 17.925781 -27.804688 18.28125 -27.015625 L 29.15625 -3.03125 C 29.59375 -2.070312 29.617188 -1.269531 29.234375 -0.625 C 28.847656 0.0078125 28.191406 0.328125 27.265625 0.328125 C 26.492188 0.328125 25.894531 0.144531 25.46875 -0.21875 C 25.050781 -0.59375 24.679688 -1.160156 24.359375 -1.921875 L 22.296875 -6.6875 L 8.203125 -6.6875 L 6.1875 -1.921875 C 5.832031 -1.128906 5.460938 -0.554688 5.078125 -0.203125 C 4.703125 0.148438 4.15625 0.328125 3.4375 0.328125 Z M 15.21875 -23.203125 L 10 -10.859375 L 20.5 -10.859375 L 15.296875 -23.203125 Z M 15.21875 -23.203125" transform="translate(449.846 587.076)"/></g></g></g><g fill="#E89A7D"><g><g><path d="M 5.9375 0 C 4.082031 0 3.15625 -0.925781 3.15625 -2.78125 L 3.15625 -26.109375 C 3.15625 -27.972656 4.082031 -28.90625 5.9375 -28.90625 L 15.78125 -28.90625 C 18.820312 -28.90625 21.175781 -28.238281 22.84375 -26.90625 C 24.507812 -25.582031 25.34375 -23.75 25.34375 -21.40625 C 25.34375 -19.84375 24.941406 -18.5 24.140625 -17.375 C 23.347656 -16.257812 22.257812 -15.441406 20.875 -14.921875 C 22.507812 -14.460938 23.785156 -13.648438 24.703125 -12.484375 C 25.617188 -11.316406 26.078125 -9.847656 26.078125 -8.078125 C 26.078125 -5.503906 25.207031 -3.515625 23.46875 -2.109375 C 21.738281 -0.703125 19.328125 0 16.234375 0 Z M 8.203125 -16.640625 L 14.890625 -16.640625 C 18.460938 -16.640625 20.25 -18.019531 20.25 -20.78125 C 20.25 -23.539062 18.460938 -24.921875 14.890625 -24.921875 L 8.203125 -24.921875 Z M 8.203125 -3.984375 L 15.578125 -3.984375 C 19.179688 -3.984375 20.984375 -5.429688 20.984375 -8.328125 C 20.984375 -11.222656 19.179688 -12.671875 15.578125 -12.671875 L 8.203125 -12.671875 Z M 8.203125 -3.984375" transform="translate(480.344 587.076)"/></g></g></g><g fill="#E89A7D"><g><g><path d="M 5.828125 0 C 4.046875 0 3.15625 -0.898438 3.15625 -2.703125 L 3.15625 -26.359375 C 3.15625 -28.140625 4.03125 -29.03125 5.78125 -29.03125 C 7.53125 -29.03125 8.40625 -28.140625 8.40625 -26.359375 L 8.40625 -4.46875 L 20.296875 -4.46875 C 21.828125 -4.46875 22.59375 -3.726562 22.59375 -2.25 C 22.59375 -0.75 21.828125 0 20.296875 0 Z M 5.828125 0" transform="translate(508.547 587.076)"/></g></g></g><g fill="#E89A7D"><g><g><path d="M 5.9375 0 C 4.082031 0 3.15625 -0.925781 3.15625 -2.78125 L 3.15625 -26.109375 C 3.15625 -27.972656 4.082031 -28.90625 5.9375 -28.90625 L 20.578125 -28.90625 C 22.003906 -28.90625 22.71875 -28.222656 22.71875 -26.859375 C 22.71875 -25.429688 22.003906 -24.71875 20.578125 -24.71875 L 8.203125 -24.71875 L 8.203125 -16.765625 L 19.6875 -16.765625 C 21.101562 -16.765625 21.8125 -16.066406 21.8125 -14.671875 C 21.8125 -13.285156 21.101562 -12.59375 19.6875 -12.59375 L 8.203125 -12.59375 L 8.203125 -4.1875 L 20.578125 -4.1875 C 22.003906 -4.1875 22.71875 -3.488281 22.71875 -2.09375 C 22.71875 -0.695312 22.003906 0 20.578125 0 Z M 5.9375 0" transform="translate(531.585 587.076)"/></g></g></g><g fill="#E89A7D"><g><g><path d="M 5.78125 0.328125 C 4.03125 0.328125 3.15625 -0.570312 3.15625 -2.375 L 3.15625 -26.234375 C 3.15625 -28.015625 4.046875 -28.90625 5.828125 -28.90625 L 15.703125 -28.90625 C 18.867188 -28.90625 21.3125 -28.113281 23.03125 -26.53125 C 24.757812 -24.945312 25.625 -22.734375 25.625 -19.890625 C 25.625 -17.046875 24.757812 -14.820312 23.03125 -13.21875 C 21.3125 -11.625 18.867188 -10.828125 15.703125 -10.828125 L 8.40625 -10.828125 L 8.40625 -2.375 C 8.40625 -0.570312 7.53125 0.328125 5.78125 0.328125 Z M 8.40625 -14.96875 L 14.890625 -14.96875 C 18.660156 -14.96875 20.546875 -16.609375 20.546875 -19.890625 C 20.546875 -23.140625 18.660156 -24.765625 14.890625 -24.765625 L 8.40625 -24.765625 Z M 8.40625 -14.96875" transform="translate(567.166 587.076)"/></g></g></g><g fill="#E89A7D"><g><g><path d="M 3.4375 0.328125 C 2.488281 0.328125 1.804688 0 1.390625 -0.65625 C 0.984375 -1.3125 1 -2.101562 1.4375 -3.03125 L 12.265625 -27.015625 C 12.617188 -27.804688 13.046875 -28.375 13.546875 -28.71875 C 14.054688 -29.0625 14.640625 -29.234375 15.296875 -29.234375 C 15.921875 -29.234375 16.484375 -29.0625 16.984375 -28.71875 C 17.492188 -28.375 17.925781 -27.804688 18.28125 -27.015625 L 29.15625 -3.03125 C 29.59375 -2.070312 29.617188 -1.269531 29.234375 -0.625 C 28.847656 0.0078125 28.191406 0.328125 27.265625 0.328125 C 26.492188 0.328125 25.894531 0.144531 25.46875 -0.21875 C 25.050781 -0.59375 24.679688 -1.160156 24.359375 -1.921875 L 22.296875 -6.6875 L 8.203125 -6.6875 L 6.1875 -1.921875 C 5.832031 -1.128906 5.460938 -0.554688 5.078125 -0.203125 C 4.703125 0.148438 4.15625 0.328125 3.4375 0.328125 Z M 15.21875 -23.203125 L 10 -10.859375 L 20.5 -10.859375 L 15.296875 -23.203125 Z M 15.21875 -23.203125" transform="translate(593.893 587.076)"/></g></g></g><g fill="#E89A7D"><g><g><path d="M 16.609375 0.40625 C 13.597656 0.40625 11.019531 -0.195312 8.875 -1.40625 C 6.726562 -2.625 5.082031 -4.347656 3.9375 -6.578125 C 2.789062 -8.804688 2.21875 -11.4375 2.21875 -14.46875 C 2.21875 -17.507812 2.789062 -20.132812 3.9375 -22.34375 C 5.082031 -24.5625 6.726562 -26.273438 8.875 -27.484375 C 11.019531 -28.703125 13.597656 -29.3125 16.609375 -29.3125 C 18.109375 -29.3125 19.582031 -29.117188 21.03125 -28.734375 C 22.476562 -28.359375 23.75 -27.8125 24.84375 -27.09375 C 25.550781 -26.632812 25.972656 -26.082031 26.109375 -25.4375 C 26.253906 -24.800781 26.175781 -24.210938 25.875 -23.671875 C 25.570312 -23.140625 25.117188 -22.785156 24.515625 -22.609375 C 23.910156 -22.429688 23.242188 -22.585938 22.515625 -23.078125 C 21.660156 -23.628906 20.738281 -24.023438 19.75 -24.265625 C 18.769531 -24.515625 17.773438 -24.640625 16.765625 -24.640625 C 13.835938 -24.640625 11.609375 -23.757812 10.078125 -22 C 8.554688 -20.238281 7.796875 -17.726562 7.796875 -14.46875 C 7.796875 -11.21875 8.554688 -8.703125 10.078125 -6.921875 C 11.609375 -5.148438 13.835938 -4.265625 16.765625 -4.265625 C 17.804688 -4.265625 18.832031 -4.394531 19.84375 -4.65625 C 20.851562 -4.914062 21.8125 -5.316406 22.71875 -5.859375 C 23.457031 -6.328125 24.113281 -6.476562 24.6875 -6.3125 C 25.257812 -6.144531 25.6875 -5.804688 25.96875 -5.296875 C 26.257812 -4.796875 26.347656 -4.242188 26.234375 -3.640625 C 26.128906 -3.046875 25.765625 -2.515625 25.140625 -2.046875 C 24.046875 -1.253906 22.738281 -0.644531 21.21875 -0.21875 C 19.695312 0.195312 18.160156 0.40625 16.609375 0.40625 Z M 16.609375 0.40625" transform="translate(624.39 587.076)"/></g></g></g><g fill="#E89A7D"><g><g><path d="M 5.78125 0.328125 C 4.03125 0.328125 3.15625 -0.570312 3.15625 -2.375 L 3.15625 -26.5625 C 3.15625 -28.34375 4.03125 -29.234375 5.78125 -29.234375 C 7.53125 -29.234375 8.40625 -28.34375 8.40625 -26.5625 L 8.40625 -16.109375 L 8.484375 -16.109375 L 20.25 -27.921875 C 20.6875 -28.359375 21.125 -28.6875 21.5625 -28.90625 C 22 -29.125 22.492188 -29.234375 23.046875 -29.234375 C 23.835938 -29.234375 24.398438 -29.023438 24.734375 -28.609375 C 25.078125 -28.203125 25.210938 -27.722656 25.140625 -27.171875 C 25.078125 -26.628906 24.816406 -26.128906 24.359375 -25.671875 L 13.578125 -15 L 24.921875 -3.484375 C 25.492188 -2.941406 25.796875 -2.367188 25.828125 -1.765625 C 25.859375 -1.160156 25.675781 -0.660156 25.28125 -0.265625 C 24.882812 0.128906 24.300781 0.328125 23.53125 0.328125 C 22.875 0.328125 22.347656 0.191406 21.953125 -0.078125 C 21.554688 -0.347656 21.097656 -0.742188 20.578125 -1.265625 L 8.484375 -13.359375 L 8.40625 -13.359375 L 8.40625 -2.375 C 8.40625 -0.570312 7.53125 0.328125 5.78125 0.328125 Z M 5.78125 0.328125" transform="translate(652.266 587.076)"/></g></g></g><g fill="#E89A7D"><g><g><path d="M 3.4375 0.328125 C 2.488281 0.328125 1.804688 0 1.390625 -0.65625 C 0.984375 -1.3125 1 -2.101562 1.4375 -3.03125 L 12.265625 -27.015625 C 12.617188 -27.804688 13.046875 -28.375 13.546875 -28.71875 C 14.054688 -29.0625 14.640625 -29.234375 15.296875 -29.234375 C 15.921875 -29.234375 16.484375 -29.0625 16.984375 -28.71875 C 17.492188 -28.375 17.925781 -27.804688 18.28125 -27.015625 L 29.15625 -3.03125 C 29.59375 -2.070312 29.617188 -1.269531 29.234375 -0.625 C 28.847656 0.0078125 28.191406 0.328125 27.265625 0.328125 C 26.492188 0.328125 25.894531 0.144531 25.46875 -0.21875 C 25.050781 -0.59375 24.679688 -1.160156 24.359375 -1.921875 L 22.296875 -6.6875 L 8.203125 -6.6875 L 6.1875 -1.921875 C 5.832031 -1.128906 5.460938 -0.554688 5.078125 -0.203125 C 4.703125 0.148438 4.15625 0.328125 3.4375 0.328125 Z M 15.21875 -23.203125 L 10 -10.859375 L 20.5 -10.859375 L 15.296875 -23.203125 Z M 15.21875 -23.203125" transform="translate(679.525 587.076)"/></g></g></g><g fill="#E89A7D"><g><g><path d="M 17.0625 0.40625 C 13.863281 0.40625 11.160156 -0.191406 8.953125 -1.390625 C 6.753906 -2.597656 5.082031 -4.304688 3.9375 -6.515625 C 2.789062 -8.734375 2.21875 -11.359375 2.21875 -14.390625 C 2.21875 -17.453125 2.800781 -20.097656 3.96875 -22.328125 C 5.144531 -24.554688 6.835938 -26.273438 9.046875 -27.484375 C 11.265625 -28.703125 13.921875 -29.3125 17.015625 -29.3125 C 18.546875 -29.3125 20.082031 -29.125 21.625 -28.75 C 23.164062 -28.382812 24.625 -27.765625 26 -26.890625 C 26.59375 -26.535156 26.9375 -26.0625 27.03125 -25.46875 C 27.132812 -24.882812 27.046875 -24.332031 26.765625 -23.8125 C 26.492188 -23.300781 26.082031 -22.941406 25.53125 -22.734375 C 24.988281 -22.523438 24.390625 -22.613281 23.734375 -23 C 22.703125 -23.601562 21.648438 -24.039062 20.578125 -24.3125 C 19.515625 -24.582031 18.328125 -24.71875 17.015625 -24.71875 C 13.953125 -24.71875 11.632812 -23.828125 10.0625 -22.046875 C 8.488281 -20.273438 7.703125 -17.722656 7.703125 -14.390625 C 7.703125 -11.023438 8.507812 -8.46875 10.125 -6.71875 C 11.738281 -4.96875 14.128906 -4.09375 17.296875 -4.09375 C 18.203125 -4.09375 19.125 -4.164062 20.0625 -4.3125 C 21.007812 -4.46875 21.945312 -4.695312 22.875 -5 L 22.875 -11.71875 L 18.375 -11.71875 C 16.945312 -11.71875 16.234375 -12.375 16.234375 -13.6875 C 16.234375 -14.976562 16.945312 -15.625 18.375 -15.625 L 25.140625 -15.625 C 26.554688 -15.625 27.265625 -14.910156 27.265625 -13.484375 L 27.265625 -3.53125 C 27.265625 -2.269531 26.769531 -1.460938 25.78125 -1.109375 C 24.582031 -0.671875 23.203125 -0.304688 21.640625 -0.015625 C 20.085938 0.265625 18.5625 0.40625 17.0625 0.40625 Z M 17.0625 0.40625" transform="translate(710.024 587.076)"/></g></g></g><g fill="#E89A7D"><g><g><path d="M 5.9375 0 C 4.082031 0 3.15625 -0.925781 3.15625 -2.78125 L 3.15625 -26.109375 C 3.15625 -27.972656 4.082031 -28.90625 5.9375 -28.90625 L 20.578125 -28.90625 C 22.003906 -28.90625 22.71875 -28.222656 22.71875 -26.859375 C 22.71875 -25.429688 22.003906 -24.71875 20.578125 -24.71875 L 8.203125 -24.71875 L 8.203125 -16.765625 L 19.6875 -16.765625 C 21.101562 -16.765625 21.8125 -16.066406 21.8125 -14.671875 C 21.8125 -13.285156 21.101562 -12.59375 19.6875 -12.59375 L 8.203125 -12.59375 L 8.203125 -4.1875 L 20.578125 -4.1875 C 22.003906 -4.1875 22.71875 -3.488281 22.71875 -2.09375 C 22.71875 -0.695312 22.003906 0 20.578125 0 Z M 5.9375 0" transform="translate(740.194 587.076)"/></g></g></g><g fill="#E89A7D"><g><g><path d="M 13.125 0.40625 C 11.289062 0.40625 9.503906 0.203125 7.765625 -0.203125 C 6.035156 -0.609375 4.523438 -1.222656 3.234375 -2.046875 C 2.609375 -2.460938 2.226562 -2.96875 2.09375 -3.5625 C 1.957031 -4.164062 2.003906 -4.734375 2.234375 -5.265625 C 2.460938 -5.796875 2.828125 -6.164062 3.328125 -6.375 C 3.835938 -6.582031 4.421875 -6.476562 5.078125 -6.0625 C 6.285156 -5.351562 7.554688 -4.832031 8.890625 -4.5 C 10.234375 -4.175781 11.644531 -4.015625 13.125 -4.015625 C 15.28125 -4.015625 16.847656 -4.375 17.828125 -5.09375 C 18.816406 -5.820312 19.3125 -6.757812 19.3125 -7.90625 C 19.3125 -8.863281 18.960938 -9.613281 18.265625 -10.15625 C 17.566406 -10.707031 16.367188 -11.160156 14.671875 -11.515625 L 10.171875 -12.46875 C 5.023438 -13.5625 2.453125 -16.195312 2.453125 -20.375 C 2.453125 -22.175781 2.929688 -23.742188 3.890625 -25.078125 C 4.847656 -26.421875 6.171875 -27.460938 7.859375 -28.203125 C 9.554688 -28.941406 11.515625 -29.3125 13.734375 -29.3125 C 15.367188 -29.3125 16.925781 -29.101562 18.40625 -28.6875 C 19.882812 -28.28125 21.210938 -27.679688 22.390625 -26.890625 C 22.929688 -26.515625 23.253906 -26.046875 23.359375 -25.484375 C 23.472656 -24.921875 23.40625 -24.398438 23.15625 -23.921875 C 22.914062 -23.441406 22.53125 -23.113281 22 -22.9375 C 21.46875 -22.757812 20.84375 -22.875 20.125 -23.28125 C 19.113281 -23.863281 18.085938 -24.273438 17.046875 -24.515625 C 16.015625 -24.765625 14.894531 -24.890625 13.6875 -24.890625 C 11.800781 -24.890625 10.328125 -24.492188 9.265625 -23.703125 C 8.203125 -22.910156 7.671875 -21.867188 7.671875 -20.578125 C 7.671875 -19.597656 8 -18.8125 8.65625 -18.21875 C 9.3125 -17.632812 10.429688 -17.175781 12.015625 -16.84375 L 16.484375 -15.90625 C 19.191406 -15.332031 21.207031 -14.429688 22.53125 -13.203125 C 23.851562 -11.972656 24.515625 -10.332031 24.515625 -8.28125 C 24.515625 -6.5625 24.050781 -5.046875 23.125 -3.734375 C 22.195312 -2.421875 20.878906 -1.398438 19.171875 -0.671875 C 17.460938 0.046875 15.445312 0.40625 13.125 0.40625 Z M 13.125 0.40625" transform="translate(764.666 587.076)"/></g></g></g></svg>